<svg preserveAspectRatio="none" width="100%" height="100%" overflow="visible" style="display: block;" viewBox="0 0 127.867 22" fill="none" xmlns="http://www.w3.org/2000/svg">
<path id="Vector" fill-rule="evenodd" clip-rule="evenodd" d="M104.107 6.59723C104.596 7.24286 104.756 7.97743 104.809 8.80324L104.878 9.90393V17.6007L104.949 18.7025C105.091 20.502 106.824 21.8325 109.193 21.9457L110.624 22V9.90393L110.695 8.80324C110.754 7.98667 110.912 7.23824 111.409 6.58799C111.915 5.92103 112.641 5.36767 113.514 4.98348C114.387 4.59928 115.377 4.39777 116.385 4.39918C117.392 4.40058 118.381 4.60485 119.253 4.99148C120.124 5.37811 120.848 5.93348 121.35 6.60185C121.839 7.24748 121.991 7.99591 122.05 8.80324L122.121 9.90046V17.6007L122.192 18.7025C122.34 20.5112 124.059 21.8418 126.435 21.9457L127.867 22V8.80324C127.867 6.46969 126.657 4.23166 124.502 2.58127C122.347 0.930875 119.424 0.00323181 116.376 0.00231305C114.745 0.000995875 113.132 0.266231 111.645 0.780298C110.159 1.29437 108.832 2.04543 107.755 2.98331C106.677 2.0458 105.351 1.29492 103.864 0.780697C102.378 0.266477 100.765 0.000728203 99.1338 0.00115785C96.7473 0.00115785 94.5327 0.555547 92.6983 1.51302C91.579 0.556701 89.0748 0.00115785 87.6372 0.00115785V22L89.0748 21.9457C91.4794 21.8244 93.2173 20.5297 93.3108 18.7025L93.3877 17.6007V9.90393L93.4586 8.80324C93.519 7.97281 93.6698 7.24286 94.1601 6.59261C94.6663 5.92607 95.392 5.37284 96.2647 4.98817C97.1375 4.60351 98.1267 4.40086 99.1338 4.40046C100.142 4.40063 101.132 4.60368 102.005 4.98925C102.878 5.37482 103.603 5.92935 104.107 6.59723V6.59723ZM5.74603 21.9469L7.18367 22H28.7332L28.6623 20.9028C28.4677 19.0941 26.7947 17.7728 24.4248 17.655L22.9872 17.6007H10.059L27.2955 4.39931L27.2246 3.30324C27.113 1.47606 25.3691 0.155925 22.9872 0.0554414L21.5495 0.00577766L0 0.00115785L0.0709014 1.10185C0.259469 2.89322 1.95658 4.24223 4.30688 4.34618L5.74603 4.40046H18.6742L1.43764 17.6018L1.50854 18.7025C1.65034 20.5159 3.35952 21.8291 5.74603 21.9457V21.9469ZM81.9968 3.22123C83.3311 4.2426 84.3895 5.45521 85.1117 6.7898C85.8338 8.1244 86.2055 9.55484 86.2055 10.9994C86.2055 12.444 85.8338 13.8744 85.1117 15.209C84.3895 16.5436 83.3311 17.7562 81.9968 18.7776C79.301 20.8399 75.6461 21.9983 71.8352 21.9983C68.0244 21.9983 64.3695 20.8399 61.6737 18.7776C56.0634 14.4823 56.0634 7.51659 61.6737 3.22123C63.0068 2.20021 64.5895 1.39022 66.3315 0.837517C68.0734 0.284816 69.9405 0.000228005 71.8262 2.65159e-06C73.7149 -0.00100129 75.5853 0.283085 77.3305 0.836013C79.0756 1.38894 80.6613 2.19986 81.9968 3.22239V3.22123ZM77.9312 6.33621C79.5472 7.57436 80.4549 9.25311 80.4549 11.0035C80.4549 12.7538 79.5472 14.4326 77.9312 15.6707C76.3141 16.908 74.1214 17.6029 71.8352 17.6029C69.549 17.6029 67.3564 16.908 65.7392 15.6707C64.1232 14.4326 63.2155 12.7538 63.2155 11.0035C63.2155 9.25311 64.1232 7.57436 65.7392 6.33621C67.3564 5.09898 69.549 4.404 71.8352 4.404C74.1214 4.404 76.3141 5.09898 77.9312 6.33621V6.33621ZM41.6735 2.65159e-06C43.5592 0.000379687 45.4263 0.28515 47.1683 0.838051C48.9103 1.39095 50.493 2.20115 51.8259 3.22239C57.4377 7.51659 57.4377 14.4834 51.8259 18.7776C49.1302 20.8399 45.4752 21.9983 41.6644 21.9983C37.8536 21.9983 34.1986 20.8399 31.5029 18.7776C25.8926 14.4823 25.8926 7.51659 31.5029 3.22123C32.836 2.20021 34.4187 1.39022 36.1606 0.837517C37.9026 0.284816 39.7697 0.000228005 41.6553 2.65159e-06H41.6735ZM47.7604 6.3339C49.3768 7.5721 50.2849 9.25109 50.2849 11.0017C50.2849 12.7524 49.3768 14.4314 47.7604 15.6696C46.1432 16.9068 43.9506 17.6018 41.6644 17.6018C39.3782 17.6018 37.1856 16.9068 35.5684 15.6696C33.9524 14.4314 33.0447 12.7527 33.0447 11.0023C33.0447 9.25195 33.9524 7.57321 35.5684 6.33505C37.1856 5.09783 39.3782 4.40284 41.6644 4.40284C43.9506 4.40284 46.1432 5.09783 47.7604 6.33505V6.3339Z" fill="var(--fill-0, #2D8CFF)"/>
</svg>
