<svg preserveAspectRatio="none" width="100%" height="100%" overflow="visible" style="display: block;" viewBox="0 0 882.387 401.222" fill="none" xmlns="http://www.w3.org/2000/svg">
<g id="Vector" opacity="0.7" style="mix-blend-mode:soft-light">
<path d="M20.1739 0.125304H0.125304V20.1739M20.1739 0.125304V20.1739M20.1739 0.125304H40.2224M20.1739 20.1739H0.125304M20.1739 20.1739V40.2224M20.1739 20.1739H40.2224M0.125304 20.1739V40.2224M20.1739 40.2224H0.125304M20.1739 40.2224V60.2709M20.1739 40.2224H40.2224M0.125304 40.2224V60.2709M20.1739 60.2709H0.125304M20.1739 60.2709V80.3195M20.1739 60.2709H40.2224M0.125304 60.2709V80.3195M20.1739 80.3195H0.125304M20.1739 80.3195V100.368M20.1739 80.3195H40.2224M0.125304 80.3195V100.368M20.1739 100.368H0.125304M20.1739 100.368V120.417M20.1739 100.368H40.2224M0.125304 100.368V120.417M20.1739 120.417H0.125304M20.1739 120.417V140.465M20.1739 120.417H40.2224M0.125304 120.417V140.465M20.1739 140.465H0.125304M20.1739 140.465V160.514M20.1739 140.465H40.2224M0.125304 140.465V160.514M20.1739 160.514H0.125304M20.1739 160.514V180.562M20.1739 160.514H40.2224M0.125304 160.514V180.562M20.1739 180.562H0.125304M20.1739 180.562V200.611M20.1739 180.562H40.2224M0.125304 180.562V200.611M20.1739 200.611H0.125304M20.1739 200.611V220.659M20.1739 200.611H40.2224M0.125304 200.611V220.659M20.1739 220.659H0.125304M20.1739 220.659V240.708M20.1739 220.659H40.2224M0.125304 220.659V240.708M20.1739 240.708H0.125304M20.1739 240.708V260.756M20.1739 240.708H40.2224M0.125304 240.708V260.756M20.1739 260.756H0.125304M20.1739 260.756V280.805M20.1739 260.756H40.2224M0.125304 260.756V280.805M20.1739 280.805H0.125304M20.1739 280.805V300.854M20.1739 280.805H40.2224M0.125304 280.805V300.854M20.1739 300.854H0.125304M20.1739 300.854V320.902M20.1739 300.854H40.2224M0.125304 300.854V320.902M20.1739 320.902H0.125304M20.1739 320.902V340.951M20.1739 320.902H40.2224M0.125304 320.902V340.951M20.1739 340.951H0.125304M20.1739 340.951V360.999M20.1739 340.951H40.2224M0.125304 340.951V360.999M20.1739 360.999H0.125304M20.1739 360.999V381.048M20.1739 360.999H40.2224M0.125304 360.999V381.048M20.1739 381.048H0.125304M20.1739 381.048V401.096M20.1739 381.048H40.2224M0.125304 381.048V401.096H20.1739M20.1739 401.096H40.2224M40.2224 0.125304V20.1739M40.2224 0.125304H60.2709M40.2224 20.1739V40.2224M40.2224 20.1739H60.2709M40.2224 40.2224V60.2709M40.2224 40.2224H60.2709M40.2224 60.2709V80.3195M40.2224 60.2709H60.2709M40.2224 80.3195V100.368M40.2224 80.3195H60.2709M40.2224 100.368V120.417M40.2224 100.368H60.2709M40.2224 120.417V140.465M40.2224 120.417H60.2709M40.2224 140.465V160.514M40.2224 140.465H60.2709M40.2224 160.514V180.562M40.2224 160.514H60.2709M40.2224 180.562V200.611M40.2224 180.562H60.2709M40.2224 200.611V220.659M40.2224 200.611H60.2709M40.2224 220.659V240.708M40.2224 220.659H60.2709M40.2224 240.708V260.756M40.2224 240.708H60.2709M40.2224 260.756V280.805M40.2224 260.756H60.2709M40.2224 280.805V300.854M40.2224 280.805H60.2709M40.2224 300.854V320.902M40.2224 300.854H60.2709M40.2224 320.902V340.951M40.2224 320.902H60.2709M40.2224 340.951V360.999M40.2224 340.951H60.2709M40.2224 360.999V381.048M40.2224 360.999H60.2709M40.2224 381.048V401.096M40.2224 381.048H60.2709M40.2224 401.096H60.2709M60.2709 0.125304V20.1739M60.2709 0.125304H80.3195M60.2709 20.1739V40.2224M60.2709 20.1739H80.3195M60.2709 40.2224V60.2709M60.2709 40.2224H80.3195M60.2709 60.2709V80.3195M60.2709 60.2709H80.3195M60.2709 80.3195V100.368M60.2709 80.3195H80.3195M60.2709 100.368V120.417M60.2709 100.368H80.3195M60.2709 120.417V140.465M60.2709 120.417H80.3195M60.2709 140.465V160.514M60.2709 140.465H80.3195M60.2709 160.514V180.562M60.2709 160.514H80.3195M60.2709 180.562V200.611M60.2709 180.562H80.3195M60.2709 200.611V220.659M60.2709 200.611H80.3195M60.2709 220.659V240.708M60.2709 220.659H80.3195M60.2709 240.708V260.756M60.2709 240.708H80.3195M60.2709 260.756V280.805M60.2709 260.756H80.3195M60.2709 280.805V300.854M60.2709 280.805H80.3195M60.2709 300.854V320.902M60.2709 300.854H80.3195M60.2709 320.902V340.951M60.2709 320.902H80.3195M60.2709 340.951V360.999M60.2709 340.951H80.3195M60.2709 360.999V381.048M60.2709 360.999H80.3195M60.2709 381.048V401.096M60.2709 381.048H80.3195M60.2709 401.096H80.3195M80.3195 0.125304V20.1739M80.3195 0.125304H100.368M80.3195 20.1739V40.2224M80.3195 20.1739H100.368M80.3195 40.2224V60.2709M80.3195 40.2224H100.368M80.3195 60.2709V80.3195M80.3195 60.2709H100.368M80.3195 80.3195V100.368M80.3195 80.3195H100.368M80.3195 100.368V120.417M80.3195 100.368H100.368M80.3195 120.417V140.465M80.3195 120.417H100.368M80.3195 140.465V160.514M80.3195 140.465H100.368M80.3195 160.514V180.562M80.3195 160.514H100.368M80.3195 180.562V200.611M80.3195 180.562H100.368M80.3195 200.611V220.659M80.3195 200.611H100.368M80.3195 220.659V240.708M80.3195 220.659H100.368M80.3195 240.708V260.756M80.3195 240.708H100.368M80.3195 260.756V280.805M80.3195 260.756H100.368M80.3195 280.805V300.854M80.3195 280.805H100.368M80.3195 300.854V320.902M80.3195 300.854H100.368M80.3195 320.902V340.951M80.3195 320.902H100.368M80.3195 340.951V360.999M80.3195 340.951H100.368M80.3195 360.999V381.048M80.3195 360.999H100.368M80.3195 381.048V401.096M80.3195 381.048H100.368M80.3195 401.096H100.368M100.368 0.125304V20.1739M100.368 0.125304H120.417M100.368 20.1739V40.2224M100.368 20.1739H120.417M100.368 40.2224V60.2709M100.368 40.2224H120.417M100.368 60.2709V80.3195M100.368 60.2709H120.417M100.368 80.3195V100.368M100.368 80.3195H120.417M100.368 100.368V120.417M100.368 100.368H120.417M100.368 120.417V140.465M100.368 120.417H120.417M100.368 140.465V160.514M100.368 140.465H120.417M100.368 160.514V180.562M100.368 160.514H120.417M100.368 180.562V200.611M100.368 180.562H120.417M100.368 200.611V220.659M100.368 200.611H120.417M100.368 220.659V240.708M100.368 220.659H120.417M100.368 240.708V260.756M100.368 240.708H120.417M100.368 260.756V280.805M100.368 260.756H120.417M100.368 280.805V300.854M100.368 280.805H120.417M100.368 300.854V320.902M100.368 300.854H120.417M100.368 320.902V340.951M100.368 320.902H120.417M100.368 340.951V360.999M100.368 340.951H120.417M100.368 360.999V381.048M100.368 360.999H120.417M100.368 381.048V401.096M100.368 381.048H120.417M100.368 401.096H120.417M120.417 0.125304V20.1739M120.417 0.125304H140.465M120.417 20.1739V40.2224M120.417 20.1739H140.465M120.417 40.2224V60.2709M120.417 40.2224H140.465M120.417 60.2709V80.3195M120.417 60.2709H140.465M120.417 80.3195V100.368M120.417 80.3195H140.465M120.417 100.368V120.417M120.417 100.368H140.465M120.417 120.417V140.465M120.417 120.417H140.465M120.417 140.465V160.514M120.417 140.465H140.465M120.417 160.514V180.562M120.417 160.514H140.465M120.417 180.562V200.611M120.417 180.562H140.465M120.417 200.611V220.659M120.417 200.611H140.465M120.417 220.659V240.708M120.417 220.659H140.465M120.417 240.708V260.756M120.417 240.708H140.465M120.417 260.756V280.805M120.417 260.756H140.465M120.417 280.805V300.854M120.417 280.805H140.465M120.417 300.854V320.902M120.417 300.854H140.465M120.417 320.902V340.951M120.417 320.902H140.465M120.417 340.951V360.999M120.417 340.951H140.465M120.417 360.999V381.048M120.417 360.999H140.465M120.417 381.048V401.096M120.417 381.048H140.465M120.417 401.096H140.465M140.465 0.125304V20.1739M140.465 0.125304H160.514M140.465 20.1739V40.2224M140.465 20.1739H160.514M140.465 40.2224V60.2709M140.465 40.2224H160.514M140.465 60.2709V80.3195M140.465 60.2709H160.514M140.465 80.3195V100.368M140.465 80.3195H160.514M140.465 100.368V120.417M140.465 100.368H160.514M140.465 120.417V140.465M140.465 120.417H160.514M140.465 140.465V160.514M140.465 140.465H160.514M140.465 160.514V180.562M140.465 160.514H160.514M140.465 180.562V200.611M140.465 180.562H160.514M140.465 200.611V220.659M140.465 200.611H160.514M140.465 220.659V240.708M140.465 220.659H160.514M140.465 240.708V260.756M140.465 240.708H160.514M140.465 260.756V280.805M140.465 260.756H160.514M140.465 280.805V300.854M140.465 280.805H160.514M140.465 300.854V320.902M140.465 300.854H160.514M140.465 320.902V340.951M140.465 320.902H160.514M140.465 340.951V360.999M140.465 340.951H160.514M140.465 360.999V381.048M140.465 360.999H160.514M140.465 381.048V401.096M140.465 381.048H160.514M140.465 401.096H160.514M160.514 0.125304V20.1739M160.514 0.125304H180.562M160.514 20.1739V40.2224M160.514 20.1739H180.562M160.514 40.2224V60.2709M160.514 40.2224H180.562M160.514 60.2709V80.3195M160.514 60.2709H180.562M160.514 80.3195V100.368M160.514 80.3195H180.562M160.514 100.368V120.417M160.514 100.368H180.562M160.514 120.417V140.465M160.514 120.417H180.562M160.514 140.465V160.514M160.514 140.465H180.562M160.514 160.514V180.562M160.514 160.514H180.562M160.514 180.562V200.611M160.514 180.562H180.562M160.514 200.611V220.659M160.514 200.611H180.562M160.514 220.659V240.708M160.514 220.659H180.562M160.514 240.708V260.756M160.514 240.708H180.562M160.514 260.756V280.805M160.514 260.756H180.562M160.514 280.805V300.854M160.514 280.805H180.562M160.514 300.854V320.902M160.514 300.854H180.562M160.514 320.902V340.951M160.514 320.902H180.562M160.514 340.951V360.999M160.514 340.951H180.562M160.514 360.999V381.048M160.514 360.999H180.562M160.514 381.048V401.096M160.514 381.048H180.562M160.514 401.096H180.562M180.562 0.125304V20.1739M180.562 0.125304H200.611M180.562 20.1739V40.2224M180.562 20.1739H200.611M180.562 40.2224V60.2709M180.562 40.2224H200.611M180.562 60.2709V80.3195M180.562 60.2709H200.611M180.562 80.3195V100.368M180.562 80.3195H200.611M180.562 100.368V120.417M180.562 100.368H200.611M180.562 120.417V140.465M180.562 120.417H200.611M180.562 140.465V160.514M180.562 140.465H200.611M180.562 160.514V180.562M180.562 160.514H200.611M180.562 180.562V200.611M180.562 180.562H200.611M180.562 200.611V220.659M180.562 200.611H200.611M180.562 220.659V240.708M180.562 220.659H200.611M180.562 240.708V260.756M180.562 240.708H200.611M180.562 260.756V280.805M180.562 260.756H200.611M180.562 280.805V300.854M180.562 280.805H200.611M180.562 300.854V320.902M180.562 300.854H200.611M180.562 320.902V340.951M180.562 320.902H200.611M180.562 340.951V360.999M180.562 340.951H200.611M180.562 360.999V381.048M180.562 360.999H200.611M180.562 381.048V401.096M180.562 381.048H200.611M180.562 401.096H200.611M200.611 0.125304V20.1739M200.611 0.125304H220.659M200.611 20.1739V40.2224M200.611 20.1739H220.659M200.611 40.2224V60.2709M200.611 40.2224H220.659M200.611 60.2709V80.3195M200.611 60.2709H220.659M200.611 80.3195V100.368M200.611 80.3195H220.659M200.611 100.368V120.417M200.611 100.368H220.659M200.611 120.417V140.465M200.611 120.417H220.659M200.611 140.465V160.514M200.611 140.465H220.659M200.611 160.514V180.562M200.611 160.514H220.659M200.611 180.562V200.611M200.611 180.562H220.659M200.611 200.611V220.659M200.611 200.611H220.659M200.611 220.659V240.708M200.611 220.659H220.659M200.611 240.708V260.756M200.611 240.708H220.659M200.611 260.756V280.805M200.611 260.756H220.659M200.611 280.805V300.854M200.611 280.805H220.659M200.611 300.854V320.902M200.611 300.854H220.659M200.611 320.902V340.951M200.611 320.902H220.659M200.611 340.951V360.999M200.611 340.951H220.659M200.611 360.999V381.048M200.611 360.999H220.659M200.611 381.048V401.096M200.611 381.048H220.659M200.611 401.096H220.659M220.659 0.125304V20.1739M220.659 0.125304H240.708M220.659 20.1739V40.2224M220.659 20.1739H240.708M220.659 40.2224V60.2709M220.659 40.2224H240.708M220.659 60.2709V80.3195M220.659 60.2709H240.708M220.659 80.3195V100.368M220.659 80.3195H240.708M220.659 100.368V120.417M220.659 100.368H240.708M220.659 120.417V140.465M220.659 120.417H240.708M220.659 140.465V160.514M220.659 140.465H240.708M220.659 160.514V180.562M220.659 160.514H240.708M220.659 180.562V200.611M220.659 180.562H240.708M220.659 200.611V220.659M220.659 200.611H240.708M220.659 220.659V240.708M220.659 220.659H240.708M220.659 240.708V260.756M220.659 240.708H240.708M220.659 260.756V280.805M220.659 260.756H240.708M220.659 280.805V300.854M220.659 280.805H240.708M220.659 300.854V320.902M220.659 300.854H240.708M220.659 320.902V340.951M220.659 320.902H240.708M220.659 340.951V360.999M220.659 340.951H240.708M220.659 360.999V381.048M220.659 360.999H240.708M220.659 381.048V401.096M220.659 381.048H240.708M220.659 401.096H240.708M240.708 0.125304V20.1739M240.708 0.125304H260.756M240.708 20.1739V40.2224M240.708 20.1739H260.756M240.708 40.2224V60.2709M240.708 40.2224H260.756M240.708 60.2709V80.3195M240.708 60.2709H260.756M240.708 80.3195V100.368M240.708 80.3195H260.756M240.708 100.368V120.417M240.708 100.368H260.756M240.708 120.417V140.465M240.708 120.417H260.756M240.708 140.465V160.514M240.708 140.465H260.756M240.708 160.514V180.562M240.708 160.514H260.756M240.708 180.562V200.611M240.708 180.562H260.756M240.708 200.611V220.659M240.708 200.611H260.756M240.708 220.659V240.708M240.708 220.659H260.756M240.708 240.708V260.756M240.708 240.708H260.756M240.708 260.756V280.805M240.708 260.756H260.756M240.708 280.805V300.854M240.708 280.805H260.756M240.708 300.854V320.902M240.708 300.854H260.756M240.708 320.902V340.951M240.708 320.902H260.756M240.708 340.951V360.999M240.708 340.951H260.756M240.708 360.999V381.048M240.708 360.999H260.756M240.708 381.048V401.096M240.708 381.048H260.756M240.708 401.096H260.756M260.756 0.125304V20.1739M260.756 0.125304H280.805M260.756 20.1739V40.2224M260.756 20.1739H280.805M260.756 40.2224V60.2709M260.756 40.2224H280.805M260.756 60.2709V80.3195M260.756 60.2709H280.805M260.756 80.3195V100.368M260.756 80.3195H280.805M260.756 100.368V120.417M260.756 100.368H280.805M260.756 120.417V140.465M260.756 120.417H280.805M260.756 140.465V160.514M260.756 140.465H280.805M260.756 160.514V180.562M260.756 160.514H280.805M260.756 180.562V200.611M260.756 180.562H280.805M260.756 200.611V220.659M260.756 200.611H280.805M260.756 220.659V240.708M260.756 220.659H280.805M260.756 240.708V260.756M260.756 240.708H280.805M260.756 260.756V280.805M260.756 260.756H280.805M260.756 280.805V300.854M260.756 280.805H280.805M260.756 300.854V320.902M260.756 300.854H280.805M260.756 320.902V340.951M260.756 320.902H280.805M260.756 340.951V360.999M260.756 340.951H280.805M260.756 360.999V381.048M260.756 360.999H280.805M260.756 381.048V401.096M260.756 381.048H280.805M260.756 401.096H280.805M280.805 0.125304V20.1739M280.805 0.125304H300.854M280.805 20.1739V40.2224M280.805 20.1739H300.854M280.805 40.2224V60.2709M280.805 40.2224H300.854M280.805 60.2709V80.3195M280.805 60.2709H300.854M280.805 80.3195V100.368M280.805 80.3195H300.854M280.805 100.368V120.417M280.805 100.368H300.854M280.805 120.417V140.465M280.805 120.417H300.854M280.805 140.465V160.514M280.805 140.465H300.854M280.805 160.514V180.562M280.805 160.514H300.854M280.805 180.562V200.611M280.805 180.562H300.854M280.805 200.611V220.659M280.805 200.611H300.854M280.805 220.659V240.708M280.805 220.659H300.854M280.805 240.708V260.756M280.805 240.708H300.854M280.805 260.756V280.805M280.805 260.756H300.854M280.805 280.805V300.854M280.805 280.805H300.854M280.805 300.854V320.902M280.805 300.854H300.854M280.805 320.902V340.951M280.805 320.902H300.854M280.805 340.951V360.999M280.805 340.951H300.854M280.805 360.999V381.048M280.805 360.999H300.854M280.805 381.048V401.096M280.805 381.048H300.854M280.805 401.096H300.854M300.854 0.125304V20.1739M300.854 0.125304H320.902M300.854 20.1739V40.2224M300.854 20.1739H320.902M300.854 40.2224V60.2709M300.854 40.2224H320.902M300.854 60.2709V80.3195M300.854 60.2709H320.902M300.854 80.3195V100.368M300.854 80.3195H320.902M300.854 100.368V120.417M300.854 100.368H320.902M300.854 120.417V140.465M300.854 120.417H320.902M300.854 140.465V160.514M300.854 140.465H320.902M300.854 160.514V180.562M300.854 160.514H320.902M300.854 180.562V200.611M300.854 180.562H320.902M300.854 200.611V220.659M300.854 200.611H320.902M300.854 220.659V240.708M300.854 220.659H320.902M300.854 240.708V260.756M300.854 240.708H320.902M300.854 260.756V280.805M300.854 260.756H320.902M300.854 280.805V300.854M300.854 280.805H320.902M300.854 300.854V320.902M300.854 300.854H320.902M300.854 320.902V340.951M300.854 320.902H320.902M300.854 340.951V360.999M300.854 340.951H320.902M300.854 360.999V381.048M300.854 360.999H320.902M300.854 381.048V401.096M300.854 381.048H320.902M300.854 401.096H320.902M320.902 0.125304V20.1739M320.902 0.125304H340.951M320.902 20.1739V40.2224M320.902 20.1739H340.951M320.902 40.2224V60.2709M320.902 40.2224H340.951M320.902 60.2709V80.3195M320.902 60.2709H340.951M320.902 80.3195V100.368M320.902 80.3195H340.951M320.902 100.368V120.417M320.902 100.368H340.951M320.902 120.417V140.465M320.902 120.417H340.951M320.902 140.465V160.514M320.902 140.465H340.951M320.902 160.514V180.562M320.902 160.514H340.951M320.902 180.562V200.611M320.902 180.562H340.951M320.902 200.611V220.659M320.902 200.611H340.951M320.902 220.659V240.708M320.902 220.659H340.951M320.902 240.708V260.756M320.902 240.708H340.951M320.902 260.756V280.805M320.902 260.756H340.951M320.902 280.805V300.854M320.902 280.805H340.951M320.902 300.854V320.902M320.902 300.854H340.951M320.902 320.902V340.951M320.902 320.902H340.951M320.902 340.951V360.999M320.902 340.951H340.951M320.902 360.999V381.048M320.902 360.999H340.951M320.902 381.048V401.096M320.902 381.048H340.951M320.902 401.096H340.951M340.951 0.125304V20.1739M340.951 0.125304H360.999M340.951 20.1739V40.2224M340.951 20.1739H360.999M340.951 40.2224V60.2709M340.951 40.2224H360.999M340.951 60.2709V80.3195M340.951 60.2709H360.999M340.951 80.3195V100.368M340.951 80.3195H360.999M340.951 100.368V120.417M340.951 100.368H360.999M340.951 120.417V140.465M340.951 120.417H360.999M340.951 140.465V160.514M340.951 140.465H360.999M340.951 160.514V180.562M340.951 160.514H360.999M340.951 180.562V200.611M340.951 180.562H360.999M340.951 200.611V220.659M340.951 200.611H360.999M340.951 220.659V240.708M340.951 220.659H360.999M340.951 240.708V260.756M340.951 240.708H360.999M340.951 260.756V280.805M340.951 260.756H360.999M340.951 280.805V300.854M340.951 280.805H360.999M340.951 300.854V320.902M340.951 300.854H360.999M340.951 320.902V340.951M340.951 320.902H360.999M340.951 340.951V360.999M340.951 340.951H360.999M340.951 360.999V381.048M340.951 360.999H360.999M340.951 381.048V401.096M340.951 381.048H360.999M340.951 401.096H360.999M360.999 0.125304V20.1739M360.999 0.125304H381.048M360.999 20.1739V40.2224M360.999 20.1739H381.048M360.999 40.2224V60.2709M360.999 40.2224H381.048M360.999 60.2709V80.3195M360.999 60.2709H381.048M360.999 80.3195V100.368M360.999 80.3195H381.048M360.999 100.368V120.417M360.999 100.368H381.048M360.999 120.417V140.465M360.999 120.417H381.048M360.999 140.465V160.514M360.999 140.465H381.048M360.999 160.514V180.562M360.999 160.514H381.048M360.999 180.562V200.611M360.999 180.562H381.048M360.999 200.611V220.659M360.999 200.611H381.048M360.999 220.659V240.708M360.999 220.659H381.048M360.999 240.708V260.756M360.999 240.708H381.048M360.999 260.756V280.805M360.999 260.756H381.048M360.999 280.805V300.854M360.999 280.805H381.048M360.999 300.854V320.902M360.999 300.854H381.048M360.999 320.902V340.951M360.999 320.902H381.048M360.999 340.951V360.999M360.999 340.951H381.048M360.999 360.999V381.048M360.999 360.999H381.048M360.999 381.048V401.096M360.999 381.048H381.048M360.999 401.096H381.048M381.048 0.125304V20.1739M381.048 0.125304H401.096M381.048 20.1739V40.2224M381.048 20.1739H401.096M381.048 40.2224V60.2709M381.048 40.2224H401.096M381.048 60.2709V80.3195M381.048 60.2709H401.096M381.048 80.3195V100.368M381.048 80.3195H401.096M381.048 100.368V120.417M381.048 100.368H401.096M381.048 120.417V140.465M381.048 120.417H401.096M381.048 140.465V160.514M381.048 140.465H401.096M381.048 160.514V180.562M381.048 160.514H401.096M381.048 180.562V200.611M381.048 180.562H401.096M381.048 200.611V220.659M381.048 200.611H401.096M381.048 220.659V240.708M381.048 220.659H401.096M381.048 240.708V260.756M381.048 240.708H401.096M381.048 260.756V280.805M381.048 260.756H401.096M381.048 280.805V300.854M381.048 280.805H401.096M381.048 300.854V320.902M381.048 300.854H401.096M381.048 320.902V340.951M381.048 320.902H401.096M381.048 340.951V360.999M381.048 340.951H401.096M381.048 360.999V381.048M381.048 360.999H401.096M381.048 381.048V401.096M381.048 381.048H401.096M381.048 401.096H401.096M401.096 0.125304V20.1739M401.096 0.125304H421.145M401.096 20.1739V40.2224M401.096 20.1739H421.145M401.096 40.2224V60.2709M401.096 40.2224H421.145M401.096 60.2709V80.3195M401.096 60.2709H421.145M401.096 80.3195V100.368M401.096 80.3195H421.145M401.096 100.368V120.417M401.096 100.368H421.145M401.096 120.417V140.465M401.096 120.417H421.145M401.096 140.465V160.514M401.096 140.465H421.145M401.096 160.514V180.562M401.096 160.514H421.145M401.096 180.562V200.611M401.096 180.562H421.145M401.096 200.611V220.659M401.096 200.611H421.145M401.096 220.659V240.708M401.096 220.659H421.145M401.096 240.708V260.756M401.096 240.708H421.145M401.096 260.756V280.805M401.096 260.756H421.145M401.096 280.805V300.854M401.096 280.805H421.145M401.096 300.854V320.902M401.096 300.854H421.145M401.096 320.902V340.951M401.096 320.902H421.145M401.096 340.951V360.999M401.096 340.951H421.145M401.096 360.999V381.048M401.096 360.999H421.145M401.096 381.048V401.096M401.096 381.048H421.145M401.096 401.096H421.145M421.145 0.125304V20.1739M421.145 0.125304H441.193M421.145 20.1739V40.2224M421.145 20.1739H441.193M421.145 40.2224V60.2709M421.145 40.2224H441.193M421.145 60.2709V80.3195M421.145 60.2709H441.193M421.145 80.3195V100.368M421.145 80.3195H441.193M421.145 100.368V120.417M421.145 100.368H441.193M421.145 120.417V140.465M421.145 120.417H441.193M421.145 140.465V160.514M421.145 140.465H441.193M421.145 160.514V180.562M421.145 160.514H441.193M421.145 180.562V200.611M421.145 180.562H441.193M421.145 200.611V220.659M421.145 200.611H441.193M421.145 220.659V240.708M421.145 220.659H441.193M421.145 240.708V260.756M421.145 240.708H441.193M421.145 260.756V280.805M421.145 260.756H441.193M421.145 280.805V300.854M421.145 280.805H441.193M421.145 300.854V320.902M421.145 300.854H441.193M421.145 320.902V340.951M421.145 320.902H441.193M421.145 340.951V360.999M421.145 340.951H441.193M421.145 360.999V381.048M421.145 360.999H441.193M421.145 381.048V401.096M421.145 381.048H441.193M421.145 401.096H441.193M441.193 0.125304V20.1739M441.193 0.125304H461.242M441.193 20.1739V40.2224M441.193 20.1739H461.242M441.193 40.2224V60.2709M441.193 40.2224H461.242M441.193 60.2709V80.3195M441.193 60.2709H461.242M441.193 80.3195V100.368M441.193 80.3195H461.242M441.193 100.368V120.417M441.193 100.368H461.242M441.193 120.417V140.465M441.193 120.417H461.242M441.193 140.465V160.514M441.193 140.465H461.242M441.193 160.514V180.562M441.193 160.514H461.242M441.193 180.562V200.611M441.193 180.562H461.242M441.193 200.611V220.659M441.193 200.611H461.242M441.193 220.659V240.708M441.193 220.659H461.242M441.193 240.708V260.756M441.193 240.708H461.242M441.193 260.756V280.805M441.193 260.756H461.242M441.193 280.805V300.854M441.193 280.805H461.242M441.193 300.854V320.902M441.193 300.854H461.242M441.193 320.902V340.951M441.193 320.902H461.242M441.193 340.951V360.999M441.193 340.951H461.242M441.193 360.999V381.048M441.193 360.999H461.242M441.193 381.048V401.096M441.193 381.048H461.242M441.193 401.096H461.242M461.242 0.125304V20.1739M461.242 0.125304H481.29M461.242 20.1739V40.2224M461.242 20.1739H481.29M461.242 40.2224V60.2709M461.242 40.2224H481.29M461.242 60.2709V80.3195M461.242 60.2709H481.29M461.242 80.3195V100.368M461.242 80.3195H481.29M461.242 100.368V120.417M461.242 100.368H481.29M461.242 120.417V140.465M461.242 120.417H481.29M461.242 140.465V160.514M461.242 140.465H481.29M461.242 160.514V180.562M461.242 160.514H481.29M461.242 180.562V200.611M461.242 180.562H481.29M461.242 200.611V220.659M461.242 200.611H481.29M461.242 220.659V240.708M461.242 220.659H481.29M461.242 240.708V260.756M461.242 240.708H481.29M461.242 260.756V280.805M461.242 260.756H481.29M461.242 280.805V300.854M461.242 280.805H481.29M461.242 300.854V320.902M461.242 300.854H481.29M461.242 320.902V340.951M461.242 320.902H481.29M461.242 340.951V360.999M461.242 340.951H481.29M461.242 360.999V381.048M461.242 360.999H481.29M461.242 381.048V401.096M461.242 381.048H481.29M461.242 401.096H481.29M481.29 0.125304V20.1739M481.29 0.125304H501.339M481.29 20.1739V40.2224M481.29 20.1739H501.339M481.29 40.2224V60.2709M481.29 40.2224H501.339M481.29 60.2709V80.3195M481.29 60.2709H501.339M481.29 80.3195V100.368M481.29 80.3195H501.339M481.29 100.368V120.417M481.29 100.368H501.339M481.29 120.417V140.465M481.29 120.417H501.339M481.29 140.465V160.514M481.29 140.465H501.339M481.29 160.514V180.562M481.29 160.514H501.339M481.29 180.562V200.611M481.29 180.562H501.339M481.29 200.611V220.659M481.29 200.611H501.339M481.29 220.659V240.708M481.29 220.659H501.339M481.29 240.708V260.756M481.29 240.708H501.339M481.29 260.756V280.805M481.29 260.756H501.339M481.29 280.805V300.854M481.29 280.805H501.339M481.29 300.854V320.902M481.29 300.854H501.339M481.29 320.902V340.951M481.29 320.902H501.339M481.29 340.951V360.999M481.29 340.951H501.339M481.29 360.999V381.048M481.29 360.999H501.339M481.29 381.048V401.096M481.29 381.048H501.339M481.29 401.096H501.339M501.339 0.125304V20.1739M501.339 0.125304H521.388M501.339 20.1739V40.2224M501.339 20.1739H521.388M501.339 40.2224V60.2709M501.339 40.2224H521.388M501.339 60.2709V80.3195M501.339 60.2709H521.388M501.339 80.3195V100.368M501.339 80.3195H521.388M501.339 100.368V120.417M501.339 100.368H521.388M501.339 120.417V140.465M501.339 120.417H521.388M501.339 140.465V160.514M501.339 140.465H521.388M501.339 160.514V180.562M501.339 160.514H521.388M501.339 180.562V200.611M501.339 180.562H521.388M501.339 200.611V220.659M501.339 200.611H521.388M501.339 220.659V240.708M501.339 220.659H521.388M501.339 240.708V260.756M501.339 240.708H521.388M501.339 260.756V280.805M501.339 260.756H521.388M501.339 280.805V300.854M501.339 280.805H521.388M501.339 300.854V320.902M501.339 300.854H521.388M501.339 320.902V340.951M501.339 320.902H521.388M501.339 340.951V360.999M501.339 340.951H521.388M501.339 360.999V381.048M501.339 360.999H521.388M501.339 381.048V401.096M501.339 381.048H521.388M501.339 401.096H521.388M521.388 0.125304V20.1739M521.388 0.125304H541.436M521.388 20.1739V40.2224M521.388 20.1739H541.436M521.388 40.2224V60.2709M521.388 40.2224H541.436M521.388 60.2709V80.3195M521.388 60.2709H541.436M521.388 80.3195V100.368M521.388 80.3195H541.436M521.388 100.368V120.417M521.388 100.368H541.436M521.388 120.417V140.465M521.388 120.417H541.436M521.388 140.465V160.514M521.388 140.465H541.436M521.388 160.514V180.562M521.388 160.514H541.436M521.388 180.562V200.611M521.388 180.562H541.436M521.388 200.611V220.659M521.388 200.611H541.436M521.388 220.659V240.708M521.388 220.659H541.436M521.388 240.708V260.756M521.388 240.708H541.436M521.388 260.756V280.805M521.388 260.756H541.436M521.388 280.805V300.854M521.388 280.805H541.436M521.388 300.854V320.902M521.388 300.854H541.436M521.388 320.902V340.951M521.388 320.902H541.436M521.388 340.951V360.999M521.388 340.951H541.436M521.388 360.999V381.048M521.388 360.999H541.436M521.388 381.048V401.096M521.388 381.048H541.436M521.388 401.096H541.436M541.436 0.125304V20.1739M541.436 0.125304H561.485M541.436 20.1739V40.2224M541.436 20.1739H561.485M541.436 40.2224V60.2709M541.436 40.2224H561.485M541.436 60.2709V80.3195M541.436 60.2709H561.485M541.436 80.3195V100.368M541.436 80.3195H561.485M541.436 100.368V120.417M541.436 100.368H561.485M541.436 120.417V140.465M541.436 120.417H561.485M541.436 140.465V160.514M541.436 140.465H561.485M541.436 160.514V180.562M541.436 160.514H561.485M541.436 180.562V200.611M541.436 180.562H561.485M541.436 200.611V220.659M541.436 200.611H561.485M541.436 220.659V240.708M541.436 220.659H561.485M541.436 240.708V260.756M541.436 240.708H561.485M541.436 260.756V280.805M541.436 260.756H561.485M541.436 280.805V300.854M541.436 280.805H561.485M541.436 300.854V320.902M541.436 300.854H561.485M541.436 320.902V340.951M541.436 320.902H561.485M541.436 340.951V360.999M541.436 340.951H561.485M541.436 360.999V381.048M541.436 360.999H561.485M541.436 381.048V401.096M541.436 381.048H561.485M541.436 401.096H561.485M561.485 0.125304V20.1739M561.485 0.125304H581.533M561.485 20.1739V40.2224M561.485 20.1739H581.533M561.485 40.2224V60.2709M561.485 40.2224H581.533M561.485 60.2709V80.3195M561.485 60.2709H581.533M561.485 80.3195V100.368M561.485 80.3195H581.533M561.485 100.368V120.417M561.485 100.368H581.533M561.485 120.417V140.465M561.485 120.417H581.533M561.485 140.465V160.514M561.485 140.465H581.533M561.485 160.514V180.562M561.485 160.514H581.533M561.485 180.562V200.611M561.485 180.562H581.533M561.485 200.611V220.659M561.485 200.611H581.533M561.485 220.659V240.708M561.485 220.659H581.533M561.485 240.708V260.756M561.485 240.708H581.533M561.485 260.756V280.805M561.485 260.756H581.533M561.485 280.805V300.854M561.485 280.805H581.533M561.485 300.854V320.902M561.485 300.854H581.533M561.485 320.902V340.951M561.485 320.902H581.533M561.485 340.951V360.999M561.485 340.951H581.533M561.485 360.999V381.048M561.485 360.999H581.533M561.485 381.048V401.096M561.485 381.048H581.533M561.485 401.096H581.533M581.533 0.125304V20.1739M581.533 0.125304H601.582M581.533 20.1739V40.2224M581.533 20.1739H601.582M581.533 40.2224V60.2709M581.533 40.2224H601.582M581.533 60.2709V80.3195M581.533 60.2709H601.582M581.533 80.3195V100.368M581.533 80.3195H601.582M581.533 100.368V120.417M581.533 100.368H601.582M581.533 120.417V140.465M581.533 120.417H601.582M581.533 140.465V160.514M581.533 140.465H601.582M581.533 160.514V180.562M581.533 160.514H601.582M581.533 180.562V200.611M581.533 180.562H601.582M581.533 200.611V220.659M581.533 200.611H601.582M581.533 220.659V240.708M581.533 220.659H601.582M581.533 240.708V260.756M581.533 240.708H601.582M581.533 260.756V280.805M581.533 260.756H601.582M581.533 280.805V300.854M581.533 280.805H601.582M581.533 300.854V320.902M581.533 300.854H601.582M581.533 320.902V340.951M581.533 320.902H601.582M581.533 340.951V360.999M581.533 340.951H601.582M581.533 360.999V381.048M581.533 360.999H601.582M581.533 381.048V401.096M581.533 381.048H601.582M581.533 401.096H601.582M601.582 0.125304V20.1739M601.582 0.125304H621.63M601.582 20.1739V40.2224M601.582 20.1739H621.63M601.582 40.2224V60.2709M601.582 40.2224H621.63M601.582 60.2709V80.3195M601.582 60.2709H621.63M601.582 80.3195V100.368M601.582 80.3195H621.63M601.582 100.368V120.417M601.582 100.368H621.63M601.582 120.417V140.465M601.582 120.417H621.63M601.582 140.465V160.514M601.582 140.465H621.63M601.582 160.514V180.562M601.582 160.514H621.63M601.582 180.562V200.611M601.582 180.562H621.63M601.582 200.611V220.659M601.582 200.611H621.63M601.582 220.659V240.708M601.582 220.659H621.63M601.582 240.708V260.756M601.582 240.708H621.63M601.582 260.756V280.805M601.582 260.756H621.63M601.582 280.805V300.854M601.582 280.805H621.63M601.582 300.854V320.902M601.582 300.854H621.63M601.582 320.902V340.951M601.582 320.902H621.63M601.582 340.951V360.999M601.582 340.951H621.63M601.582 360.999V381.048M601.582 360.999H621.63M601.582 381.048V401.096M601.582 381.048H621.63M601.582 401.096H621.63M621.63 0.125304V20.1739M621.63 0.125304H641.679M621.63 20.1739V40.2224M621.63 20.1739H641.679M621.63 40.2224V60.2709M621.63 40.2224H641.679M621.63 60.2709V80.3195M621.63 60.2709H641.679M621.63 80.3195V100.368M621.63 80.3195H641.679M621.63 100.368V120.417M621.63 100.368H641.679M621.63 120.417V140.465M621.63 120.417H641.679M621.63 140.465V160.514M621.63 140.465H641.679M621.63 160.514V180.562M621.63 160.514H641.679M621.63 180.562V200.611M621.63 180.562H641.679M621.63 200.611V220.659M621.63 200.611H641.679M621.63 220.659V240.708M621.63 220.659H641.679M621.63 240.708V260.756M621.63 240.708H641.679M621.63 260.756V280.805M621.63 260.756H641.679M621.63 280.805V300.854M621.63 280.805H641.679M621.63 300.854V320.902M621.63 300.854H641.679M621.63 320.902V340.951M621.63 320.902H641.679M621.63 340.951V360.999M621.63 340.951H641.679M621.63 360.999V381.048M621.63 360.999H641.679M621.63 381.048V401.096M621.63 381.048H641.679M621.63 401.096H641.679M641.679 0.125304V20.1739M641.679 0.125304H661.727M641.679 20.1739V40.2224M641.679 20.1739H661.727M641.679 40.2224V60.2709M641.679 40.2224H661.727M641.679 60.2709V80.3195M641.679 60.2709H661.727M641.679 80.3195V100.368M641.679 80.3195H661.727M641.679 100.368V120.417M641.679 100.368H661.727M641.679 120.417V140.465M641.679 120.417H661.727M641.679 140.465V160.514M641.679 140.465H661.727M641.679 160.514V180.562M641.679 160.514H661.727M641.679 180.562V200.611M641.679 180.562H661.727M641.679 200.611V220.659M641.679 200.611H661.727M641.679 220.659V240.708M641.679 220.659H661.727M641.679 240.708V260.756M641.679 240.708H661.727M641.679 260.756V280.805M641.679 260.756H661.727M641.679 280.805V300.854M641.679 280.805H661.727M641.679 300.854V320.902M641.679 300.854H661.727M641.679 320.902V340.951M641.679 320.902H661.727M641.679 340.951V360.999M641.679 340.951H661.727M641.679 360.999V381.048M641.679 360.999H661.727M641.679 381.048V401.096M641.679 381.048H661.727M641.679 401.096H661.727M661.727 0.125304V20.1739M661.727 0.125304H681.776M661.727 20.1739V40.2224M661.727 20.1739H681.776M661.727 40.2224V60.2709M661.727 40.2224H681.776M661.727 60.2709V80.3195M661.727 60.2709H681.776M661.727 80.3195V100.368M661.727 80.3195H681.776M661.727 100.368V120.417M661.727 100.368H681.776M661.727 120.417V140.465M661.727 120.417H681.776M661.727 140.465V160.514M661.727 140.465H681.776M661.727 160.514V180.562M661.727 160.514H681.776M661.727 180.562V200.611M661.727 180.562H681.776M661.727 200.611V220.659M661.727 200.611H681.776M661.727 220.659V240.708M661.727 220.659H681.776M661.727 240.708V260.756M661.727 240.708H681.776M661.727 260.756V280.805M661.727 260.756H681.776M661.727 280.805V300.854M661.727 280.805H681.776M661.727 300.854V320.902M661.727 300.854H681.776M661.727 320.902V340.951M661.727 320.902H681.776M661.727 340.951V360.999M661.727 340.951H681.776M661.727 360.999V381.048M661.727 360.999H681.776M661.727 381.048V401.096M661.727 381.048H681.776M661.727 401.096H681.776M681.776 0.125304V20.1739M681.776 0.125304H701.824M681.776 20.1739V40.2224M681.776 20.1739H701.824M681.776 40.2224V60.2709M681.776 40.2224H701.824M681.776 60.2709V80.3195M681.776 60.2709H701.824M681.776 80.3195V100.368M681.776 80.3195H701.824M681.776 100.368V120.417M681.776 100.368H701.824M681.776 120.417V140.465M681.776 120.417H701.824M681.776 140.465V160.514M681.776 140.465H701.824M681.776 160.514V180.562M681.776 160.514H701.824M681.776 180.562V200.611M681.776 180.562H701.824M681.776 200.611V220.659M681.776 200.611H701.824M681.776 220.659V240.708M681.776 220.659H701.824M681.776 240.708V260.756M681.776 240.708H701.824M681.776 260.756V280.805M681.776 260.756H701.824M681.776 280.805V300.854M681.776 280.805H701.824M681.776 300.854V320.902M681.776 300.854H701.824M681.776 320.902V340.951M681.776 320.902H701.824M681.776 340.951V360.999M681.776 340.951H701.824M681.776 360.999V381.048M681.776 360.999H701.824M681.776 381.048V401.096M681.776 381.048H701.824M681.776 401.096H701.824M701.824 0.125304V20.1739M701.824 0.125304H721.873M701.824 20.1739V40.2224M701.824 20.1739H721.873M701.824 40.2224V60.2709M701.824 40.2224H721.873M701.824 60.2709V80.3195M701.824 60.2709H721.873M701.824 80.3195V100.368M701.824 80.3195H721.873M701.824 100.368V120.417M701.824 100.368H721.873M701.824 120.417V140.465M701.824 120.417H721.873M701.824 140.465V160.514M701.824 140.465H721.873M701.824 160.514V180.562M701.824 160.514H721.873M701.824 180.562V200.611M701.824 180.562H721.873M701.824 200.611V220.659M701.824 200.611H721.873M701.824 220.659V240.708M701.824 220.659H721.873M701.824 240.708V260.756M701.824 240.708H721.873M701.824 260.756V280.805M701.824 260.756H721.873M701.824 280.805V300.854M701.824 280.805H721.873M701.824 300.854V320.902M701.824 300.854H721.873M701.824 320.902V340.951M701.824 320.902H721.873M701.824 340.951V360.999M701.824 340.951H721.873M701.824 360.999V381.048M701.824 360.999H721.873M701.824 381.048V401.096M701.824 381.048H721.873M701.824 401.096H721.873M721.873 0.125304V20.1739M721.873 0.125304H741.922M721.873 20.1739V40.2224M721.873 20.1739H741.922M721.873 40.2224V60.2709M721.873 40.2224H741.922M721.873 60.2709V80.3195M721.873 60.2709H741.922M721.873 80.3195V100.368M721.873 80.3195H741.922M721.873 100.368V120.417M721.873 100.368H741.922M721.873 120.417V140.465M721.873 120.417H741.922M721.873 140.465V160.514M721.873 140.465H741.922M721.873 160.514V180.562M721.873 160.514H741.922M721.873 180.562V200.611M721.873 180.562H741.922M721.873 200.611V220.659M721.873 200.611H741.922M721.873 220.659V240.708M721.873 220.659H741.922M721.873 240.708V260.756M721.873 240.708H741.922M721.873 260.756V280.805M721.873 260.756H741.922M721.873 280.805V300.854M721.873 280.805H741.922M721.873 300.854V320.902M721.873 300.854H741.922M721.873 320.902V340.951M721.873 320.902H741.922M721.873 340.951V360.999M721.873 340.951H741.922M721.873 360.999V381.048M721.873 360.999H741.922M721.873 381.048V401.096M721.873 381.048H741.922M721.873 401.096H741.922M741.922 0.125304V20.1739M741.922 0.125304H761.97M741.922 20.1739V40.2224M741.922 20.1739H761.97M741.922 40.2224V60.2709M741.922 40.2224H761.97M741.922 60.2709V80.3195M741.922 60.2709H761.97M741.922 80.3195V100.368M741.922 80.3195H761.97M741.922 100.368V120.417M741.922 100.368H761.97M741.922 120.417V140.465M741.922 120.417H761.97M741.922 140.465V160.514M741.922 140.465H761.97M741.922 160.514V180.562M741.922 160.514H761.97M741.922 180.562V200.611M741.922 180.562H761.97M741.922 200.611V220.659M741.922 200.611H761.97M741.922 220.659V240.708M741.922 220.659H761.97M741.922 240.708V260.756M741.922 240.708H761.97M741.922 260.756V280.805M741.922 260.756H761.97M741.922 280.805V300.854M741.922 280.805H761.97M741.922 300.854V320.902M741.922 300.854H761.97M741.922 320.902V340.951M741.922 320.902H761.97M741.922 340.951V360.999M741.922 340.951H761.97M741.922 360.999V381.048M741.922 360.999H761.97M741.922 381.048V401.096M741.922 381.048H761.97M741.922 401.096H761.97M761.97 0.125304V20.1739M761.97 0.125304H782.019M761.97 20.1739V40.2224M761.97 20.1739H782.019M761.97 40.2224V60.2709M761.97 40.2224H782.019M761.97 60.2709V80.3195M761.97 60.2709H782.019M761.97 80.3195V100.368M761.97 80.3195H782.019M761.97 100.368V120.417M761.97 100.368H782.019M761.97 120.417V140.465M761.97 120.417H782.019M761.97 140.465V160.514M761.97 140.465H782.019M761.97 160.514V180.562M761.97 160.514H782.019M761.97 180.562V200.611M761.97 180.562H782.019M761.97 200.611V220.659M761.97 200.611H782.019M761.97 220.659V240.708M761.97 220.659H782.019M761.97 240.708V260.756M761.97 240.708H782.019M761.97 260.756V280.805M761.97 260.756H782.019M761.97 280.805V300.854M761.97 280.805H782.019M761.97 300.854V320.902M761.97 300.854H782.019M761.97 320.902V340.951M761.97 320.902H782.019M761.97 340.951V360.999M761.97 340.951H782.019M761.97 360.999V381.048M761.97 360.999H782.019M761.97 381.048V401.096M761.97 381.048H782.019M761.97 401.096H782.019M782.019 0.125304V20.1739M782.019 0.125304H802.067M782.019 20.1739V40.2224M782.019 20.1739H802.067M782.019 40.2224V60.2709M782.019 40.2224H802.067M782.019 60.2709V80.3195M782.019 60.2709H802.067M782.019 80.3195V100.368M782.019 80.3195H802.067M782.019 100.368V120.417M782.019 100.368H802.067M782.019 120.417V140.465M782.019 120.417H802.067M782.019 140.465V160.514M782.019 140.465H802.067M782.019 160.514V180.562M782.019 160.514H802.067M782.019 180.562V200.611M782.019 180.562H802.067M782.019 200.611V220.659M782.019 200.611H802.067M782.019 220.659V240.708M782.019 220.659H802.067M782.019 240.708V260.756M782.019 240.708H802.067M782.019 260.756V280.805M782.019 260.756H802.067M782.019 280.805V300.854M782.019 280.805H802.067M782.019 300.854V320.902M782.019 300.854H802.067M782.019 320.902V340.951M782.019 320.902H802.067M782.019 340.951V360.999M782.019 340.951H802.067M782.019 360.999V381.048M782.019 360.999H802.067M782.019 381.048V401.096M782.019 381.048H802.067M782.019 401.096H802.067M802.067 0.125304V20.1739M802.067 0.125304H822.116M802.067 20.1739V40.2224M802.067 20.1739H822.116M802.067 40.2224V60.2709M802.067 40.2224H822.116M802.067 60.2709V80.3195M802.067 60.2709H822.116M802.067 80.3195V100.368M802.067 80.3195H822.116M802.067 100.368V120.417M802.067 100.368H822.116M802.067 120.417V140.465M802.067 120.417H822.116M802.067 140.465V160.514M802.067 140.465H822.116M802.067 160.514V180.562M802.067 160.514H822.116M802.067 180.562V200.611M802.067 180.562H822.116M802.067 200.611V220.659M802.067 200.611H822.116M802.067 220.659V240.708M802.067 220.659H822.116M802.067 240.708V260.756M802.067 240.708H822.116M802.067 260.756V280.805M802.067 260.756H822.116M802.067 280.805V300.854M802.067 280.805H822.116M802.067 300.854V320.902M802.067 300.854H822.116M802.067 320.902V340.951M802.067 320.902H822.116M802.067 340.951V360.999M802.067 340.951H822.116M802.067 360.999V381.048M802.067 360.999H822.116M802.067 381.048V401.096M802.067 381.048H822.116M802.067 401.096H822.116M822.116 0.125304V20.1739M822.116 0.125304H842.164M822.116 20.1739V40.2224M822.116 20.1739H842.164M822.116 40.2224V60.2709M822.116 40.2224H842.164M822.116 60.2709V80.3195M822.116 60.2709H842.164M822.116 80.3195V100.368M822.116 80.3195H842.164M822.116 100.368V120.417M822.116 100.368H842.164M822.116 120.417V140.465M822.116 120.417H842.164M822.116 140.465V160.514M822.116 140.465H842.164M822.116 160.514V180.562M822.116 160.514H842.164M822.116 180.562V200.611M822.116 180.562H842.164M822.116 200.611V220.659M822.116 200.611H842.164M822.116 220.659V240.708M822.116 220.659H842.164M822.116 240.708V260.756M822.116 240.708H842.164M822.116 260.756V280.805M822.116 260.756H842.164M822.116 280.805V300.854M822.116 280.805H842.164M822.116 300.854V320.902M822.116 300.854H842.164M822.116 320.902V340.951M822.116 320.902H842.164M822.116 340.951V360.999M822.116 340.951H842.164M822.116 360.999V381.048M822.116 360.999H842.164M822.116 381.048V401.096M822.116 381.048H842.164M822.116 401.096H842.164M842.164 0.125304V20.1739M842.164 0.125304H862.213M842.164 20.1739V40.2224M842.164 20.1739H862.213M842.164 40.2224V60.2709M842.164 40.2224H862.213M842.164 60.2709V80.3195M842.164 60.2709H862.213M842.164 80.3195V100.368M842.164 80.3195H862.213M842.164 100.368V120.417M842.164 100.368H862.213M842.164 120.417V140.465M842.164 120.417H862.213M842.164 140.465V160.514M842.164 140.465H862.213M842.164 160.514V180.562M842.164 160.514H862.213M842.164 180.562V200.611M842.164 180.562H862.213M842.164 200.611V220.659M842.164 200.611H862.213M842.164 220.659V240.708M842.164 220.659H862.213M842.164 240.708V260.756M842.164 240.708H862.213M842.164 260.756V280.805M842.164 260.756H862.213M842.164 280.805V300.854M842.164 280.805H862.213M842.164 300.854V320.902M842.164 300.854H862.213M842.164 320.902V340.951M842.164 320.902H862.213M842.164 340.951V360.999M842.164 340.951H862.213M842.164 360.999V381.048M842.164 360.999H862.213M842.164 381.048V401.096M842.164 381.048H862.213M842.164 401.096H862.213M862.213 0.125304V20.1739M862.213 0.125304H882.261V20.1739M862.213 20.1739V40.2224M862.213 20.1739H882.261M862.213 40.2224V60.2709M862.213 40.2224H882.261M862.213 60.2709V80.3195M862.213 60.2709H882.261M862.213 80.3195V100.368M862.213 80.3195H882.261M862.213 100.368V120.417M862.213 100.368H882.261M862.213 120.417V140.465M862.213 120.417H882.261M862.213 140.465V160.514M862.213 140.465H882.261M862.213 160.514V180.562M862.213 160.514H882.261M862.213 180.562V200.611M862.213 180.562H882.261M862.213 200.611V220.659M862.213 200.611H882.261M862.213 220.659V240.708M862.213 220.659H882.261M862.213 240.708V260.756M862.213 240.708H882.261M862.213 260.756V280.805M862.213 260.756H882.261M862.213 280.805V300.854M862.213 280.805H882.261M862.213 300.854V320.902M862.213 300.854H882.261M862.213 320.902V340.951M862.213 320.902H882.261M862.213 340.951V360.999M862.213 340.951H882.261M862.213 360.999V381.048M862.213 360.999H882.261M862.213 381.048V401.096M862.213 381.048H882.261M862.213 401.096H882.261V381.048M882.261 20.1739V40.2224M882.261 40.2224V60.2709M882.261 60.2709V80.3195M882.261 80.3195V100.368M882.261 100.368V120.417M882.261 120.417V140.465M882.261 140.465V160.514M882.261 160.514V180.562M882.261 180.562V200.611M882.261 200.611V220.659M882.261 220.659V240.708M882.261 240.708V260.756M882.261 260.756V280.805M882.261 280.805V300.854M882.261 300.854V320.902M882.261 320.902V340.951M882.261 340.951V360.999M882.261 360.999V381.048" stroke="url(#paint0_radial_30597_1529)" stroke-opacity="0.6" stroke-width="0.250607"/>
</g>
<defs>
<radialGradient id="paint0_radial_30597_1529" cx="0" cy="0" r="1" gradientUnits="userSpaceOnUse" gradientTransform="translate(441.193 200.611) rotate(90) scale(200.485 441.068)">
<stop stop-color="white"/>
<stop offset="1" stop-color="white" stop-opacity="0"/>
</radialGradient>
</defs>
</svg>
