<svg preserveAspectRatio="none" width="100%" height="100%" overflow="visible" style="display: block;" viewBox="0 0 1074.67 488.655" fill="none" xmlns="http://www.w3.org/2000/svg">
<g id="Vector" opacity="0.7" style="mix-blend-mode:soft-light">
<path d="M24.5701 0.152609H0.152609V24.5701M24.5701 0.152609V24.5701M24.5701 0.152609H48.9876M24.5701 24.5701H0.152609M24.5701 24.5701V48.9876M24.5701 24.5701H48.9876M0.152609 24.5701V48.9876M24.5701 48.9876H0.152609M24.5701 48.9876V73.405M24.5701 48.9876H48.9876M0.152609 48.9876V73.405M24.5701 73.405H0.152609M24.5701 73.405V97.8225M24.5701 73.405H48.9876M0.152609 73.405V97.8225M24.5701 97.8225H0.152609M24.5701 97.8225V122.24M24.5701 97.8225H48.9876M0.152609 97.8225V122.24M24.5701 122.24H0.152609M24.5701 122.24V146.657M24.5701 122.24H48.9876M0.152609 122.24V146.657M24.5701 146.657H0.152609M24.5701 146.657V171.075M24.5701 146.657H48.9876M0.152609 146.657V171.075M24.5701 171.075H0.152609M24.5701 171.075V195.492M24.5701 171.075H48.9876M0.152609 171.075V195.492M24.5701 195.492H0.152609M24.5701 195.492V219.91M24.5701 195.492H48.9876M0.152609 195.492V219.91M24.5701 219.91H0.152609M24.5701 219.91V244.327M24.5701 219.91H48.9876M0.152609 219.91V244.327M24.5701 244.327H0.152609M24.5701 244.327V268.745M24.5701 244.327H48.9876M0.152609 244.327V268.745M24.5701 268.745H0.152609M24.5701 268.745V293.162M24.5701 268.745H48.9876M0.152609 268.745V293.162M24.5701 293.162H0.152609M24.5701 293.162V317.58M24.5701 293.162H48.9876M0.152609 293.162V317.58M24.5701 317.58H0.152609M24.5701 317.58V341.997M24.5701 317.58H48.9876M0.152609 317.58V341.997M24.5701 341.997H0.152609M24.5701 341.997V366.415M24.5701 341.997H48.9876M0.152609 341.997V366.415M24.5701 366.415H0.152609M24.5701 366.415V390.832M24.5701 366.415H48.9876M0.152609 366.415V390.832M24.5701 390.832H0.152609M24.5701 390.832V415.25M24.5701 390.832H48.9876M0.152609 390.832V415.25M24.5701 415.25H0.152609M24.5701 415.25V439.667M24.5701 415.25H48.9876M0.152609 415.25V439.667M24.5701 439.667H0.152609M24.5701 439.667V464.085M24.5701 439.667H48.9876M0.152609 439.667V464.085M24.5701 464.085H0.152609M24.5701 464.085V488.502M24.5701 464.085H48.9876M0.152609 464.085V488.502H24.5701M24.5701 488.502H48.9876M48.9876 0.152609V24.5701M48.9876 0.152609H73.405M48.9876 24.5701V48.9876M48.9876 24.5701H73.405M48.9876 48.9876V73.405M48.9876 48.9876H73.405M48.9876 73.405V97.8225M48.9876 73.405H73.405M48.9876 97.8225V122.24M48.9876 97.8225H73.405M48.9876 122.24V146.657M48.9876 122.24H73.405M48.9876 146.657V171.075M48.9876 146.657H73.405M48.9876 171.075V195.492M48.9876 171.075H73.405M48.9876 195.492V219.91M48.9876 195.492H73.405M48.9876 219.91V244.327M48.9876 219.91H73.405M48.9876 244.327V268.745M48.9876 244.327H73.405M48.9876 268.745V293.162M48.9876 268.745H73.405M48.9876 293.162V317.58M48.9876 293.162H73.405M48.9876 317.58V341.997M48.9876 317.58H73.405M48.9876 341.997V366.415M48.9876 341.997H73.405M48.9876 366.415V390.832M48.9876 366.415H73.405M48.9876 390.832V415.25M48.9876 390.832H73.405M48.9876 415.25V439.667M48.9876 415.25H73.405M48.9876 439.667V464.085M48.9876 439.667H73.405M48.9876 464.085V488.502M48.9876 464.085H73.405M48.9876 488.502H73.405M73.405 0.152609V24.5701M73.405 0.152609H97.8225M73.405 24.5701V48.9876M73.405 24.5701H97.8225M73.405 48.9876V73.405M73.405 48.9876H97.8225M73.405 73.405V97.8225M73.405 73.405H97.8225M73.405 97.8225V122.24M73.405 97.8225H97.8225M73.405 122.24V146.657M73.405 122.24H97.8225M73.405 146.657V171.075M73.405 146.657H97.8225M73.405 171.075V195.492M73.405 171.075H97.8225M73.405 195.492V219.91M73.405 195.492H97.8225M73.405 219.91V244.327M73.405 219.91H97.8225M73.405 244.327V268.745M73.405 244.327H97.8225M73.405 268.745V293.162M73.405 268.745H97.8225M73.405 293.162V317.58M73.405 293.162H97.8225M73.405 317.58V341.997M73.405 317.58H97.8225M73.405 341.997V366.415M73.405 341.997H97.8225M73.405 366.415V390.832M73.405 366.415H97.8225M73.405 390.832V415.25M73.405 390.832H97.8225M73.405 415.25V439.667M73.405 415.25H97.8225M73.405 439.667V464.085M73.405 439.667H97.8225M73.405 464.085V488.502M73.405 464.085H97.8225M73.405 488.502H97.8225M97.8225 0.152609V24.5701M97.8225 0.152609H122.24M97.8225 24.5701V48.9876M97.8225 24.5701H122.24M97.8225 48.9876V73.405M97.8225 48.9876H122.24M97.8225 73.405V97.8225M97.8225 73.405H122.24M97.8225 97.8225V122.24M97.8225 97.8225H122.24M97.8225 122.24V146.657M97.8225 122.24H122.24M97.8225 146.657V171.075M97.8225 146.657H122.24M97.8225 171.075V195.492M97.8225 171.075H122.24M97.8225 195.492V219.91M97.8225 195.492H122.24M97.8225 219.91V244.327M97.8225 219.91H122.24M97.8225 244.327V268.745M97.8225 244.327H122.24M97.8225 268.745V293.162M97.8225 268.745H122.24M97.8225 293.162V317.58M97.8225 293.162H122.24M97.8225 317.58V341.997M97.8225 317.58H122.24M97.8225 341.997V366.415M97.8225 341.997H122.24M97.8225 366.415V390.832M97.8225 366.415H122.24M97.8225 390.832V415.25M97.8225 390.832H122.24M97.8225 415.25V439.667M97.8225 415.25H122.24M97.8225 439.667V464.085M97.8225 439.667H122.24M97.8225 464.085V488.502M97.8225 464.085H122.24M97.8225 488.502H122.24M122.24 0.152609V24.5701M122.24 0.152609H146.657M122.24 24.5701V48.9876M122.24 24.5701H146.657M122.24 48.9876V73.405M122.24 48.9876H146.657M122.24 73.405V97.8225M122.24 73.405H146.657M122.24 97.8225V122.24M122.24 97.8225H146.657M122.24 122.24V146.657M122.24 122.24H146.657M122.24 146.657V171.075M122.24 146.657H146.657M122.24 171.075V195.492M122.24 171.075H146.657M122.24 195.492V219.91M122.24 195.492H146.657M122.24 219.91V244.327M122.24 219.91H146.657M122.24 244.327V268.745M122.24 244.327H146.657M122.24 268.745V293.162M122.24 268.745H146.657M122.24 293.162V317.58M122.24 293.162H146.657M122.24 317.58V341.997M122.24 317.58H146.657M122.24 341.997V366.415M122.24 341.997H146.657M122.24 366.415V390.832M122.24 366.415H146.657M122.24 390.832V415.25M122.24 390.832H146.657M122.24 415.25V439.667M122.24 415.25H146.657M122.24 439.667V464.085M122.24 439.667H146.657M122.24 464.085V488.502M122.24 464.085H146.657M122.24 488.502H146.657M146.657 0.152609V24.5701M146.657 0.152609H171.075M146.657 24.5701V48.9876M146.657 24.5701H171.075M146.657 48.9876V73.405M146.657 48.9876H171.075M146.657 73.405V97.8225M146.657 73.405H171.075M146.657 97.8225V122.24M146.657 97.8225H171.075M146.657 122.24V146.657M146.657 122.24H171.075M146.657 146.657V171.075M146.657 146.657H171.075M146.657 171.075V195.492M146.657 171.075H171.075M146.657 195.492V219.91M146.657 195.492H171.075M146.657 219.91V244.327M146.657 219.91H171.075M146.657 244.327V268.745M146.657 244.327H171.075M146.657 268.745V293.162M146.657 268.745H171.075M146.657 293.162V317.58M146.657 293.162H171.075M146.657 317.58V341.997M146.657 317.58H171.075M146.657 341.997V366.415M146.657 341.997H171.075M146.657 366.415V390.832M146.657 366.415H171.075M146.657 390.832V415.25M146.657 390.832H171.075M146.657 415.25V439.667M146.657 415.25H171.075M146.657 439.667V464.085M146.657 439.667H171.075M146.657 464.085V488.502M146.657 464.085H171.075M146.657 488.502H171.075M171.075 0.152609V24.5701M171.075 0.152609H195.492M171.075 24.5701V48.9876M171.075 24.5701H195.492M171.075 48.9876V73.405M171.075 48.9876H195.492M171.075 73.405V97.8225M171.075 73.405H195.492M171.075 97.8225V122.24M171.075 97.8225H195.492M171.075 122.24V146.657M171.075 122.24H195.492M171.075 146.657V171.075M171.075 146.657H195.492M171.075 171.075V195.492M171.075 171.075H195.492M171.075 195.492V219.91M171.075 195.492H195.492M171.075 219.91V244.327M171.075 219.91H195.492M171.075 244.327V268.745M171.075 244.327H195.492M171.075 268.745V293.162M171.075 268.745H195.492M171.075 293.162V317.58M171.075 293.162H195.492M171.075 317.58V341.997M171.075 317.58H195.492M171.075 341.997V366.415M171.075 341.997H195.492M171.075 366.415V390.832M171.075 366.415H195.492M171.075 390.832V415.25M171.075 390.832H195.492M171.075 415.25V439.667M171.075 415.25H195.492M171.075 439.667V464.085M171.075 439.667H195.492M171.075 464.085V488.502M171.075 464.085H195.492M171.075 488.502H195.492M195.492 0.152609V24.5701M195.492 0.152609H219.91M195.492 24.5701V48.9876M195.492 24.5701H219.91M195.492 48.9876V73.405M195.492 48.9876H219.91M195.492 73.405V97.8225M195.492 73.405H219.91M195.492 97.8225V122.24M195.492 97.8225H219.91M195.492 122.24V146.657M195.492 122.24H219.91M195.492 146.657V171.075M195.492 146.657H219.91M195.492 171.075V195.492M195.492 171.075H219.91M195.492 195.492V219.91M195.492 195.492H219.91M195.492 219.91V244.327M195.492 219.91H219.91M195.492 244.327V268.745M195.492 244.327H219.91M195.492 268.745V293.162M195.492 268.745H219.91M195.492 293.162V317.58M195.492 293.162H219.91M195.492 317.58V341.997M195.492 317.58H219.91M195.492 341.997V366.415M195.492 341.997H219.91M195.492 366.415V390.832M195.492 366.415H219.91M195.492 390.832V415.25M195.492 390.832H219.91M195.492 415.25V439.667M195.492 415.25H219.91M195.492 439.667V464.085M195.492 439.667H219.91M195.492 464.085V488.502M195.492 464.085H219.91M195.492 488.502H219.91M219.91 0.152609V24.5701M219.91 0.152609H244.327M219.91 24.5701V48.9876M219.91 24.5701H244.327M219.91 48.9876V73.405M219.91 48.9876H244.327M219.91 73.405V97.8225M219.91 73.405H244.327M219.91 97.8225V122.24M219.91 97.8225H244.327M219.91 122.24V146.657M219.91 122.24H244.327M219.91 146.657V171.075M219.91 146.657H244.327M219.91 171.075V195.492M219.91 171.075H244.327M219.91 195.492V219.91M219.91 195.492H244.327M219.91 219.91V244.327M219.91 219.91H244.327M219.91 244.327V268.745M219.91 244.327H244.327M219.91 268.745V293.162M219.91 268.745H244.327M219.91 293.162V317.58M219.91 293.162H244.327M219.91 317.58V341.997M219.91 317.58H244.327M219.91 341.997V366.415M219.91 341.997H244.327M219.91 366.415V390.832M219.91 366.415H244.327M219.91 390.832V415.25M219.91 390.832H244.327M219.91 415.25V439.667M219.91 415.25H244.327M219.91 439.667V464.085M219.91 439.667H244.327M219.91 464.085V488.502M219.91 464.085H244.327M219.91 488.502H244.327M244.327 0.152609V24.5701M244.327 0.152609H268.745M244.327 24.5701V48.9876M244.327 24.5701H268.745M244.327 48.9876V73.405M244.327 48.9876H268.745M244.327 73.405V97.8225M244.327 73.405H268.745M244.327 97.8225V122.24M244.327 97.8225H268.745M244.327 122.24V146.657M244.327 122.24H268.745M244.327 146.657V171.075M244.327 146.657H268.745M244.327 171.075V195.492M244.327 171.075H268.745M244.327 195.492V219.91M244.327 195.492H268.745M244.327 219.91V244.327M244.327 219.91H268.745M244.327 244.327V268.745M244.327 244.327H268.745M244.327 268.745V293.162M244.327 268.745H268.745M244.327 293.162V317.58M244.327 293.162H268.745M244.327 317.58V341.997M244.327 317.58H268.745M244.327 341.997V366.415M244.327 341.997H268.745M244.327 366.415V390.832M244.327 366.415H268.745M244.327 390.832V415.25M244.327 390.832H268.745M244.327 415.25V439.667M244.327 415.25H268.745M244.327 439.667V464.085M244.327 439.667H268.745M244.327 464.085V488.502M244.327 464.085H268.745M244.327 488.502H268.745M268.745 0.152609V24.5701M268.745 0.152609H293.162M268.745 24.5701V48.9876M268.745 24.5701H293.162M268.745 48.9876V73.405M268.745 48.9876H293.162M268.745 73.405V97.8225M268.745 73.405H293.162M268.745 97.8225V122.24M268.745 97.8225H293.162M268.745 122.24V146.657M268.745 122.24H293.162M268.745 146.657V171.075M268.745 146.657H293.162M268.745 171.075V195.492M268.745 171.075H293.162M268.745 195.492V219.91M268.745 195.492H293.162M268.745 219.91V244.327M268.745 219.91H293.162M268.745 244.327V268.745M268.745 244.327H293.162M268.745 268.745V293.162M268.745 268.745H293.162M268.745 293.162V317.58M268.745 293.162H293.162M268.745 317.58V341.997M268.745 317.58H293.162M268.745 341.997V366.415M268.745 341.997H293.162M268.745 366.415V390.832M268.745 366.415H293.162M268.745 390.832V415.25M268.745 390.832H293.162M268.745 415.25V439.667M268.745 415.25H293.162M268.745 439.667V464.085M268.745 439.667H293.162M268.745 464.085V488.502M268.745 464.085H293.162M268.745 488.502H293.162M293.162 0.152609V24.5701M293.162 0.152609H317.58M293.162 24.5701V48.9876M293.162 24.5701H317.58M293.162 48.9876V73.405M293.162 48.9876H317.58M293.162 73.405V97.8225M293.162 73.405H317.58M293.162 97.8225V122.24M293.162 97.8225H317.58M293.162 122.24V146.657M293.162 122.24H317.58M293.162 146.657V171.075M293.162 146.657H317.58M293.162 171.075V195.492M293.162 171.075H317.58M293.162 195.492V219.91M293.162 195.492H317.58M293.162 219.91V244.327M293.162 219.91H317.58M293.162 244.327V268.745M293.162 244.327H317.58M293.162 268.745V293.162M293.162 268.745H317.58M293.162 293.162V317.58M293.162 293.162H317.58M293.162 317.58V341.997M293.162 317.58H317.58M293.162 341.997V366.415M293.162 341.997H317.58M293.162 366.415V390.832M293.162 366.415H317.58M293.162 390.832V415.25M293.162 390.832H317.58M293.162 415.25V439.667M293.162 415.25H317.58M293.162 439.667V464.085M293.162 439.667H317.58M293.162 464.085V488.502M293.162 464.085H317.58M293.162 488.502H317.58M317.58 0.152609V24.5701M317.58 0.152609H341.997M317.58 24.5701V48.9876M317.58 24.5701H341.997M317.58 48.9876V73.405M317.58 48.9876H341.997M317.58 73.405V97.8225M317.58 73.405H341.997M317.58 97.8225V122.24M317.58 97.8225H341.997M317.58 122.24V146.657M317.58 122.24H341.997M317.58 146.657V171.075M317.58 146.657H341.997M317.58 171.075V195.492M317.58 171.075H341.997M317.58 195.492V219.91M317.58 195.492H341.997M317.58 219.91V244.327M317.58 219.91H341.997M317.58 244.327V268.745M317.58 244.327H341.997M317.58 268.745V293.162M317.58 268.745H341.997M317.58 293.162V317.58M317.58 293.162H341.997M317.58 317.58V341.997M317.58 317.58H341.997M317.58 341.997V366.415M317.58 341.997H341.997M317.58 366.415V390.832M317.58 366.415H341.997M317.58 390.832V415.25M317.58 390.832H341.997M317.58 415.25V439.667M317.58 415.25H341.997M317.58 439.667V464.085M317.58 439.667H341.997M317.58 464.085V488.502M317.58 464.085H341.997M317.58 488.502H341.997M341.997 0.152609V24.5701M341.997 0.152609H366.415M341.997 24.5701V48.9876M341.997 24.5701H366.415M341.997 48.9876V73.405M341.997 48.9876H366.415M341.997 73.405V97.8225M341.997 73.405H366.415M341.997 97.8225V122.24M341.997 97.8225H366.415M341.997 122.24V146.657M341.997 122.24H366.415M341.997 146.657V171.075M341.997 146.657H366.415M341.997 171.075V195.492M341.997 171.075H366.415M341.997 195.492V219.91M341.997 195.492H366.415M341.997 219.91V244.327M341.997 219.91H366.415M341.997 244.327V268.745M341.997 244.327H366.415M341.997 268.745V293.162M341.997 268.745H366.415M341.997 293.162V317.58M341.997 293.162H366.415M341.997 317.58V341.997M341.997 317.58H366.415M341.997 341.997V366.415M341.997 341.997H366.415M341.997 366.415V390.832M341.997 366.415H366.415M341.997 390.832V415.25M341.997 390.832H366.415M341.997 415.25V439.667M341.997 415.25H366.415M341.997 439.667V464.085M341.997 439.667H366.415M341.997 464.085V488.502M341.997 464.085H366.415M341.997 488.502H366.415M366.415 0.152609V24.5701M366.415 0.152609H390.832M366.415 24.5701V48.9876M366.415 24.5701H390.832M366.415 48.9876V73.405M366.415 48.9876H390.832M366.415 73.405V97.8225M366.415 73.405H390.832M366.415 97.8225V122.24M366.415 97.8225H390.832M366.415 122.24V146.657M366.415 122.24H390.832M366.415 146.657V171.075M366.415 146.657H390.832M366.415 171.075V195.492M366.415 171.075H390.832M366.415 195.492V219.91M366.415 195.492H390.832M366.415 219.91V244.327M366.415 219.91H390.832M366.415 244.327V268.745M366.415 244.327H390.832M366.415 268.745V293.162M366.415 268.745H390.832M366.415 293.162V317.58M366.415 293.162H390.832M366.415 317.58V341.997M366.415 317.58H390.832M366.415 341.997V366.415M366.415 341.997H390.832M366.415 366.415V390.832M366.415 366.415H390.832M366.415 390.832V415.25M366.415 390.832H390.832M366.415 415.25V439.667M366.415 415.25H390.832M366.415 439.667V464.085M366.415 439.667H390.832M366.415 464.085V488.502M366.415 464.085H390.832M366.415 488.502H390.832M390.832 0.152609V24.5701M390.832 0.152609H415.25M390.832 24.5701V48.9876M390.832 24.5701H415.25M390.832 48.9876V73.405M390.832 48.9876H415.25M390.832 73.405V97.8225M390.832 73.405H415.25M390.832 97.8225V122.24M390.832 97.8225H415.25M390.832 122.24V146.657M390.832 122.24H415.25M390.832 146.657V171.075M390.832 146.657H415.25M390.832 171.075V195.492M390.832 171.075H415.25M390.832 195.492V219.91M390.832 195.492H415.25M390.832 219.91V244.327M390.832 219.91H415.25M390.832 244.327V268.745M390.832 244.327H415.25M390.832 268.745V293.162M390.832 268.745H415.25M390.832 293.162V317.58M390.832 293.162H415.25M390.832 317.58V341.997M390.832 317.58H415.25M390.832 341.997V366.415M390.832 341.997H415.25M390.832 366.415V390.832M390.832 366.415H415.25M390.832 390.832V415.25M390.832 390.832H415.25M390.832 415.25V439.667M390.832 415.25H415.25M390.832 439.667V464.085M390.832 439.667H415.25M390.832 464.085V488.502M390.832 464.085H415.25M390.832 488.502H415.25M415.25 0.152609V24.5701M415.25 0.152609H439.667M415.25 24.5701V48.9876M415.25 24.5701H439.667M415.25 48.9876V73.405M415.25 48.9876H439.667M415.25 73.405V97.8225M415.25 73.405H439.667M415.25 97.8225V122.24M415.25 97.8225H439.667M415.25 122.24V146.657M415.25 122.24H439.667M415.25 146.657V171.075M415.25 146.657H439.667M415.25 171.075V195.492M415.25 171.075H439.667M415.25 195.492V219.91M415.25 195.492H439.667M415.25 219.91V244.327M415.25 219.91H439.667M415.25 244.327V268.745M415.25 244.327H439.667M415.25 268.745V293.162M415.25 268.745H439.667M415.25 293.162V317.58M415.25 293.162H439.667M415.25 317.58V341.997M415.25 317.58H439.667M415.25 341.997V366.415M415.25 341.997H439.667M415.25 366.415V390.832M415.25 366.415H439.667M415.25 390.832V415.25M415.25 390.832H439.667M415.25 415.25V439.667M415.25 415.25H439.667M415.25 439.667V464.085M415.25 439.667H439.667M415.25 464.085V488.502M415.25 464.085H439.667M415.25 488.502H439.667M439.667 0.152609V24.5701M439.667 0.152609H464.085M439.667 24.5701V48.9876M439.667 24.5701H464.085M439.667 48.9876V73.405M439.667 48.9876H464.085M439.667 73.405V97.8225M439.667 73.405H464.085M439.667 97.8225V122.24M439.667 97.8225H464.085M439.667 122.24V146.657M439.667 122.24H464.085M439.667 146.657V171.075M439.667 146.657H464.085M439.667 171.075V195.492M439.667 171.075H464.085M439.667 195.492V219.91M439.667 195.492H464.085M439.667 219.91V244.327M439.667 219.91H464.085M439.667 244.327V268.745M439.667 244.327H464.085M439.667 268.745V293.162M439.667 268.745H464.085M439.667 293.162V317.58M439.667 293.162H464.085M439.667 317.58V341.997M439.667 317.58H464.085M439.667 341.997V366.415M439.667 341.997H464.085M439.667 366.415V390.832M439.667 366.415H464.085M439.667 390.832V415.25M439.667 390.832H464.085M439.667 415.25V439.667M439.667 415.25H464.085M439.667 439.667V464.085M439.667 439.667H464.085M439.667 464.085V488.502M439.667 464.085H464.085M439.667 488.502H464.085M464.085 0.152609V24.5701M464.085 0.152609H488.502M464.085 24.5701V48.9876M464.085 24.5701H488.502M464.085 48.9876V73.405M464.085 48.9876H488.502M464.085 73.405V97.8225M464.085 73.405H488.502M464.085 97.8225V122.24M464.085 97.8225H488.502M464.085 122.24V146.657M464.085 122.24H488.502M464.085 146.657V171.075M464.085 146.657H488.502M464.085 171.075V195.492M464.085 171.075H488.502M464.085 195.492V219.91M464.085 195.492H488.502M464.085 219.91V244.327M464.085 219.91H488.502M464.085 244.327V268.745M464.085 244.327H488.502M464.085 268.745V293.162M464.085 268.745H488.502M464.085 293.162V317.58M464.085 293.162H488.502M464.085 317.58V341.997M464.085 317.58H488.502M464.085 341.997V366.415M464.085 341.997H488.502M464.085 366.415V390.832M464.085 366.415H488.502M464.085 390.832V415.25M464.085 390.832H488.502M464.085 415.25V439.667M464.085 415.25H488.502M464.085 439.667V464.085M464.085 439.667H488.502M464.085 464.085V488.502M464.085 464.085H488.502M464.085 488.502H488.502M488.502 0.152609V24.5701M488.502 0.152609H512.92M488.502 24.5701V48.9876M488.502 24.5701H512.92M488.502 48.9876V73.405M488.502 48.9876H512.92M488.502 73.405V97.8225M488.502 73.405H512.92M488.502 97.8225V122.24M488.502 97.8225H512.92M488.502 122.24V146.657M488.502 122.24H512.92M488.502 146.657V171.075M488.502 146.657H512.92M488.502 171.075V195.492M488.502 171.075H512.92M488.502 195.492V219.91M488.502 195.492H512.92M488.502 219.91V244.327M488.502 219.91H512.92M488.502 244.327V268.745M488.502 244.327H512.92M488.502 268.745V293.162M488.502 268.745H512.92M488.502 293.162V317.58M488.502 293.162H512.92M488.502 317.58V341.997M488.502 317.58H512.92M488.502 341.997V366.415M488.502 341.997H512.92M488.502 366.415V390.832M488.502 366.415H512.92M488.502 390.832V415.25M488.502 390.832H512.92M488.502 415.25V439.667M488.502 415.25H512.92M488.502 439.667V464.085M488.502 439.667H512.92M488.502 464.085V488.502M488.502 464.085H512.92M488.502 488.502H512.92M512.92 0.152609V24.5701M512.92 0.152609H537.337M512.92 24.5701V48.9876M512.92 24.5701H537.337M512.92 48.9876V73.405M512.92 48.9876H537.337M512.92 73.405V97.8225M512.92 73.405H537.337M512.92 97.8225V122.24M512.92 97.8225H537.337M512.92 122.24V146.657M512.92 122.24H537.337M512.92 146.657V171.075M512.92 146.657H537.337M512.92 171.075V195.492M512.92 171.075H537.337M512.92 195.492V219.91M512.92 195.492H537.337M512.92 219.91V244.327M512.92 219.91H537.337M512.92 244.327V268.745M512.92 244.327H537.337M512.92 268.745V293.162M512.92 268.745H537.337M512.92 293.162V317.58M512.92 293.162H537.337M512.92 317.58V341.997M512.92 317.58H537.337M512.92 341.997V366.415M512.92 341.997H537.337M512.92 366.415V390.832M512.92 366.415H537.337M512.92 390.832V415.25M512.92 390.832H537.337M512.92 415.25V439.667M512.92 415.25H537.337M512.92 439.667V464.085M512.92 439.667H537.337M512.92 464.085V488.502M512.92 464.085H537.337M512.92 488.502H537.337M537.337 0.152609V24.5701M537.337 0.152609H561.755M537.337 24.5701V48.9876M537.337 24.5701H561.755M537.337 48.9876V73.405M537.337 48.9876H561.755M537.337 73.405V97.8225M537.337 73.405H561.755M537.337 97.8225V122.24M537.337 97.8225H561.755M537.337 122.24V146.657M537.337 122.24H561.755M537.337 146.657V171.075M537.337 146.657H561.755M537.337 171.075V195.492M537.337 171.075H561.755M537.337 195.492V219.91M537.337 195.492H561.755M537.337 219.91V244.327M537.337 219.91H561.755M537.337 244.327V268.745M537.337 244.327H561.755M537.337 268.745V293.162M537.337 268.745H561.755M537.337 293.162V317.58M537.337 293.162H561.755M537.337 317.58V341.997M537.337 317.58H561.755M537.337 341.997V366.415M537.337 341.997H561.755M537.337 366.415V390.832M537.337 366.415H561.755M537.337 390.832V415.25M537.337 390.832H561.755M537.337 415.25V439.667M537.337 415.25H561.755M537.337 439.667V464.085M537.337 439.667H561.755M537.337 464.085V488.502M537.337 464.085H561.755M537.337 488.502H561.755M561.755 0.152609V24.5701M561.755 0.152609H586.172M561.755 24.5701V48.9876M561.755 24.5701H586.172M561.755 48.9876V73.405M561.755 48.9876H586.172M561.755 73.405V97.8225M561.755 73.405H586.172M561.755 97.8225V122.24M561.755 97.8225H586.172M561.755 122.24V146.657M561.755 122.24H586.172M561.755 146.657V171.075M561.755 146.657H586.172M561.755 171.075V195.492M561.755 171.075H586.172M561.755 195.492V219.91M561.755 195.492H586.172M561.755 219.91V244.327M561.755 219.91H586.172M561.755 244.327V268.745M561.755 244.327H586.172M561.755 268.745V293.162M561.755 268.745H586.172M561.755 293.162V317.58M561.755 293.162H586.172M561.755 317.58V341.997M561.755 317.58H586.172M561.755 341.997V366.415M561.755 341.997H586.172M561.755 366.415V390.832M561.755 366.415H586.172M561.755 390.832V415.25M561.755 390.832H586.172M561.755 415.25V439.667M561.755 415.25H586.172M561.755 439.667V464.085M561.755 439.667H586.172M561.755 464.085V488.502M561.755 464.085H586.172M561.755 488.502H586.172M586.172 0.152609V24.5701M586.172 0.152609H610.589M586.172 24.5701V48.9876M586.172 24.5701H610.589M586.172 48.9876V73.405M586.172 48.9876H610.589M586.172 73.405V97.8225M586.172 73.405H610.589M586.172 97.8225V122.24M586.172 97.8225H610.589M586.172 122.24V146.657M586.172 122.24H610.589M586.172 146.657V171.075M586.172 146.657H610.589M586.172 171.075V195.492M586.172 171.075H610.589M586.172 195.492V219.91M586.172 195.492H610.589M586.172 219.91V244.327M586.172 219.91H610.589M586.172 244.327V268.745M586.172 244.327H610.589M586.172 268.745V293.162M586.172 268.745H610.589M586.172 293.162V317.58M586.172 293.162H610.589M586.172 317.58V341.997M586.172 317.58H610.589M586.172 341.997V366.415M586.172 341.997H610.589M586.172 366.415V390.832M586.172 366.415H610.589M586.172 390.832V415.25M586.172 390.832H610.589M586.172 415.25V439.667M586.172 415.25H610.589M586.172 439.667V464.085M586.172 439.667H610.589M586.172 464.085V488.502M586.172 464.085H610.589M586.172 488.502H610.589M610.589 0.152609V24.5701M610.589 0.152609H635.007M610.589 24.5701V48.9876M610.589 24.5701H635.007M610.589 48.9876V73.405M610.589 48.9876H635.007M610.589 73.405V97.8225M610.589 73.405H635.007M610.589 97.8225V122.24M610.589 97.8225H635.007M610.589 122.24V146.657M610.589 122.24H635.007M610.589 146.657V171.075M610.589 146.657H635.007M610.589 171.075V195.492M610.589 171.075H635.007M610.589 195.492V219.91M610.589 195.492H635.007M610.589 219.91V244.327M610.589 219.91H635.007M610.589 244.327V268.745M610.589 244.327H635.007M610.589 268.745V293.162M610.589 268.745H635.007M610.589 293.162V317.58M610.589 293.162H635.007M610.589 317.58V341.997M610.589 317.58H635.007M610.589 341.997V366.415M610.589 341.997H635.007M610.589 366.415V390.832M610.589 366.415H635.007M610.589 390.832V415.25M610.589 390.832H635.007M610.589 415.25V439.667M610.589 415.25H635.007M610.589 439.667V464.085M610.589 439.667H635.007M610.589 464.085V488.502M610.589 464.085H635.007M610.589 488.502H635.007M635.007 0.152609V24.5701M635.007 0.152609H659.424M635.007 24.5701V48.9876M635.007 24.5701H659.424M635.007 48.9876V73.405M635.007 48.9876H659.424M635.007 73.405V97.8225M635.007 73.405H659.424M635.007 97.8225V122.24M635.007 97.8225H659.424M635.007 122.24V146.657M635.007 122.24H659.424M635.007 146.657V171.075M635.007 146.657H659.424M635.007 171.075V195.492M635.007 171.075H659.424M635.007 195.492V219.91M635.007 195.492H659.424M635.007 219.91V244.327M635.007 219.91H659.424M635.007 244.327V268.745M635.007 244.327H659.424M635.007 268.745V293.162M635.007 268.745H659.424M635.007 293.162V317.58M635.007 293.162H659.424M635.007 317.58V341.997M635.007 317.58H659.424M635.007 341.997V366.415M635.007 341.997H659.424M635.007 366.415V390.832M635.007 366.415H659.424M635.007 390.832V415.25M635.007 390.832H659.424M635.007 415.25V439.667M635.007 415.25H659.424M635.007 439.667V464.085M635.007 439.667H659.424M635.007 464.085V488.502M635.007 464.085H659.424M635.007 488.502H659.424M659.424 0.152609V24.5701M659.424 0.152609H683.842M659.424 24.5701V48.9876M659.424 24.5701H683.842M659.424 48.9876V73.405M659.424 48.9876H683.842M659.424 73.405V97.8225M659.424 73.405H683.842M659.424 97.8225V122.24M659.424 97.8225H683.842M659.424 122.24V146.657M659.424 122.24H683.842M659.424 146.657V171.075M659.424 146.657H683.842M659.424 171.075V195.492M659.424 171.075H683.842M659.424 195.492V219.91M659.424 195.492H683.842M659.424 219.91V244.327M659.424 219.91H683.842M659.424 244.327V268.745M659.424 244.327H683.842M659.424 268.745V293.162M659.424 268.745H683.842M659.424 293.162V317.58M659.424 293.162H683.842M659.424 317.58V341.997M659.424 317.58H683.842M659.424 341.997V366.415M659.424 341.997H683.842M659.424 366.415V390.832M659.424 366.415H683.842M659.424 390.832V415.25M659.424 390.832H683.842M659.424 415.25V439.667M659.424 415.25H683.842M659.424 439.667V464.085M659.424 439.667H683.842M659.424 464.085V488.502M659.424 464.085H683.842M659.424 488.502H683.842M683.842 0.152609V24.5701M683.842 0.152609H708.259M683.842 24.5701V48.9876M683.842 24.5701H708.259M683.842 48.9876V73.405M683.842 48.9876H708.259M683.842 73.405V97.8225M683.842 73.405H708.259M683.842 97.8225V122.24M683.842 97.8225H708.259M683.842 122.24V146.657M683.842 122.24H708.259M683.842 146.657V171.075M683.842 146.657H708.259M683.842 171.075V195.492M683.842 171.075H708.259M683.842 195.492V219.91M683.842 195.492H708.259M683.842 219.91V244.327M683.842 219.91H708.259M683.842 244.327V268.745M683.842 244.327H708.259M683.842 268.745V293.162M683.842 268.745H708.259M683.842 293.162V317.58M683.842 293.162H708.259M683.842 317.58V341.997M683.842 317.58H708.259M683.842 341.997V366.415M683.842 341.997H708.259M683.842 366.415V390.832M683.842 366.415H708.259M683.842 390.832V415.25M683.842 390.832H708.259M683.842 415.25V439.667M683.842 415.25H708.259M683.842 439.667V464.085M683.842 439.667H708.259M683.842 464.085V488.502M683.842 464.085H708.259M683.842 488.502H708.259M708.259 0.152609V24.5701M708.259 0.152609H732.677M708.259 24.5701V48.9876M708.259 24.5701H732.677M708.259 48.9876V73.405M708.259 48.9876H732.677M708.259 73.405V97.8225M708.259 73.405H732.677M708.259 97.8225V122.24M708.259 97.8225H732.677M708.259 122.24V146.657M708.259 122.24H732.677M708.259 146.657V171.075M708.259 146.657H732.677M708.259 171.075V195.492M708.259 171.075H732.677M708.259 195.492V219.91M708.259 195.492H732.677M708.259 219.91V244.327M708.259 219.91H732.677M708.259 244.327V268.745M708.259 244.327H732.677M708.259 268.745V293.162M708.259 268.745H732.677M708.259 293.162V317.58M708.259 293.162H732.677M708.259 317.58V341.997M708.259 317.58H732.677M708.259 341.997V366.415M708.259 341.997H732.677M708.259 366.415V390.832M708.259 366.415H732.677M708.259 390.832V415.25M708.259 390.832H732.677M708.259 415.25V439.667M708.259 415.25H732.677M708.259 439.667V464.085M708.259 439.667H732.677M708.259 464.085V488.502M708.259 464.085H732.677M708.259 488.502H732.677M732.677 0.152609V24.5701M732.677 0.152609H757.094M732.677 24.5701V48.9876M732.677 24.5701H757.094M732.677 48.9876V73.405M732.677 48.9876H757.094M732.677 73.405V97.8225M732.677 73.405H757.094M732.677 97.8225V122.24M732.677 97.8225H757.094M732.677 122.24V146.657M732.677 122.24H757.094M732.677 146.657V171.075M732.677 146.657H757.094M732.677 171.075V195.492M732.677 171.075H757.094M732.677 195.492V219.91M732.677 195.492H757.094M732.677 219.91V244.327M732.677 219.91H757.094M732.677 244.327V268.745M732.677 244.327H757.094M732.677 268.745V293.162M732.677 268.745H757.094M732.677 293.162V317.58M732.677 293.162H757.094M732.677 317.58V341.997M732.677 317.58H757.094M732.677 341.997V366.415M732.677 341.997H757.094M732.677 366.415V390.832M732.677 366.415H757.094M732.677 390.832V415.25M732.677 390.832H757.094M732.677 415.25V439.667M732.677 415.25H757.094M732.677 439.667V464.085M732.677 439.667H757.094M732.677 464.085V488.502M732.677 464.085H757.094M732.677 488.502H757.094M757.094 0.152609V24.5701M757.094 0.152609H781.512M757.094 24.5701V48.9876M757.094 24.5701H781.512M757.094 48.9876V73.405M757.094 48.9876H781.512M757.094 73.405V97.8225M757.094 73.405H781.512M757.094 97.8225V122.24M757.094 97.8225H781.512M757.094 122.24V146.657M757.094 122.24H781.512M757.094 146.657V171.075M757.094 146.657H781.512M757.094 171.075V195.492M757.094 171.075H781.512M757.094 195.492V219.91M757.094 195.492H781.512M757.094 219.91V244.327M757.094 219.91H781.512M757.094 244.327V268.745M757.094 244.327H781.512M757.094 268.745V293.162M757.094 268.745H781.512M757.094 293.162V317.58M757.094 293.162H781.512M757.094 317.58V341.997M757.094 317.58H781.512M757.094 341.997V366.415M757.094 341.997H781.512M757.094 366.415V390.832M757.094 366.415H781.512M757.094 390.832V415.25M757.094 390.832H781.512M757.094 415.25V439.667M757.094 415.25H781.512M757.094 439.667V464.085M757.094 439.667H781.512M757.094 464.085V488.502M757.094 464.085H781.512M757.094 488.502H781.512M781.512 0.152609V24.5701M781.512 0.152609H805.929M781.512 24.5701V48.9876M781.512 24.5701H805.929M781.512 48.9876V73.405M781.512 48.9876H805.929M781.512 73.405V97.8225M781.512 73.405H805.929M781.512 97.8225V122.24M781.512 97.8225H805.929M781.512 122.24V146.657M781.512 122.24H805.929M781.512 146.657V171.075M781.512 146.657H805.929M781.512 171.075V195.492M781.512 171.075H805.929M781.512 195.492V219.91M781.512 195.492H805.929M781.512 219.91V244.327M781.512 219.91H805.929M781.512 244.327V268.745M781.512 244.327H805.929M781.512 268.745V293.162M781.512 268.745H805.929M781.512 293.162V317.58M781.512 293.162H805.929M781.512 317.58V341.997M781.512 317.58H805.929M781.512 341.997V366.415M781.512 341.997H805.929M781.512 366.415V390.832M781.512 366.415H805.929M781.512 390.832V415.25M781.512 390.832H805.929M781.512 415.25V439.667M781.512 415.25H805.929M781.512 439.667V464.085M781.512 439.667H805.929M781.512 464.085V488.502M781.512 464.085H805.929M781.512 488.502H805.929M805.929 0.152609V24.5701M805.929 0.152609H830.347M805.929 24.5701V48.9876M805.929 24.5701H830.347M805.929 48.9876V73.405M805.929 48.9876H830.347M805.929 73.405V97.8225M805.929 73.405H830.347M805.929 97.8225V122.24M805.929 97.8225H830.347M805.929 122.24V146.657M805.929 122.24H830.347M805.929 146.657V171.075M805.929 146.657H830.347M805.929 171.075V195.492M805.929 171.075H830.347M805.929 195.492V219.91M805.929 195.492H830.347M805.929 219.91V244.327M805.929 219.91H830.347M805.929 244.327V268.745M805.929 244.327H830.347M805.929 268.745V293.162M805.929 268.745H830.347M805.929 293.162V317.58M805.929 293.162H830.347M805.929 317.58V341.997M805.929 317.58H830.347M805.929 341.997V366.415M805.929 341.997H830.347M805.929 366.415V390.832M805.929 366.415H830.347M805.929 390.832V415.25M805.929 390.832H830.347M805.929 415.25V439.667M805.929 415.25H830.347M805.929 439.667V464.085M805.929 439.667H830.347M805.929 464.085V488.502M805.929 464.085H830.347M805.929 488.502H830.347M830.347 0.152609V24.5701M830.347 0.152609H854.764M830.347 24.5701V48.9876M830.347 24.5701H854.764M830.347 48.9876V73.405M830.347 48.9876H854.764M830.347 73.405V97.8225M830.347 73.405H854.764M830.347 97.8225V122.24M830.347 97.8225H854.764M830.347 122.24V146.657M830.347 122.24H854.764M830.347 146.657V171.075M830.347 146.657H854.764M830.347 171.075V195.492M830.347 171.075H854.764M830.347 195.492V219.91M830.347 195.492H854.764M830.347 219.91V244.327M830.347 219.91H854.764M830.347 244.327V268.745M830.347 244.327H854.764M830.347 268.745V293.162M830.347 268.745H854.764M830.347 293.162V317.58M830.347 293.162H854.764M830.347 317.58V341.997M830.347 317.58H854.764M830.347 341.997V366.415M830.347 341.997H854.764M830.347 366.415V390.832M830.347 366.415H854.764M830.347 390.832V415.25M830.347 390.832H854.764M830.347 415.25V439.667M830.347 415.25H854.764M830.347 439.667V464.085M830.347 439.667H854.764M830.347 464.085V488.502M830.347 464.085H854.764M830.347 488.502H854.764M854.764 0.152609V24.5701M854.764 0.152609H879.182M854.764 24.5701V48.9876M854.764 24.5701H879.182M854.764 48.9876V73.405M854.764 48.9876H879.182M854.764 73.405V97.8225M854.764 73.405H879.182M854.764 97.8225V122.24M854.764 97.8225H879.182M854.764 122.24V146.657M854.764 122.24H879.182M854.764 146.657V171.075M854.764 146.657H879.182M854.764 171.075V195.492M854.764 171.075H879.182M854.764 195.492V219.91M854.764 195.492H879.182M854.764 219.91V244.327M854.764 219.91H879.182M854.764 244.327V268.745M854.764 244.327H879.182M854.764 268.745V293.162M854.764 268.745H879.182M854.764 293.162V317.58M854.764 293.162H879.182M854.764 317.58V341.997M854.764 317.58H879.182M854.764 341.997V366.415M854.764 341.997H879.182M854.764 366.415V390.832M854.764 366.415H879.182M854.764 390.832V415.25M854.764 390.832H879.182M854.764 415.25V439.667M854.764 415.25H879.182M854.764 439.667V464.085M854.764 439.667H879.182M854.764 464.085V488.502M854.764 464.085H879.182M854.764 488.502H879.182M879.182 0.152609V24.5701M879.182 0.152609H903.599M879.182 24.5701V48.9876M879.182 24.5701H903.599M879.182 48.9876V73.405M879.182 48.9876H903.599M879.182 73.405V97.8225M879.182 73.405H903.599M879.182 97.8225V122.24M879.182 97.8225H903.599M879.182 122.24V146.657M879.182 122.24H903.599M879.182 146.657V171.075M879.182 146.657H903.599M879.182 171.075V195.492M879.182 171.075H903.599M879.182 195.492V219.91M879.182 195.492H903.599M879.182 219.91V244.327M879.182 219.91H903.599M879.182 244.327V268.745M879.182 244.327H903.599M879.182 268.745V293.162M879.182 268.745H903.599M879.182 293.162V317.58M879.182 293.162H903.599M879.182 317.58V341.997M879.182 317.58H903.599M879.182 341.997V366.415M879.182 341.997H903.599M879.182 366.415V390.832M879.182 366.415H903.599M879.182 390.832V415.25M879.182 390.832H903.599M879.182 415.25V439.667M879.182 415.25H903.599M879.182 439.667V464.085M879.182 439.667H903.599M879.182 464.085V488.502M879.182 464.085H903.599M879.182 488.502H903.599M903.599 0.152609V24.5701M903.599 0.152609H928.017M903.599 24.5701V48.9876M903.599 24.5701H928.017M903.599 48.9876V73.405M903.599 48.9876H928.017M903.599 73.405V97.8225M903.599 73.405H928.017M903.599 97.8225V122.24M903.599 97.8225H928.017M903.599 122.24V146.657M903.599 122.24H928.017M903.599 146.657V171.075M903.599 146.657H928.017M903.599 171.075V195.492M903.599 171.075H928.017M903.599 195.492V219.91M903.599 195.492H928.017M903.599 219.91V244.327M903.599 219.91H928.017M903.599 244.327V268.745M903.599 244.327H928.017M903.599 268.745V293.162M903.599 268.745H928.017M903.599 293.162V317.58M903.599 293.162H928.017M903.599 317.58V341.997M903.599 317.58H928.017M903.599 341.997V366.415M903.599 341.997H928.017M903.599 366.415V390.832M903.599 366.415H928.017M903.599 390.832V415.25M903.599 390.832H928.017M903.599 415.25V439.667M903.599 415.25H928.017M903.599 439.667V464.085M903.599 439.667H928.017M903.599 464.085V488.502M903.599 464.085H928.017M903.599 488.502H928.017M928.017 0.152609V24.5701M928.017 0.152609H952.434M928.017 24.5701V48.9876M928.017 24.5701H952.434M928.017 48.9876V73.405M928.017 48.9876H952.434M928.017 73.405V97.8225M928.017 73.405H952.434M928.017 97.8225V122.24M928.017 97.8225H952.434M928.017 122.24V146.657M928.017 122.24H952.434M928.017 146.657V171.075M928.017 146.657H952.434M928.017 171.075V195.492M928.017 171.075H952.434M928.017 195.492V219.91M928.017 195.492H952.434M928.017 219.91V244.327M928.017 219.91H952.434M928.017 244.327V268.745M928.017 244.327H952.434M928.017 268.745V293.162M928.017 268.745H952.434M928.017 293.162V317.58M928.017 293.162H952.434M928.017 317.58V341.997M928.017 317.58H952.434M928.017 341.997V366.415M928.017 341.997H952.434M928.017 366.415V390.832M928.017 366.415H952.434M928.017 390.832V415.25M928.017 390.832H952.434M928.017 415.25V439.667M928.017 415.25H952.434M928.017 439.667V464.085M928.017 439.667H952.434M928.017 464.085V488.502M928.017 464.085H952.434M928.017 488.502H952.434M952.434 0.152609V24.5701M952.434 0.152609H976.852M952.434 24.5701V48.9876M952.434 24.5701H976.852M952.434 48.9876V73.405M952.434 48.9876H976.852M952.434 73.405V97.8225M952.434 73.405H976.852M952.434 97.8225V122.24M952.434 97.8225H976.852M952.434 122.24V146.657M952.434 122.24H976.852M952.434 146.657V171.075M952.434 146.657H976.852M952.434 171.075V195.492M952.434 171.075H976.852M952.434 195.492V219.91M952.434 195.492H976.852M952.434 219.91V244.327M952.434 219.91H976.852M952.434 244.327V268.745M952.434 244.327H976.852M952.434 268.745V293.162M952.434 268.745H976.852M952.434 293.162V317.58M952.434 293.162H976.852M952.434 317.58V341.997M952.434 317.58H976.852M952.434 341.997V366.415M952.434 341.997H976.852M952.434 366.415V390.832M952.434 366.415H976.852M952.434 390.832V415.25M952.434 390.832H976.852M952.434 415.25V439.667M952.434 415.25H976.852M952.434 439.667V464.085M952.434 439.667H976.852M952.434 464.085V488.502M952.434 464.085H976.852M952.434 488.502H976.852M976.852 0.152609V24.5701M976.852 0.152609H1001.27M976.852 24.5701V48.9876M976.852 24.5701H1001.27M976.852 48.9876V73.405M976.852 48.9876H1001.27M976.852 73.405V97.8225M976.852 73.405H1001.27M976.852 97.8225V122.24M976.852 97.8225H1001.27M976.852 122.24V146.657M976.852 122.24H1001.27M976.852 146.657V171.075M976.852 146.657H1001.27M976.852 171.075V195.492M976.852 171.075H1001.27M976.852 195.492V219.91M976.852 195.492H1001.27M976.852 219.91V244.327M976.852 219.91H1001.27M976.852 244.327V268.745M976.852 244.327H1001.27M976.852 268.745V293.162M976.852 268.745H1001.27M976.852 293.162V317.58M976.852 293.162H1001.27M976.852 317.58V341.997M976.852 317.58H1001.27M976.852 341.997V366.415M976.852 341.997H1001.27M976.852 366.415V390.832M976.852 366.415H1001.27M976.852 390.832V415.25M976.852 390.832H1001.27M976.852 415.25V439.667M976.852 415.25H1001.27M976.852 439.667V464.085M976.852 439.667H1001.27M976.852 464.085V488.502M976.852 464.085H1001.27M976.852 488.502H1001.27M1001.27 0.152609V24.5701M1001.27 0.152609H1025.69M1001.27 24.5701V48.9876M1001.27 24.5701H1025.69M1001.27 48.9876V73.405M1001.27 48.9876H1025.69M1001.27 73.405V97.8225M1001.27 73.405H1025.69M1001.27 97.8225V122.24M1001.27 97.8225H1025.69M1001.27 122.24V146.657M1001.27 122.24H1025.69M1001.27 146.657V171.075M1001.27 146.657H1025.69M1001.27 171.075V195.492M1001.27 171.075H1025.69M1001.27 195.492V219.91M1001.27 195.492H1025.69M1001.27 219.91V244.327M1001.27 219.91H1025.69M1001.27 244.327V268.745M1001.27 244.327H1025.69M1001.27 268.745V293.162M1001.27 268.745H1025.69M1001.27 293.162V317.58M1001.27 293.162H1025.69M1001.27 317.58V341.997M1001.27 317.58H1025.69M1001.27 341.997V366.415M1001.27 341.997H1025.69M1001.27 366.415V390.832M1001.27 366.415H1025.69M1001.27 390.832V415.25M1001.27 390.832H1025.69M1001.27 415.25V439.667M1001.27 415.25H1025.69M1001.27 439.667V464.085M1001.27 439.667H1025.69M1001.27 464.085V488.502M1001.27 464.085H1025.69M1001.27 488.502H1025.69M1025.69 0.152609V24.5701M1025.69 0.152609H1050.1M1025.69 24.5701V48.9876M1025.69 24.5701H1050.1M1025.69 48.9876V73.405M1025.69 48.9876H1050.1M1025.69 73.405V97.8225M1025.69 73.405H1050.1M1025.69 97.8225V122.24M1025.69 97.8225H1050.1M1025.69 122.24V146.657M1025.69 122.24H1050.1M1025.69 146.657V171.075M1025.69 146.657H1050.1M1025.69 171.075V195.492M1025.69 171.075H1050.1M1025.69 195.492V219.91M1025.69 195.492H1050.1M1025.69 219.91V244.327M1025.69 219.91H1050.1M1025.69 244.327V268.745M1025.69 244.327H1050.1M1025.69 268.745V293.162M1025.69 268.745H1050.1M1025.69 293.162V317.58M1025.69 293.162H1050.1M1025.69 317.58V341.997M1025.69 317.58H1050.1M1025.69 341.997V366.415M1025.69 341.997H1050.1M1025.69 366.415V390.832M1025.69 366.415H1050.1M1025.69 390.832V415.25M1025.69 390.832H1050.1M1025.69 415.25V439.667M1025.69 415.25H1050.1M1025.69 439.667V464.085M1025.69 439.667H1050.1M1025.69 464.085V488.502M1025.69 464.085H1050.1M1025.69 488.502H1050.1M1050.1 0.152609V24.5701M1050.1 0.152609H1074.52V24.5701M1050.1 24.5701V48.9876M1050.1 24.5701H1074.52M1050.1 48.9876V73.405M1050.1 48.9876H1074.52M1050.1 73.405V97.8225M1050.1 73.405H1074.52M1050.1 97.8225V122.24M1050.1 97.8225H1074.52M1050.1 122.24V146.657M1050.1 122.24H1074.52M1050.1 146.657V171.075M1050.1 146.657H1074.52M1050.1 171.075V195.492M1050.1 171.075H1074.52M1050.1 195.492V219.91M1050.1 195.492H1074.52M1050.1 219.91V244.327M1050.1 219.91H1074.52M1050.1 244.327V268.745M1050.1 244.327H1074.52M1050.1 268.745V293.162M1050.1 268.745H1074.52M1050.1 293.162V317.58M1050.1 293.162H1074.52M1050.1 317.58V341.997M1050.1 317.58H1074.52M1050.1 341.997V366.415M1050.1 341.997H1074.52M1050.1 366.415V390.832M1050.1 366.415H1074.52M1050.1 390.832V415.25M1050.1 390.832H1074.52M1050.1 415.25V439.667M1050.1 415.25H1074.52M1050.1 439.667V464.085M1050.1 439.667H1074.52M1050.1 464.085V488.502M1050.1 464.085H1074.52M1050.1 488.502H1074.52V464.085M1074.52 24.5701V48.9876M1074.52 48.9876V73.405M1074.52 73.405V97.8225M1074.52 97.8225V122.24M1074.52 122.24V146.657M1074.52 146.657V171.075M1074.52 171.075V195.492M1074.52 195.492V219.91M1074.52 219.91V244.327M1074.52 244.327V268.745M1074.52 268.745V293.162M1074.52 293.162V317.58M1074.52 317.58V341.997M1074.52 341.997V366.415M1074.52 366.415V390.832M1074.52 390.832V415.25M1074.52 415.25V439.667M1074.52 439.667V464.085" stroke="url(#paint0_radial_0_5)" stroke-opacity="0.6" stroke-width="0.305218"/>
</g>
<defs>
<radialGradient id="paint0_radial_0_5" cx="0" cy="0" r="1" gradientUnits="userSpaceOnUse" gradientTransform="translate(537.337 244.327) rotate(90) scale(244.175 537.184)">
<stop stop-color="white"/>
<stop offset="1" stop-color="white" stop-opacity="0"/>
</radialGradient>
</defs>
</svg>
