<svg preserveAspectRatio="none" width="100%" height="100%" overflow="visible" style="display: block;" viewBox="0 0 894.165 413" fill="none" xmlns="http://www.w3.org/2000/svg">
<g id="Vector" opacity="0.8" style="mix-blend-mode:soft-light">
<path d="M86.2088 80.1941V86.2087M86.2088 86.2087V92.2233M86.2088 86.2087H80.1942M86.2088 86.2087H92.2233M86.2088 240.583V246.597M86.2088 246.597V252.612M86.2088 246.597H80.1942M86.2088 246.597H92.2233M86.2088 400.971V406.985M86.2088 406.985V413M86.2088 406.985H80.1942M86.2088 406.985H92.2233M246.597 80.1941V86.2087M246.597 86.2087V92.2233M246.597 86.2087H240.583M246.597 86.2087H252.612M246.597 240.583V246.597M246.597 246.597V252.612M246.597 246.597H240.583M246.597 246.597H252.612M246.597 400.971V406.985M246.597 406.985V413M246.597 406.985H240.583M246.597 406.985H252.612M406.986 80.1941V86.2087M406.986 86.2087V92.2233M406.986 86.2087H400.971M406.986 86.2087H413M406.986 240.583V246.597M406.986 246.597V252.612M406.986 246.597H400.971M406.986 246.597H413M406.986 400.971V406.985M406.986 406.985V413M406.986 406.985H400.971M406.986 406.985H413M567.374 80.1941V86.2087M567.374 86.2087V92.2233M567.374 86.2087H561.359M567.374 86.2087H573.389M567.374 240.583V246.597M567.374 246.597V252.612M567.374 246.597H561.359M567.374 246.597H573.389M567.374 400.971V406.985M567.374 406.985V413M567.374 406.985H561.359M567.374 406.985H573.389M727.762 80.1941V86.2087M727.762 86.2087V92.2233M727.762 86.2087H721.748M727.762 86.2087H733.777M727.762 240.583V246.597M727.762 246.597V252.612M727.762 246.597H721.748M727.762 246.597H733.777M727.762 400.971V406.985M727.762 406.985V413M727.762 406.985H721.748M727.762 406.985H733.777M888.151 80.1941V86.2087M888.151 86.2087V92.2233M888.151 86.2087H882.136M888.151 86.2087H894.165M888.151 240.583V246.597M888.151 246.597V252.612M888.151 246.597H882.136M888.151 246.597H894.165M888.151 400.971V406.985M888.151 406.985V413M888.151 406.985H882.136M888.151 406.985H894.165M86.2088 0V6.01456M86.2088 6.01456V12.0291M86.2088 6.01456H80.1942M86.2088 6.01456H92.2233M86.2088 160.388V166.403M86.2088 166.403V172.418M86.2088 166.403H80.1942M86.2088 166.403H92.2233M86.2088 320.777V326.791M86.2088 326.791V332.806M86.2088 326.791H80.1942M86.2088 326.791H92.2233M246.597 0V6.01456M246.597 6.01456V12.0291M246.597 6.01456H240.583M246.597 6.01456H252.612M246.597 160.388V166.403M246.597 166.403V172.418M246.597 166.403H240.583M246.597 166.403H252.612M246.597 320.777V326.791M246.597 326.791V332.806M246.597 326.791H240.583M246.597 326.791H252.612M406.986 0V6.01456M406.986 6.01456V12.0291M406.986 6.01456H400.971M406.986 6.01456H413M406.986 160.388V166.403M406.986 166.403V172.418M406.986 166.403H400.971M406.986 166.403H413M406.986 320.777V326.791M406.986 326.791V332.806M406.986 326.791H400.971M406.986 326.791H413M567.374 0V6.01456M567.374 6.01456V12.0291M567.374 6.01456H561.359M567.374 6.01456H573.389M567.374 160.388V166.403M567.374 166.403V172.418M567.374 166.403H561.359M567.374 166.403H573.389M567.374 320.777V326.791M567.374 326.791V332.806M567.374 326.791H561.359M567.374 326.791H573.389M727.762 0V6.01456M727.762 6.01456V12.0291M727.762 6.01456H721.748M727.762 6.01456H733.777M727.762 160.388V166.403M727.762 166.403V172.418M727.762 166.403H721.748M727.762 166.403H733.777M727.762 320.777V326.791M727.762 326.791V332.806M727.762 326.791H721.748M727.762 326.791H733.777M888.151 0V6.01456M888.151 6.01456V12.0291M888.151 6.01456H882.136M888.151 6.01456H894.165M888.151 160.388V166.403M888.151 166.403V172.418M888.151 166.403H882.136M888.151 166.403H894.165M888.151 320.777V326.791M888.151 326.791V332.806M888.151 326.791H882.136M888.151 326.791H894.165M6.01456 80.1941V86.2087M6.01456 86.2087V92.2233M6.01456 86.2087H0M6.01456 86.2087H12.0291M6.01456 240.583V246.597M6.01456 246.597V252.612M6.01456 246.597H0M6.01456 246.597H12.0291M6.01456 400.971V406.985M6.01456 406.985V413M6.01456 406.985H0M6.01456 406.985H12.0291M166.403 80.1941V86.2087M166.403 86.2087V92.2233M166.403 86.2087H160.388M166.403 86.2087H172.418M166.403 240.583V246.597M166.403 246.597V252.612M166.403 246.597H160.388M166.403 246.597H172.418M166.403 400.971V406.985M166.403 406.985V413M166.403 406.985H160.388M166.403 406.985H172.418M326.791 80.1941V86.2087M326.791 86.2087V92.2233M326.791 86.2087H320.777M326.791 86.2087H332.806M326.791 240.583V246.597M326.791 246.597V252.612M326.791 246.597H320.777M326.791 246.597H332.806M326.791 400.971V406.985M326.791 406.985V413M326.791 406.985H320.777M326.791 406.985H332.806M487.18 80.1941V86.2087M487.18 86.2087V92.2233M487.18 86.2087H481.165M487.18 86.2087H493.194M487.18 240.583V246.597M487.18 246.597V252.612M487.18 246.597H481.165M487.18 246.597H493.194M487.18 400.971V406.985M487.18 406.985V413M487.18 406.985H481.165M487.18 406.985H493.194M647.568 80.1941V86.2087M647.568 86.2087V92.2233M647.568 86.2087H641.554M647.568 86.2087H653.583M647.568 240.583V246.597M647.568 246.597V252.612M647.568 246.597H641.554M647.568 246.597H653.583M647.568 400.971V406.985M647.568 406.985V413M647.568 406.985H641.554M647.568 406.985H653.583M807.956 80.1941V86.2087M807.956 86.2087V92.2233M807.956 86.2087H801.942M807.956 86.2087H813.971M807.956 240.583V246.597M807.956 246.597V252.612M807.956 246.597H801.942M807.956 246.597H813.971M807.956 400.971V406.985M807.956 406.985V413M807.956 406.985H801.942M807.956 406.985H813.971M6.01456 2.95677e-05V6.01459M6.01456 6.01459V12.0292M6.01456 6.01459H0M6.01456 6.01459H12.0291M6.01456 160.388V166.403M6.01456 166.403V172.418M6.01456 166.403H0M6.01456 166.403H12.0291M6.01456 320.777V326.791M6.01456 326.791V332.806M6.01456 326.791H0M6.01456 326.791H12.0291M166.403 0V6.01456M166.403 6.01456V12.0291M166.403 6.01456H160.388M166.403 6.01456H172.418M166.403 160.388V166.403M166.403 166.403V172.418M166.403 166.403H160.388M166.403 166.403H172.418M166.403 320.777V326.791M166.403 326.791V332.806M166.403 326.791H160.388M166.403 326.791H172.418M326.791 0V6.01456M326.791 6.01456V12.0291M326.791 6.01456H320.777M326.791 6.01456H332.806M326.791 160.388V166.403M326.791 166.403V172.418M326.791 166.403H320.777M326.791 166.403H332.806M326.791 320.777V326.791M326.791 326.791V332.806M326.791 326.791H320.777M326.791 326.791H332.806M487.18 0V6.01456M487.18 6.01456V12.0291M487.18 6.01456H481.165M487.18 6.01456H493.194M487.18 160.388V166.403M487.18 166.403V172.418M487.18 166.403H481.165M487.18 166.403H493.194M487.18 320.777V326.791M487.18 326.791V332.806M487.18 326.791H481.165M487.18 326.791H493.194M647.568 0V6.01456M647.568 6.01456V12.0291M647.568 6.01456H641.554M647.568 6.01456H653.583M647.568 160.388V166.403M647.568 166.403V172.418M647.568 166.403H641.554M647.568 166.403H653.583M647.568 320.777V326.791M647.568 326.791V332.806M647.568 326.791H641.554M647.568 326.791H653.583M807.956 0V6.01456M807.956 6.01456V12.0291M807.956 6.01456H801.942M807.956 6.01456H813.971M807.956 160.388V166.403M807.956 166.403V172.418M807.956 166.403H801.942M807.956 166.403H813.971M807.956 320.777V326.791M807.956 326.791V332.806M807.956 326.791H801.942M807.956 326.791H813.971" stroke="url(#paint0_radial_30597_1566)" stroke-opacity="0.6" stroke-width="0.501214"/>
</g>
<defs>
<radialGradient id="paint0_radial_30597_1566" cx="0" cy="0" r="1" gradientUnits="userSpaceOnUse" gradientTransform="translate(447.083 206.5) rotate(90) scale(206.5 447.083)">
<stop stop-color="white"/>
<stop offset="1" stop-color="white" stop-opacity="0"/>
</radialGradient>
</defs>
</svg>
