<svg preserveAspectRatio="none" width="100%" height="100%" overflow="visible" style="display: block;" viewBox="0 0 1089.02 503" fill="none" xmlns="http://www.w3.org/2000/svg">
<g id="Vector" opacity="0.8" style="mix-blend-mode:soft-light">
<path d="M104.995 97.6698V104.995M104.995 104.995V112.32M104.995 104.995H97.6699M104.995 104.995H112.32M104.995 293.01V300.335M104.995 300.335V307.66M104.995 300.335H97.6699M104.995 300.335H112.32M104.995 488.349V495.675M104.995 495.675V503M104.995 495.675H97.6699M104.995 495.675H112.32M300.335 97.6698V104.995M300.335 104.995V112.32M300.335 104.995H293.01M300.335 104.995H307.66M300.335 293.01V300.335M300.335 300.335V307.66M300.335 300.335H293.01M300.335 300.335H307.66M300.335 488.349V495.675M300.335 495.675V503M300.335 495.675H293.01M300.335 495.675H307.66M495.675 97.6698V104.995M495.675 104.995V112.32M495.675 104.995H488.35M495.675 104.995H503M495.675 293.01V300.335M495.675 300.335V307.66M495.675 300.335H488.35M495.675 300.335H503M495.675 488.349V495.675M495.675 495.675V503M495.675 495.675H488.35M495.675 495.675H503M691.015 97.6698V104.995M691.015 104.995V112.32M691.015 104.995H683.689M691.015 104.995H698.34M691.015 293.01V300.335M691.015 300.335V307.66M691.015 300.335H683.689M691.015 300.335H698.34M691.015 488.349V495.675M691.015 495.675V503M691.015 495.675H683.689M691.015 495.675H698.34M886.354 97.6698V104.995M886.354 104.995V112.32M886.354 104.995H879.029M886.354 104.995H893.68M886.354 293.01V300.335M886.354 300.335V307.66M886.354 300.335H879.029M886.354 300.335H893.68M886.354 488.349V495.675M886.354 495.675V503M886.354 495.675H879.029M886.354 495.675H893.68M1081.69 97.6698V104.995M1081.69 104.995V112.32M1081.69 104.995H1074.37M1081.69 104.995H1089.02M1081.69 293.01V300.335M1081.69 300.335V307.66M1081.69 300.335H1074.37M1081.69 300.335H1089.02M1081.69 488.349V495.675M1081.69 495.675V503M1081.69 495.675H1074.37M1081.69 495.675H1089.02M104.995 0V7.32524M104.995 7.32524V14.6505M104.995 7.32524H97.6699M104.995 7.32524H112.32M104.995 195.34V202.665M104.995 202.665V209.99M104.995 202.665H97.6699M104.995 202.665H112.32M104.995 390.679V398.005M104.995 398.005V405.33M104.995 398.005H97.6699M104.995 398.005H112.32M300.335 0V7.32524M300.335 7.32524V14.6505M300.335 7.32524H293.01M300.335 7.32524H307.66M300.335 195.34V202.665M300.335 202.665V209.99M300.335 202.665H293.01M300.335 202.665H307.66M300.335 390.679V398.005M300.335 398.005V405.33M300.335 398.005H293.01M300.335 398.005H307.66M495.675 0V7.32524M495.675 7.32524V14.6505M495.675 7.32524H488.35M495.675 7.32524H503M495.675 195.34V202.665M495.675 202.665V209.99M495.675 202.665H488.35M495.675 202.665H503M495.675 390.679V398.005M495.675 398.005V405.33M495.675 398.005H488.35M495.675 398.005H503M691.015 0V7.32524M691.015 7.32524V14.6505M691.015 7.32524H683.689M691.015 7.32524H698.34M691.015 195.34V202.665M691.015 202.665V209.99M691.015 202.665H683.689M691.015 202.665H698.34M691.015 390.679V398.005M691.015 398.005V405.33M691.015 398.005H683.689M691.015 398.005H698.34M886.354 0V7.32524M886.354 7.32524V14.6505M886.354 7.32524H879.029M886.354 7.32524H893.68M886.354 195.34V202.665M886.354 202.665V209.99M886.354 202.665H879.029M886.354 202.665H893.68M886.354 390.679V398.005M886.354 398.005V405.33M886.354 398.005H879.029M886.354 398.005H893.68M1081.69 0V7.32524M1081.69 7.32524V14.6505M1081.69 7.32524H1074.37M1081.69 7.32524H1089.02M1081.69 195.34V202.665M1081.69 202.665V209.99M1081.69 202.665H1074.37M1081.69 202.665H1089.02M1081.69 390.679V398.005M1081.69 398.005V405.33M1081.69 398.005H1074.37M1081.69 398.005H1089.02M7.32524 97.6698V104.995M7.32524 104.995V112.32M7.32524 104.995H0M7.32524 104.995H14.6505M7.32524 293.01V300.335M7.32524 300.335V307.66M7.32524 300.335H0M7.32524 300.335H14.6505M7.32524 488.349V495.675M7.32524 495.675V503M7.32524 495.675H0M7.32524 495.675H14.6505M202.665 97.6698V104.995M202.665 104.995V112.32M202.665 104.995H195.34M202.665 104.995H209.99M202.665 293.01V300.335M202.665 300.335V307.66M202.665 300.335H195.34M202.665 300.335H209.99M202.665 488.349V495.675M202.665 495.675V503M202.665 495.675H195.34M202.665 495.675H209.99M398.005 97.6698V104.995M398.005 104.995V112.32M398.005 104.995H390.68M398.005 104.995H405.33M398.005 293.01V300.335M398.005 300.335V307.66M398.005 300.335H390.68M398.005 300.335H405.33M398.005 488.349V495.675M398.005 495.675V503M398.005 495.675H390.68M398.005 495.675H405.33M593.345 97.6698V104.995M593.345 104.995V112.32M593.345 104.995H586.019M593.345 104.995H600.67M593.345 293.01V300.335M593.345 300.335V307.66M593.345 300.335H586.019M593.345 300.335H600.67M593.345 488.349V495.675M593.345 495.675V503M593.345 495.675H586.019M593.345 495.675H600.67M788.684 97.6698V104.995M788.684 104.995V112.32M788.684 104.995H781.359M788.684 104.995H796.01M788.684 293.01V300.335M788.684 300.335V307.66M788.684 300.335H781.359M788.684 300.335H796.01M788.684 488.349V495.675M788.684 495.675V503M788.684 495.675H781.359M788.684 495.675H796.01M984.024 97.6698V104.995M984.024 104.995V112.32M984.024 104.995H976.699M984.024 104.995H991.349M984.024 293.01V300.335M984.024 300.335V307.66M984.024 300.335H976.699M984.024 300.335H991.349M984.024 488.349V495.675M984.024 495.675V503M984.024 495.675H976.699M984.024 495.675H991.349M7.32524 3.6011e-05V7.32528M7.32524 7.32528V14.6505M7.32524 7.32528H0M7.32524 7.32528H14.6505M7.32524 195.34V202.665M7.32524 202.665V209.99M7.32524 202.665H0M7.32524 202.665H14.6505M7.32524 390.679V398.005M7.32524 398.005V405.33M7.32524 398.005H0M7.32524 398.005H14.6505M202.665 0V7.32524M202.665 7.32524V14.6505M202.665 7.32524H195.34M202.665 7.32524H209.99M202.665 195.34V202.665M202.665 202.665V209.99M202.665 202.665H195.34M202.665 202.665H209.99M202.665 390.679V398.005M202.665 398.005V405.33M202.665 398.005H195.34M202.665 398.005H209.99M398.005 0V7.32524M398.005 7.32524V14.6505M398.005 7.32524H390.68M398.005 7.32524H405.33M398.005 195.34V202.665M398.005 202.665V209.99M398.005 202.665H390.68M398.005 202.665H405.33M398.005 390.679V398.005M398.005 398.005V405.33M398.005 398.005H390.68M398.005 398.005H405.33M593.345 0V7.32524M593.345 7.32524V14.6505M593.345 7.32524H586.019M593.345 7.32524H600.67M593.345 195.34V202.665M593.345 202.665V209.99M593.345 202.665H586.019M593.345 202.665H600.67M593.345 390.679V398.005M593.345 398.005V405.33M593.345 398.005H586.019M593.345 398.005H600.67M788.684 0V7.32524M788.684 7.32524V14.6505M788.684 7.32524H781.359M788.684 7.32524H796.01M788.684 195.34V202.665M788.684 202.665V209.99M788.684 202.665H781.359M788.684 202.665H796.01M788.684 390.679V398.005M788.684 398.005V405.33M788.684 398.005H781.359M788.684 398.005H796.01M984.024 0V7.32524M984.024 7.32524V14.6505M984.024 7.32524H976.699M984.024 7.32524H991.349M984.024 195.34V202.665M984.024 202.665V209.99M984.024 202.665H976.699M984.024 202.665H991.349M984.024 390.679V398.005M984.024 398.005V405.33M984.024 398.005H976.699M984.024 398.005H991.349" stroke="url(#paint0_radial_0_4)" stroke-opacity="0.6" stroke-width="0.610437"/>
</g>
<defs>
<radialGradient id="paint0_radial_0_4" cx="0" cy="0" r="1" gradientUnits="userSpaceOnUse" gradientTransform="translate(544.51 251.5) rotate(90) scale(251.5 544.51)">
<stop stop-color="white"/>
<stop offset="1" stop-color="white" stop-opacity="0"/>
</radialGradient>
</defs>
</svg>
