<svg preserveAspectRatio="none" width="100%" height="100%" overflow="visible" style="display: block;" viewBox="0 0 1379.14 637" fill="none" xmlns="http://www.w3.org/2000/svg">
<g id="Vector" opacity="0.8" style="mix-blend-mode:soft-light">
<path d="M132.966 123.689V132.966M132.966 132.966V142.243M132.966 132.966H123.689M132.966 132.966H142.243M132.966 371.068V380.345M132.966 380.345V389.621M132.966 380.345H123.689M132.966 380.345H142.243M132.966 618.446V627.723M132.966 627.723V637M132.966 627.723H123.689M132.966 627.723H142.243M380.345 123.689V132.966M380.345 132.966V142.243M380.345 132.966H371.068M380.345 132.966H389.621M380.345 371.068V380.345M380.345 380.345V389.621M380.345 380.345H371.068M380.345 380.345H389.621M380.345 618.446V627.723M380.345 627.723V637M380.345 627.723H371.068M380.345 627.723H389.621M627.723 123.689V132.966M627.723 132.966V142.243M627.723 132.966H618.447M627.723 132.966H637M627.723 371.068V380.345M627.723 380.345V389.621M627.723 380.345H618.447M627.723 380.345H637M627.723 618.446V627.723M627.723 627.723V637M627.723 627.723H618.447M627.723 627.723H637M875.102 123.689V132.966M875.102 132.966V142.243M875.102 132.966H865.825M875.102 132.966H884.379M875.102 371.068V380.345M875.102 380.345V389.621M875.102 380.345H865.825M875.102 380.345H884.379M875.102 618.446V627.723M875.102 627.723V637M875.102 627.723H865.825M875.102 627.723H884.379M1122.48 123.689V132.966M1122.48 132.966V142.243M1122.48 132.966H1113.2M1122.48 132.966H1131.76M1122.48 371.068V380.345M1122.48 380.345V389.621M1122.48 380.345H1113.2M1122.48 380.345H1131.76M1122.48 618.446V627.723M1122.48 627.723V637M1122.48 627.723H1113.2M1122.48 627.723H1131.76M1369.86 123.689V132.966M1369.86 132.966V142.243M1369.86 132.966H1360.58M1369.86 132.966H1379.14M1369.86 371.068V380.345M1369.86 380.345V389.621M1369.86 380.345H1360.58M1369.86 380.345H1379.14M1369.86 618.446V627.723M1369.86 627.723V637M1369.86 627.723H1360.58M1369.86 627.723H1379.14M132.966 0V9.2767M132.966 9.2767V18.5534M132.966 9.2767H123.689M132.966 9.2767H142.243M132.966 247.379V256.655M132.966 256.655V265.932M132.966 256.655H123.689M132.966 256.655H142.243M132.966 494.757V504.034M132.966 504.034V513.311M132.966 504.034H123.689M132.966 504.034H142.243M380.345 0V9.2767M380.345 9.2767V18.5534M380.345 9.2767H371.068M380.345 9.2767H389.621M380.345 247.379V256.655M380.345 256.655V265.932M380.345 256.655H371.068M380.345 256.655H389.621M380.345 494.757V504.034M380.345 504.034V513.311M380.345 504.034H371.068M380.345 504.034H389.621M627.723 0V9.2767M627.723 9.2767V18.5534M627.723 9.2767H618.447M627.723 9.2767H637M627.723 247.379V256.655M627.723 256.655V265.932M627.723 256.655H618.447M627.723 256.655H637M627.723 494.757V504.034M627.723 504.034V513.311M627.723 504.034H618.447M627.723 504.034H637M875.102 0V9.2767M875.102 9.2767V18.5534M875.102 9.2767H865.825M875.102 9.2767H884.379M875.102 247.379V256.655M875.102 256.655V265.932M875.102 256.655H865.825M875.102 256.655H884.379M875.102 494.757V504.034M875.102 504.034V513.311M875.102 504.034H865.825M875.102 504.034H884.379M1122.48 0V9.2767M1122.48 9.2767V18.5534M1122.48 9.2767H1113.2M1122.48 9.2767H1131.76M1122.48 247.379V256.655M1122.48 256.655V265.932M1122.48 256.655H1113.2M1122.48 256.655H1131.76M1122.48 494.757V504.034M1122.48 504.034V513.311M1122.48 504.034H1113.2M1122.48 504.034H1131.76M1369.86 0V9.2767M1369.86 9.2767V18.5534M1369.86 9.2767H1360.58M1369.86 9.2767H1379.14M1369.86 247.379V256.655M1369.86 256.655V265.932M1369.86 256.655H1360.58M1369.86 256.655H1379.14M1369.86 494.757V504.034M1369.86 504.034V513.311M1369.86 504.034H1360.58M1369.86 504.034H1379.14M9.2767 123.689V132.966M9.2767 132.966V142.243M9.2767 132.966H0M9.2767 132.966H18.5534M9.2767 371.068V380.345M9.2767 380.345V389.621M9.2767 380.345H0M9.2767 380.345H18.5534M9.2767 618.446V627.723M9.2767 627.723V637M9.2767 627.723H0M9.2767 627.723H18.5534M256.655 123.689V132.966M256.655 132.966V142.243M256.655 132.966H247.379M256.655 132.966H265.932M256.655 371.068V380.345M256.655 380.345V389.621M256.655 380.345H247.379M256.655 380.345H265.932M256.655 618.446V627.723M256.655 627.723V637M256.655 627.723H247.379M256.655 627.723H265.932M504.034 123.689V132.966M504.034 132.966V142.243M504.034 132.966H494.757M504.034 132.966H513.311M504.034 371.068V380.345M504.034 380.345V389.621M504.034 380.345H494.757M504.034 380.345H513.311M504.034 618.446V627.723M504.034 627.723V637M504.034 627.723H494.757M504.034 627.723H513.311M751.413 123.689V132.966M751.413 132.966V142.243M751.413 132.966H742.136M751.413 132.966H760.689M751.413 371.068V380.345M751.413 380.345V389.621M751.413 380.345H742.136M751.413 380.345H760.689M751.413 618.446V627.723M751.413 627.723V637M751.413 627.723H742.136M751.413 627.723H760.689M998.791 123.689V132.966M998.791 132.966V142.243M998.791 132.966H989.515M998.791 132.966H1008.07M998.791 371.068V380.345M998.791 380.345V389.621M998.791 380.345H989.515M998.791 380.345H1008.07M998.791 618.446V627.723M998.791 627.723V637M998.791 627.723H989.515M998.791 627.723H1008.07M1246.17 123.689V132.966M1246.17 132.966V142.243M1246.17 132.966H1236.89M1246.17 132.966H1255.45M1246.17 371.068V380.345M1246.17 380.345V389.621M1246.17 380.345H1236.89M1246.17 380.345H1255.45M1246.17 618.446V627.723M1246.17 627.723V637M1246.17 627.723H1236.89M1246.17 627.723H1255.45M9.2767 4.56043e-05V9.27675M9.2767 9.27675V18.5534M9.2767 9.27675H0M9.2767 9.27675H18.5534M9.2767 247.379V256.655M9.2767 256.655V265.932M9.2767 256.655H0M9.2767 256.655H18.5534M9.2767 494.757V504.034M9.2767 504.034V513.311M9.2767 504.034H0M9.2767 504.034H18.5534M256.655 0V9.2767M256.655 9.2767V18.5534M256.655 9.2767H247.379M256.655 9.2767H265.932M256.655 247.379V256.655M256.655 256.655V265.932M256.655 256.655H247.379M256.655 256.655H265.932M256.655 494.757V504.034M256.655 504.034V513.311M256.655 504.034H247.379M256.655 504.034H265.932M504.034 0V9.2767M504.034 9.2767V18.5534M504.034 9.2767H494.757M504.034 9.2767H513.311M504.034 247.379V256.655M504.034 256.655V265.932M504.034 256.655H494.757M504.034 256.655H513.311M504.034 494.757V504.034M504.034 504.034V513.311M504.034 504.034H494.757M504.034 504.034H513.311M751.413 0V9.2767M751.413 9.2767V18.5534M751.413 9.2767H742.136M751.413 9.2767H760.689M751.413 247.379V256.655M751.413 256.655V265.932M751.413 256.655H742.136M751.413 256.655H760.689M751.413 494.757V504.034M751.413 504.034V513.311M751.413 504.034H742.136M751.413 504.034H760.689M998.791 0V9.2767M998.791 9.2767V18.5534M998.791 9.2767H989.515M998.791 9.2767H1008.07M998.791 247.379V256.655M998.791 256.655V265.932M998.791 256.655H989.515M998.791 256.655H1008.07M998.791 494.757V504.034M998.791 504.034V513.311M998.791 504.034H989.515M998.791 504.034H1008.07M1246.17 0V9.2767M1246.17 9.2767V18.5534M1246.17 9.2767H1236.89M1246.17 9.2767H1255.45M1246.17 247.379V256.655M1246.17 256.655V265.932M1246.17 256.655H1236.89M1246.17 256.655H1255.45M1246.17 494.757V504.034M1246.17 504.034V513.311M1246.17 504.034H1236.89M1246.17 504.034H1255.45" stroke="url(#paint0_radial_0_84)" stroke-opacity="0.6" stroke-width="0.773058"/>
</g>
<defs>
<radialGradient id="paint0_radial_0_84" cx="0" cy="0" r="1" gradientUnits="userSpaceOnUse" gradientTransform="translate(689.568 318.5) rotate(90) scale(318.5 689.568)">
<stop stop-color="white"/>
<stop offset="1" stop-color="white" stop-opacity="0"/>
</radialGradient>
</defs>
</svg>
