<svg preserveAspectRatio="none" width="100%" height="100%" overflow="visible" style="display: block;" viewBox="0 0 786.24 357.504" fill="none" xmlns="http://www.w3.org/2000/svg">
<g id="Vector" opacity="0.7" style="mix-blend-mode:soft-light">
<path d="M17.9757 0.11165H0.11165V17.9757M17.9757 0.11165V17.9757M17.9757 0.11165H35.8397M17.9757 17.9757H0.11165M17.9757 17.9757V35.8397M17.9757 17.9757H35.8397M0.11165 17.9757V35.8397M17.9757 35.8397H0.11165M17.9757 35.8397V53.7037M17.9757 35.8397H35.8397M0.11165 35.8397V53.7037M17.9757 53.7037H0.11165M17.9757 53.7037V71.5677M17.9757 53.7037H35.8397M0.11165 53.7037V71.5677M17.9757 71.5677H0.11165M17.9757 71.5677V89.4317M17.9757 71.5677H35.8397M0.11165 71.5677V89.4317M17.9757 89.4317H0.11165M17.9757 89.4317V107.296M17.9757 89.4317H35.8397M0.11165 89.4317V107.296M17.9757 107.296H0.11165M17.9757 107.296V125.16M17.9757 107.296H35.8397M0.11165 107.296V125.16M17.9757 125.16H0.11165M17.9757 125.16V143.024M17.9757 125.16H35.8397M0.11165 125.16V143.024M17.9757 143.024H0.11165M17.9757 143.024V160.888M17.9757 143.024H35.8397M0.11165 143.024V160.888M17.9757 160.888H0.11165M17.9757 160.888V178.752M17.9757 160.888H35.8397M0.11165 160.888V178.752M17.9757 178.752H0.11165M17.9757 178.752V196.616M17.9757 178.752H35.8397M0.11165 178.752V196.616M17.9757 196.616H0.11165M17.9757 196.616V214.48M17.9757 196.616H35.8397M0.11165 196.616V214.48M17.9757 214.48H0.11165M17.9757 214.48V232.344M17.9757 214.48H35.8397M0.11165 214.48V232.344M17.9757 232.344H0.11165M17.9757 232.344V250.208M17.9757 232.344H35.8397M0.11165 232.344V250.208M17.9757 250.208H0.11165M17.9757 250.208V268.072M17.9757 250.208H35.8397M0.11165 250.208V268.072M17.9757 268.072H0.11165M17.9757 268.072V285.936M17.9757 268.072H35.8397M0.11165 268.072V285.936M17.9757 285.936H0.11165M17.9757 285.936V303.8M17.9757 285.936H35.8397M0.11165 285.936V303.8M17.9757 303.8H0.11165M17.9757 303.8V321.664M17.9757 303.8H35.8397M0.11165 303.8V321.664M17.9757 321.664H0.11165M17.9757 321.664V339.528M17.9757 321.664H35.8397M0.11165 321.664V339.528M17.9757 339.528H0.11165M17.9757 339.528V357.392M17.9757 339.528H35.8397M0.11165 339.528V357.392H17.9757M17.9757 357.392H35.8397M35.8397 0.11165V17.9757M35.8397 0.11165H53.7037M35.8397 17.9757V35.8397M35.8397 17.9757H53.7037M35.8397 35.8397V53.7037M35.8397 35.8397H53.7037M35.8397 53.7037V71.5677M35.8397 53.7037H53.7037M35.8397 71.5677V89.4317M35.8397 71.5677H53.7037M35.8397 89.4317V107.296M35.8397 89.4317H53.7037M35.8397 107.296V125.16M35.8397 107.296H53.7037M35.8397 125.16V143.024M35.8397 125.16H53.7037M35.8397 143.024V160.888M35.8397 143.024H53.7037M35.8397 160.888V178.752M35.8397 160.888H53.7037M35.8397 178.752V196.616M35.8397 178.752H53.7037M35.8397 196.616V214.48M35.8397 196.616H53.7037M35.8397 214.48V232.344M35.8397 214.48H53.7037M35.8397 232.344V250.208M35.8397 232.344H53.7037M35.8397 250.208V268.072M35.8397 250.208H53.7037M35.8397 268.072V285.936M35.8397 268.072H53.7037M35.8397 285.936V303.8M35.8397 285.936H53.7037M35.8397 303.8V321.664M35.8397 303.8H53.7037M35.8397 321.664V339.528M35.8397 321.664H53.7037M35.8397 339.528V357.392M35.8397 339.528H53.7037M35.8397 357.392H53.7037M53.7037 0.11165V17.9757M53.7037 0.11165H71.5677M53.7037 17.9757V35.8397M53.7037 17.9757H71.5677M53.7037 35.8397V53.7037M53.7037 35.8397H71.5677M53.7037 53.7037V71.5677M53.7037 53.7037H71.5677M53.7037 71.5677V89.4317M53.7037 71.5677H71.5677M53.7037 89.4317V107.296M53.7037 89.4317H71.5677M53.7037 107.296V125.16M53.7037 107.296H71.5677M53.7037 125.16V143.024M53.7037 125.16H71.5677M53.7037 143.024V160.888M53.7037 143.024H71.5677M53.7037 160.888V178.752M53.7037 160.888H71.5677M53.7037 178.752V196.616M53.7037 178.752H71.5677M53.7037 196.616V214.48M53.7037 196.616H71.5677M53.7037 214.48V232.344M53.7037 214.48H71.5677M53.7037 232.344V250.208M53.7037 232.344H71.5677M53.7037 250.208V268.072M53.7037 250.208H71.5677M53.7037 268.072V285.936M53.7037 268.072H71.5677M53.7037 285.936V303.8M53.7037 285.936H71.5677M53.7037 303.8V321.664M53.7037 303.8H71.5677M53.7037 321.664V339.528M53.7037 321.664H71.5677M53.7037 339.528V357.392M53.7037 339.528H71.5677M53.7037 357.392H71.5677M71.5677 0.11165V17.9757M71.5677 0.11165H89.4317M71.5677 17.9757V35.8397M71.5677 17.9757H89.4317M71.5677 35.8397V53.7037M71.5677 35.8397H89.4317M71.5677 53.7037V71.5677M71.5677 53.7037H89.4317M71.5677 71.5677V89.4317M71.5677 71.5677H89.4317M71.5677 89.4317V107.296M71.5677 89.4317H89.4317M71.5677 107.296V125.16M71.5677 107.296H89.4317M71.5677 125.16V143.024M71.5677 125.16H89.4317M71.5677 143.024V160.888M71.5677 143.024H89.4317M71.5677 160.888V178.752M71.5677 160.888H89.4317M71.5677 178.752V196.616M71.5677 178.752H89.4317M71.5677 196.616V214.48M71.5677 196.616H89.4317M71.5677 214.48V232.344M71.5677 214.48H89.4317M71.5677 232.344V250.208M71.5677 232.344H89.4317M71.5677 250.208V268.072M71.5677 250.208H89.4317M71.5677 268.072V285.936M71.5677 268.072H89.4317M71.5677 285.936V303.8M71.5677 285.936H89.4317M71.5677 303.8V321.664M71.5677 303.8H89.4317M71.5677 321.664V339.528M71.5677 321.664H89.4317M71.5677 339.528V357.392M71.5677 339.528H89.4317M71.5677 357.392H89.4317M89.4317 0.11165V17.9757M89.4317 0.11165H107.296M89.4317 17.9757V35.8397M89.4317 17.9757H107.296M89.4317 35.8397V53.7037M89.4317 35.8397H107.296M89.4317 53.7037V71.5677M89.4317 53.7037H107.296M89.4317 71.5677V89.4317M89.4317 71.5677H107.296M89.4317 89.4317V107.296M89.4317 89.4317H107.296M89.4317 107.296V125.16M89.4317 107.296H107.296M89.4317 125.16V143.024M89.4317 125.16H107.296M89.4317 143.024V160.888M89.4317 143.024H107.296M89.4317 160.888V178.752M89.4317 160.888H107.296M89.4317 178.752V196.616M89.4317 178.752H107.296M89.4317 196.616V214.48M89.4317 196.616H107.296M89.4317 214.48V232.344M89.4317 214.48H107.296M89.4317 232.344V250.208M89.4317 232.344H107.296M89.4317 250.208V268.072M89.4317 250.208H107.296M89.4317 268.072V285.936M89.4317 268.072H107.296M89.4317 285.936V303.8M89.4317 285.936H107.296M89.4317 303.8V321.664M89.4317 303.8H107.296M89.4317 321.664V339.528M89.4317 321.664H107.296M89.4317 339.528V357.392M89.4317 339.528H107.296M89.4317 357.392H107.296M107.296 0.11165V17.9757M107.296 0.11165H125.16M107.296 17.9757V35.8397M107.296 17.9757H125.16M107.296 35.8397V53.7037M107.296 35.8397H125.16M107.296 53.7037V71.5677M107.296 53.7037H125.16M107.296 71.5677V89.4317M107.296 71.5677H125.16M107.296 89.4317V107.296M107.296 89.4317H125.16M107.296 107.296V125.16M107.296 107.296H125.16M107.296 125.16V143.024M107.296 125.16H125.16M107.296 143.024V160.888M107.296 143.024H125.16M107.296 160.888V178.752M107.296 160.888H125.16M107.296 178.752V196.616M107.296 178.752H125.16M107.296 196.616V214.48M107.296 196.616H125.16M107.296 214.48V232.344M107.296 214.48H125.16M107.296 232.344V250.208M107.296 232.344H125.16M107.296 250.208V268.072M107.296 250.208H125.16M107.296 268.072V285.936M107.296 268.072H125.16M107.296 285.936V303.8M107.296 285.936H125.16M107.296 303.8V321.664M107.296 303.8H125.16M107.296 321.664V339.528M107.296 321.664H125.16M107.296 339.528V357.392M107.296 339.528H125.16M107.296 357.392H125.16M125.16 0.11165V17.9757M125.16 0.11165H143.024M125.16 17.9757V35.8397M125.16 17.9757H143.024M125.16 35.8397V53.7037M125.16 35.8397H143.024M125.16 53.7037V71.5677M125.16 53.7037H143.024M125.16 71.5677V89.4317M125.16 71.5677H143.024M125.16 89.4317V107.296M125.16 89.4317H143.024M125.16 107.296V125.16M125.16 107.296H143.024M125.16 125.16V143.024M125.16 125.16H143.024M125.16 143.024V160.888M125.16 143.024H143.024M125.16 160.888V178.752M125.16 160.888H143.024M125.16 178.752V196.616M125.16 178.752H143.024M125.16 196.616V214.48M125.16 196.616H143.024M125.16 214.48V232.344M125.16 214.48H143.024M125.16 232.344V250.208M125.16 232.344H143.024M125.16 250.208V268.072M125.16 250.208H143.024M125.16 268.072V285.936M125.16 268.072H143.024M125.16 285.936V303.8M125.16 285.936H143.024M125.16 303.8V321.664M125.16 303.8H143.024M125.16 321.664V339.528M125.16 321.664H143.024M125.16 339.528V357.392M125.16 339.528H143.024M125.16 357.392H143.024M143.024 0.11165V17.9757M143.024 0.11165H160.888M143.024 17.9757V35.8397M143.024 17.9757H160.888M143.024 35.8397V53.7037M143.024 35.8397H160.888M143.024 53.7037V71.5677M143.024 53.7037H160.888M143.024 71.5677V89.4317M143.024 71.5677H160.888M143.024 89.4317V107.296M143.024 89.4317H160.888M143.024 107.296V125.16M143.024 107.296H160.888M143.024 125.16V143.024M143.024 125.16H160.888M143.024 143.024V160.888M143.024 143.024H160.888M143.024 160.888V178.752M143.024 160.888H160.888M143.024 178.752V196.616M143.024 178.752H160.888M143.024 196.616V214.48M143.024 196.616H160.888M143.024 214.48V232.344M143.024 214.48H160.888M143.024 232.344V250.208M143.024 232.344H160.888M143.024 250.208V268.072M143.024 250.208H160.888M143.024 268.072V285.936M143.024 268.072H160.888M143.024 285.936V303.8M143.024 285.936H160.888M143.024 303.8V321.664M143.024 303.8H160.888M143.024 321.664V339.528M143.024 321.664H160.888M143.024 339.528V357.392M143.024 339.528H160.888M143.024 357.392H160.888M160.888 0.11165V17.9757M160.888 0.11165H178.752M160.888 17.9757V35.8397M160.888 17.9757H178.752M160.888 35.8397V53.7037M160.888 35.8397H178.752M160.888 53.7037V71.5677M160.888 53.7037H178.752M160.888 71.5677V89.4317M160.888 71.5677H178.752M160.888 89.4317V107.296M160.888 89.4317H178.752M160.888 107.296V125.16M160.888 107.296H178.752M160.888 125.16V143.024M160.888 125.16H178.752M160.888 143.024V160.888M160.888 143.024H178.752M160.888 160.888V178.752M160.888 160.888H178.752M160.888 178.752V196.616M160.888 178.752H178.752M160.888 196.616V214.48M160.888 196.616H178.752M160.888 214.48V232.344M160.888 214.48H178.752M160.888 232.344V250.208M160.888 232.344H178.752M160.888 250.208V268.072M160.888 250.208H178.752M160.888 268.072V285.936M160.888 268.072H178.752M160.888 285.936V303.8M160.888 285.936H178.752M160.888 303.8V321.664M160.888 303.8H178.752M160.888 321.664V339.528M160.888 321.664H178.752M160.888 339.528V357.392M160.888 339.528H178.752M160.888 357.392H178.752M178.752 0.11165V17.9757M178.752 0.11165H196.616M178.752 17.9757V35.8397M178.752 17.9757H196.616M178.752 35.8397V53.7037M178.752 35.8397H196.616M178.752 53.7037V71.5677M178.752 53.7037H196.616M178.752 71.5677V89.4317M178.752 71.5677H196.616M178.752 89.4317V107.296M178.752 89.4317H196.616M178.752 107.296V125.16M178.752 107.296H196.616M178.752 125.16V143.024M178.752 125.16H196.616M178.752 143.024V160.888M178.752 143.024H196.616M178.752 160.888V178.752M178.752 160.888H196.616M178.752 178.752V196.616M178.752 178.752H196.616M178.752 196.616V214.48M178.752 196.616H196.616M178.752 214.48V232.344M178.752 214.48H196.616M178.752 232.344V250.208M178.752 232.344H196.616M178.752 250.208V268.072M178.752 250.208H196.616M178.752 268.072V285.936M178.752 268.072H196.616M178.752 285.936V303.8M178.752 285.936H196.616M178.752 303.8V321.664M178.752 303.8H196.616M178.752 321.664V339.528M178.752 321.664H196.616M178.752 339.528V357.392M178.752 339.528H196.616M178.752 357.392H196.616M196.616 0.11165V17.9757M196.616 0.11165H214.48M196.616 17.9757V35.8397M196.616 17.9757H214.48M196.616 35.8397V53.7037M196.616 35.8397H214.48M196.616 53.7037V71.5677M196.616 53.7037H214.48M196.616 71.5677V89.4317M196.616 71.5677H214.48M196.616 89.4317V107.296M196.616 89.4317H214.48M196.616 107.296V125.16M196.616 107.296H214.48M196.616 125.16V143.024M196.616 125.16H214.48M196.616 143.024V160.888M196.616 143.024H214.48M196.616 160.888V178.752M196.616 160.888H214.48M196.616 178.752V196.616M196.616 178.752H214.48M196.616 196.616V214.48M196.616 196.616H214.48M196.616 214.48V232.344M196.616 214.48H214.48M196.616 232.344V250.208M196.616 232.344H214.48M196.616 250.208V268.072M196.616 250.208H214.48M196.616 268.072V285.936M196.616 268.072H214.48M196.616 285.936V303.8M196.616 285.936H214.48M196.616 303.8V321.664M196.616 303.8H214.48M196.616 321.664V339.528M196.616 321.664H214.48M196.616 339.528V357.392M196.616 339.528H214.48M196.616 357.392H214.48M214.48 0.11165V17.9757M214.48 0.11165H232.344M214.48 17.9757V35.8397M214.48 17.9757H232.344M214.48 35.8397V53.7037M214.48 35.8397H232.344M214.48 53.7037V71.5677M214.48 53.7037H232.344M214.48 71.5677V89.4317M214.48 71.5677H232.344M214.48 89.4317V107.296M214.48 89.4317H232.344M214.48 107.296V125.16M214.48 107.296H232.344M214.48 125.16V143.024M214.48 125.16H232.344M214.48 143.024V160.888M214.48 143.024H232.344M214.48 160.888V178.752M214.48 160.888H232.344M214.48 178.752V196.616M214.48 178.752H232.344M214.48 196.616V214.48M214.48 196.616H232.344M214.48 214.48V232.344M214.48 214.48H232.344M214.48 232.344V250.208M214.48 232.344H232.344M214.48 250.208V268.072M214.48 250.208H232.344M214.48 268.072V285.936M214.48 268.072H232.344M214.48 285.936V303.8M214.48 285.936H232.344M214.48 303.8V321.664M214.48 303.8H232.344M214.48 321.664V339.528M214.48 321.664H232.344M214.48 339.528V357.392M214.48 339.528H232.344M214.48 357.392H232.344M232.344 0.11165V17.9757M232.344 0.11165H250.208M232.344 17.9757V35.8397M232.344 17.9757H250.208M232.344 35.8397V53.7037M232.344 35.8397H250.208M232.344 53.7037V71.5677M232.344 53.7037H250.208M232.344 71.5677V89.4317M232.344 71.5677H250.208M232.344 89.4317V107.296M232.344 89.4317H250.208M232.344 107.296V125.16M232.344 107.296H250.208M232.344 125.16V143.024M232.344 125.16H250.208M232.344 143.024V160.888M232.344 143.024H250.208M232.344 160.888V178.752M232.344 160.888H250.208M232.344 178.752V196.616M232.344 178.752H250.208M232.344 196.616V214.48M232.344 196.616H250.208M232.344 214.48V232.344M232.344 214.48H250.208M232.344 232.344V250.208M232.344 232.344H250.208M232.344 250.208V268.072M232.344 250.208H250.208M232.344 268.072V285.936M232.344 268.072H250.208M232.344 285.936V303.8M232.344 285.936H250.208M232.344 303.8V321.664M232.344 303.8H250.208M232.344 321.664V339.528M232.344 321.664H250.208M232.344 339.528V357.392M232.344 339.528H250.208M232.344 357.392H250.208M250.208 0.11165V17.9757M250.208 0.11165H268.072M250.208 17.9757V35.8397M250.208 17.9757H268.072M250.208 35.8397V53.7037M250.208 35.8397H268.072M250.208 53.7037V71.5677M250.208 53.7037H268.072M250.208 71.5677V89.4317M250.208 71.5677H268.072M250.208 89.4317V107.296M250.208 89.4317H268.072M250.208 107.296V125.16M250.208 107.296H268.072M250.208 125.16V143.024M250.208 125.16H268.072M250.208 143.024V160.888M250.208 143.024H268.072M250.208 160.888V178.752M250.208 160.888H268.072M250.208 178.752V196.616M250.208 178.752H268.072M250.208 196.616V214.48M250.208 196.616H268.072M250.208 214.48V232.344M250.208 214.48H268.072M250.208 232.344V250.208M250.208 232.344H268.072M250.208 250.208V268.072M250.208 250.208H268.072M250.208 268.072V285.936M250.208 268.072H268.072M250.208 285.936V303.8M250.208 285.936H268.072M250.208 303.8V321.664M250.208 303.8H268.072M250.208 321.664V339.528M250.208 321.664H268.072M250.208 339.528V357.392M250.208 339.528H268.072M250.208 357.392H268.072M268.072 0.11165V17.9757M268.072 0.11165H285.936M268.072 17.9757V35.8397M268.072 17.9757H285.936M268.072 35.8397V53.7037M268.072 35.8397H285.936M268.072 53.7037V71.5677M268.072 53.7037H285.936M268.072 71.5677V89.4317M268.072 71.5677H285.936M268.072 89.4317V107.296M268.072 89.4317H285.936M268.072 107.296V125.16M268.072 107.296H285.936M268.072 125.16V143.024M268.072 125.16H285.936M268.072 143.024V160.888M268.072 143.024H285.936M268.072 160.888V178.752M268.072 160.888H285.936M268.072 178.752V196.616M268.072 178.752H285.936M268.072 196.616V214.48M268.072 196.616H285.936M268.072 214.48V232.344M268.072 214.48H285.936M268.072 232.344V250.208M268.072 232.344H285.936M268.072 250.208V268.072M268.072 250.208H285.936M268.072 268.072V285.936M268.072 268.072H285.936M268.072 285.936V303.8M268.072 285.936H285.936M268.072 303.8V321.664M268.072 303.8H285.936M268.072 321.664V339.528M268.072 321.664H285.936M268.072 339.528V357.392M268.072 339.528H285.936M268.072 357.392H285.936M285.936 0.11165V17.9757M285.936 0.11165H303.8M285.936 17.9757V35.8397M285.936 17.9757H303.8M285.936 35.8397V53.7037M285.936 35.8397H303.8M285.936 53.7037V71.5677M285.936 53.7037H303.8M285.936 71.5677V89.4317M285.936 71.5677H303.8M285.936 89.4317V107.296M285.936 89.4317H303.8M285.936 107.296V125.16M285.936 107.296H303.8M285.936 125.16V143.024M285.936 125.16H303.8M285.936 143.024V160.888M285.936 143.024H303.8M285.936 160.888V178.752M285.936 160.888H303.8M285.936 178.752V196.616M285.936 178.752H303.8M285.936 196.616V214.48M285.936 196.616H303.8M285.936 214.48V232.344M285.936 214.48H303.8M285.936 232.344V250.208M285.936 232.344H303.8M285.936 250.208V268.072M285.936 250.208H303.8M285.936 268.072V285.936M285.936 268.072H303.8M285.936 285.936V303.8M285.936 285.936H303.8M285.936 303.8V321.664M285.936 303.8H303.8M285.936 321.664V339.528M285.936 321.664H303.8M285.936 339.528V357.392M285.936 339.528H303.8M285.936 357.392H303.8M303.8 0.11165V17.9757M303.8 0.11165H321.664M303.8 17.9757V35.8397M303.8 17.9757H321.664M303.8 35.8397V53.7037M303.8 35.8397H321.664M303.8 53.7037V71.5677M303.8 53.7037H321.664M303.8 71.5677V89.4317M303.8 71.5677H321.664M303.8 89.4317V107.296M303.8 89.4317H321.664M303.8 107.296V125.16M303.8 107.296H321.664M303.8 125.16V143.024M303.8 125.16H321.664M303.8 143.024V160.888M303.8 143.024H321.664M303.8 160.888V178.752M303.8 160.888H321.664M303.8 178.752V196.616M303.8 178.752H321.664M303.8 196.616V214.48M303.8 196.616H321.664M303.8 214.48V232.344M303.8 214.48H321.664M303.8 232.344V250.208M303.8 232.344H321.664M303.8 250.208V268.072M303.8 250.208H321.664M303.8 268.072V285.936M303.8 268.072H321.664M303.8 285.936V303.8M303.8 285.936H321.664M303.8 303.8V321.664M303.8 303.8H321.664M303.8 321.664V339.528M303.8 321.664H321.664M303.8 339.528V357.392M303.8 339.528H321.664M303.8 357.392H321.664M321.664 0.11165V17.9757M321.664 0.11165H339.528M321.664 17.9757V35.8397M321.664 17.9757H339.528M321.664 35.8397V53.7037M321.664 35.8397H339.528M321.664 53.7037V71.5677M321.664 53.7037H339.528M321.664 71.5677V89.4317M321.664 71.5677H339.528M321.664 89.4317V107.296M321.664 89.4317H339.528M321.664 107.296V125.16M321.664 107.296H339.528M321.664 125.16V143.024M321.664 125.16H339.528M321.664 143.024V160.888M321.664 143.024H339.528M321.664 160.888V178.752M321.664 160.888H339.528M321.664 178.752V196.616M321.664 178.752H339.528M321.664 196.616V214.48M321.664 196.616H339.528M321.664 214.48V232.344M321.664 214.48H339.528M321.664 232.344V250.208M321.664 232.344H339.528M321.664 250.208V268.072M321.664 250.208H339.528M321.664 268.072V285.936M321.664 268.072H339.528M321.664 285.936V303.8M321.664 285.936H339.528M321.664 303.8V321.664M321.664 303.8H339.528M321.664 321.664V339.528M321.664 321.664H339.528M321.664 339.528V357.392M321.664 339.528H339.528M321.664 357.392H339.528M339.528 0.11165V17.9757M339.528 0.11165H357.392M339.528 17.9757V35.8397M339.528 17.9757H357.392M339.528 35.8397V53.7037M339.528 35.8397H357.392M339.528 53.7037V71.5677M339.528 53.7037H357.392M339.528 71.5677V89.4317M339.528 71.5677H357.392M339.528 89.4317V107.296M339.528 89.4317H357.392M339.528 107.296V125.16M339.528 107.296H357.392M339.528 125.16V143.024M339.528 125.16H357.392M339.528 143.024V160.888M339.528 143.024H357.392M339.528 160.888V178.752M339.528 160.888H357.392M339.528 178.752V196.616M339.528 178.752H357.392M339.528 196.616V214.48M339.528 196.616H357.392M339.528 214.48V232.344M339.528 214.48H357.392M339.528 232.344V250.208M339.528 232.344H357.392M339.528 250.208V268.072M339.528 250.208H357.392M339.528 268.072V285.936M339.528 268.072H357.392M339.528 285.936V303.8M339.528 285.936H357.392M339.528 303.8V321.664M339.528 303.8H357.392M339.528 321.664V339.528M339.528 321.664H357.392M339.528 339.528V357.392M339.528 339.528H357.392M339.528 357.392H357.392M357.392 0.11165V17.9757M357.392 0.11165H375.256M357.392 17.9757V35.8397M357.392 17.9757H375.256M357.392 35.8397V53.7037M357.392 35.8397H375.256M357.392 53.7037V71.5677M357.392 53.7037H375.256M357.392 71.5677V89.4317M357.392 71.5677H375.256M357.392 89.4317V107.296M357.392 89.4317H375.256M357.392 107.296V125.16M357.392 107.296H375.256M357.392 125.16V143.024M357.392 125.16H375.256M357.392 143.024V160.888M357.392 143.024H375.256M357.392 160.888V178.752M357.392 160.888H375.256M357.392 178.752V196.616M357.392 178.752H375.256M357.392 196.616V214.48M357.392 196.616H375.256M357.392 214.48V232.344M357.392 214.48H375.256M357.392 232.344V250.208M357.392 232.344H375.256M357.392 250.208V268.072M357.392 250.208H375.256M357.392 268.072V285.936M357.392 268.072H375.256M357.392 285.936V303.8M357.392 285.936H375.256M357.392 303.8V321.664M357.392 303.8H375.256M357.392 321.664V339.528M357.392 321.664H375.256M357.392 339.528V357.392M357.392 339.528H375.256M357.392 357.392H375.256M375.256 0.11165V17.9757M375.256 0.11165H393.12M375.256 17.9757V35.8397M375.256 17.9757H393.12M375.256 35.8397V53.7037M375.256 35.8397H393.12M375.256 53.7037V71.5677M375.256 53.7037H393.12M375.256 71.5677V89.4317M375.256 71.5677H393.12M375.256 89.4317V107.296M375.256 89.4317H393.12M375.256 107.296V125.16M375.256 107.296H393.12M375.256 125.16V143.024M375.256 125.16H393.12M375.256 143.024V160.888M375.256 143.024H393.12M375.256 160.888V178.752M375.256 160.888H393.12M375.256 178.752V196.616M375.256 178.752H393.12M375.256 196.616V214.48M375.256 196.616H393.12M375.256 214.48V232.344M375.256 214.48H393.12M375.256 232.344V250.208M375.256 232.344H393.12M375.256 250.208V268.072M375.256 250.208H393.12M375.256 268.072V285.936M375.256 268.072H393.12M375.256 285.936V303.8M375.256 285.936H393.12M375.256 303.8V321.664M375.256 303.8H393.12M375.256 321.664V339.528M375.256 321.664H393.12M375.256 339.528V357.392M375.256 339.528H393.12M375.256 357.392H393.12M393.12 0.11165V17.9757M393.12 0.11165H410.984M393.12 17.9757V35.8397M393.12 17.9757H410.984M393.12 35.8397V53.7037M393.12 35.8397H410.984M393.12 53.7037V71.5677M393.12 53.7037H410.984M393.12 71.5677V89.4317M393.12 71.5677H410.984M393.12 89.4317V107.296M393.12 89.4317H410.984M393.12 107.296V125.16M393.12 107.296H410.984M393.12 125.16V143.024M393.12 125.16H410.984M393.12 143.024V160.888M393.12 143.024H410.984M393.12 160.888V178.752M393.12 160.888H410.984M393.12 178.752V196.616M393.12 178.752H410.984M393.12 196.616V214.48M393.12 196.616H410.984M393.12 214.48V232.344M393.12 214.48H410.984M393.12 232.344V250.208M393.12 232.344H410.984M393.12 250.208V268.072M393.12 250.208H410.984M393.12 268.072V285.936M393.12 268.072H410.984M393.12 285.936V303.8M393.12 285.936H410.984M393.12 303.8V321.664M393.12 303.8H410.984M393.12 321.664V339.528M393.12 321.664H410.984M393.12 339.528V357.392M393.12 339.528H410.984M393.12 357.392H410.984M410.984 0.11165V17.9757M410.984 0.11165H428.848M410.984 17.9757V35.8397M410.984 17.9757H428.848M410.984 35.8397V53.7037M410.984 35.8397H428.848M410.984 53.7037V71.5677M410.984 53.7037H428.848M410.984 71.5677V89.4317M410.984 71.5677H428.848M410.984 89.4317V107.296M410.984 89.4317H428.848M410.984 107.296V125.16M410.984 107.296H428.848M410.984 125.16V143.024M410.984 125.16H428.848M410.984 143.024V160.888M410.984 143.024H428.848M410.984 160.888V178.752M410.984 160.888H428.848M410.984 178.752V196.616M410.984 178.752H428.848M410.984 196.616V214.48M410.984 196.616H428.848M410.984 214.48V232.344M410.984 214.48H428.848M410.984 232.344V250.208M410.984 232.344H428.848M410.984 250.208V268.072M410.984 250.208H428.848M410.984 268.072V285.936M410.984 268.072H428.848M410.984 285.936V303.8M410.984 285.936H428.848M410.984 303.8V321.664M410.984 303.8H428.848M410.984 321.664V339.528M410.984 321.664H428.848M410.984 339.528V357.392M410.984 339.528H428.848M410.984 357.392H428.848M428.848 0.11165V17.9757M428.848 0.11165H446.712M428.848 17.9757V35.8397M428.848 17.9757H446.712M428.848 35.8397V53.7037M428.848 35.8397H446.712M428.848 53.7037V71.5677M428.848 53.7037H446.712M428.848 71.5677V89.4317M428.848 71.5677H446.712M428.848 89.4317V107.296M428.848 89.4317H446.712M428.848 107.296V125.16M428.848 107.296H446.712M428.848 125.16V143.024M428.848 125.16H446.712M428.848 143.024V160.888M428.848 143.024H446.712M428.848 160.888V178.752M428.848 160.888H446.712M428.848 178.752V196.616M428.848 178.752H446.712M428.848 196.616V214.48M428.848 196.616H446.712M428.848 214.48V232.344M428.848 214.48H446.712M428.848 232.344V250.208M428.848 232.344H446.712M428.848 250.208V268.072M428.848 250.208H446.712M428.848 268.072V285.936M428.848 268.072H446.712M428.848 285.936V303.8M428.848 285.936H446.712M428.848 303.8V321.664M428.848 303.8H446.712M428.848 321.664V339.528M428.848 321.664H446.712M428.848 339.528V357.392M428.848 339.528H446.712M428.848 357.392H446.712M446.712 0.11165V17.9757M446.712 0.11165H464.576M446.712 17.9757V35.8397M446.712 17.9757H464.576M446.712 35.8397V53.7037M446.712 35.8397H464.576M446.712 53.7037V71.5677M446.712 53.7037H464.576M446.712 71.5677V89.4317M446.712 71.5677H464.576M446.712 89.4317V107.296M446.712 89.4317H464.576M446.712 107.296V125.16M446.712 107.296H464.576M446.712 125.16V143.024M446.712 125.16H464.576M446.712 143.024V160.888M446.712 143.024H464.576M446.712 160.888V178.752M446.712 160.888H464.576M446.712 178.752V196.616M446.712 178.752H464.576M446.712 196.616V214.48M446.712 196.616H464.576M446.712 214.48V232.344M446.712 214.48H464.576M446.712 232.344V250.208M446.712 232.344H464.576M446.712 250.208V268.072M446.712 250.208H464.576M446.712 268.072V285.936M446.712 268.072H464.576M446.712 285.936V303.8M446.712 285.936H464.576M446.712 303.8V321.664M446.712 303.8H464.576M446.712 321.664V339.528M446.712 321.664H464.576M446.712 339.528V357.392M446.712 339.528H464.576M446.712 357.392H464.576M464.576 0.11165V17.9757M464.576 0.11165H482.44M464.576 17.9757V35.8397M464.576 17.9757H482.44M464.576 35.8397V53.7037M464.576 35.8397H482.44M464.576 53.7037V71.5677M464.576 53.7037H482.44M464.576 71.5677V89.4317M464.576 71.5677H482.44M464.576 89.4317V107.296M464.576 89.4317H482.44M464.576 107.296V125.16M464.576 107.296H482.44M464.576 125.16V143.024M464.576 125.16H482.44M464.576 143.024V160.888M464.576 143.024H482.44M464.576 160.888V178.752M464.576 160.888H482.44M464.576 178.752V196.616M464.576 178.752H482.44M464.576 196.616V214.48M464.576 196.616H482.44M464.576 214.48V232.344M464.576 214.48H482.44M464.576 232.344V250.208M464.576 232.344H482.44M464.576 250.208V268.072M464.576 250.208H482.44M464.576 268.072V285.936M464.576 268.072H482.44M464.576 285.936V303.8M464.576 285.936H482.44M464.576 303.8V321.664M464.576 303.8H482.44M464.576 321.664V339.528M464.576 321.664H482.44M464.576 339.528V357.392M464.576 339.528H482.44M464.576 357.392H482.44M482.44 0.11165V17.9757M482.44 0.11165H500.304M482.44 17.9757V35.8397M482.44 17.9757H500.304M482.44 35.8397V53.7037M482.44 35.8397H500.304M482.44 53.7037V71.5677M482.44 53.7037H500.304M482.44 71.5677V89.4317M482.44 71.5677H500.304M482.44 89.4317V107.296M482.44 89.4317H500.304M482.44 107.296V125.16M482.44 107.296H500.304M482.44 125.16V143.024M482.44 125.16H500.304M482.44 143.024V160.888M482.44 143.024H500.304M482.44 160.888V178.752M482.44 160.888H500.304M482.44 178.752V196.616M482.44 178.752H500.304M482.44 196.616V214.48M482.44 196.616H500.304M482.44 214.48V232.344M482.44 214.48H500.304M482.44 232.344V250.208M482.44 232.344H500.304M482.44 250.208V268.072M482.44 250.208H500.304M482.44 268.072V285.936M482.44 268.072H500.304M482.44 285.936V303.8M482.44 285.936H500.304M482.44 303.8V321.664M482.44 303.8H500.304M482.44 321.664V339.528M482.44 321.664H500.304M482.44 339.528V357.392M482.44 339.528H500.304M482.44 357.392H500.304M500.304 0.11165V17.9757M500.304 0.11165H518.168M500.304 17.9757V35.8397M500.304 17.9757H518.168M500.304 35.8397V53.7037M500.304 35.8397H518.168M500.304 53.7037V71.5677M500.304 53.7037H518.168M500.304 71.5677V89.4317M500.304 71.5677H518.168M500.304 89.4317V107.296M500.304 89.4317H518.168M500.304 107.296V125.16M500.304 107.296H518.168M500.304 125.16V143.024M500.304 125.16H518.168M500.304 143.024V160.888M500.304 143.024H518.168M500.304 160.888V178.752M500.304 160.888H518.168M500.304 178.752V196.616M500.304 178.752H518.168M500.304 196.616V214.48M500.304 196.616H518.168M500.304 214.48V232.344M500.304 214.48H518.168M500.304 232.344V250.208M500.304 232.344H518.168M500.304 250.208V268.072M500.304 250.208H518.168M500.304 268.072V285.936M500.304 268.072H518.168M500.304 285.936V303.8M500.304 285.936H518.168M500.304 303.8V321.664M500.304 303.8H518.168M500.304 321.664V339.528M500.304 321.664H518.168M500.304 339.528V357.392M500.304 339.528H518.168M500.304 357.392H518.168M518.168 0.11165V17.9757M518.168 0.11165H536.032M518.168 17.9757V35.8397M518.168 17.9757H536.032M518.168 35.8397V53.7037M518.168 35.8397H536.032M518.168 53.7037V71.5677M518.168 53.7037H536.032M518.168 71.5677V89.4317M518.168 71.5677H536.032M518.168 89.4317V107.296M518.168 89.4317H536.032M518.168 107.296V125.16M518.168 107.296H536.032M518.168 125.16V143.024M518.168 125.16H536.032M518.168 143.024V160.888M518.168 143.024H536.032M518.168 160.888V178.752M518.168 160.888H536.032M518.168 178.752V196.616M518.168 178.752H536.032M518.168 196.616V214.48M518.168 196.616H536.032M518.168 214.48V232.344M518.168 214.48H536.032M518.168 232.344V250.208M518.168 232.344H536.032M518.168 250.208V268.072M518.168 250.208H536.032M518.168 268.072V285.936M518.168 268.072H536.032M518.168 285.936V303.8M518.168 285.936H536.032M518.168 303.8V321.664M518.168 303.8H536.032M518.168 321.664V339.528M518.168 321.664H536.032M518.168 339.528V357.392M518.168 339.528H536.032M518.168 357.392H536.032M536.032 0.11165V17.9757M536.032 0.11165H553.896M536.032 17.9757V35.8397M536.032 17.9757H553.896M536.032 35.8397V53.7037M536.032 35.8397H553.896M536.032 53.7037V71.5677M536.032 53.7037H553.896M536.032 71.5677V89.4317M536.032 71.5677H553.896M536.032 89.4317V107.296M536.032 89.4317H553.896M536.032 107.296V125.16M536.032 107.296H553.896M536.032 125.16V143.024M536.032 125.16H553.896M536.032 143.024V160.888M536.032 143.024H553.896M536.032 160.888V178.752M536.032 160.888H553.896M536.032 178.752V196.616M536.032 178.752H553.896M536.032 196.616V214.48M536.032 196.616H553.896M536.032 214.48V232.344M536.032 214.48H553.896M536.032 232.344V250.208M536.032 232.344H553.896M536.032 250.208V268.072M536.032 250.208H553.896M536.032 268.072V285.936M536.032 268.072H553.896M536.032 285.936V303.8M536.032 285.936H553.896M536.032 303.8V321.664M536.032 303.8H553.896M536.032 321.664V339.528M536.032 321.664H553.896M536.032 339.528V357.392M536.032 339.528H553.896M536.032 357.392H553.896M553.896 0.11165V17.9757M553.896 0.11165H571.76M553.896 17.9757V35.8397M553.896 17.9757H571.76M553.896 35.8397V53.7037M553.896 35.8397H571.76M553.896 53.7037V71.5677M553.896 53.7037H571.76M553.896 71.5677V89.4317M553.896 71.5677H571.76M553.896 89.4317V107.296M553.896 89.4317H571.76M553.896 107.296V125.16M553.896 107.296H571.76M553.896 125.16V143.024M553.896 125.16H571.76M553.896 143.024V160.888M553.896 143.024H571.76M553.896 160.888V178.752M553.896 160.888H571.76M553.896 178.752V196.616M553.896 178.752H571.76M553.896 196.616V214.48M553.896 196.616H571.76M553.896 214.48V232.344M553.896 214.48H571.76M553.896 232.344V250.208M553.896 232.344H571.76M553.896 250.208V268.072M553.896 250.208H571.76M553.896 268.072V285.936M553.896 268.072H571.76M553.896 285.936V303.8M553.896 285.936H571.76M553.896 303.8V321.664M553.896 303.8H571.76M553.896 321.664V339.528M553.896 321.664H571.76M553.896 339.528V357.392M553.896 339.528H571.76M553.896 357.392H571.76M571.76 0.11165V17.9757M571.76 0.11165H589.624M571.76 17.9757V35.8397M571.76 17.9757H589.624M571.76 35.8397V53.7037M571.76 35.8397H589.624M571.76 53.7037V71.5677M571.76 53.7037H589.624M571.76 71.5677V89.4317M571.76 71.5677H589.624M571.76 89.4317V107.296M571.76 89.4317H589.624M571.76 107.296V125.16M571.76 107.296H589.624M571.76 125.16V143.024M571.76 125.16H589.624M571.76 143.024V160.888M571.76 143.024H589.624M571.76 160.888V178.752M571.76 160.888H589.624M571.76 178.752V196.616M571.76 178.752H589.624M571.76 196.616V214.48M571.76 196.616H589.624M571.76 214.48V232.344M571.76 214.48H589.624M571.76 232.344V250.208M571.76 232.344H589.624M571.76 250.208V268.072M571.76 250.208H589.624M571.76 268.072V285.936M571.76 268.072H589.624M571.76 285.936V303.8M571.76 285.936H589.624M571.76 303.8V321.664M571.76 303.8H589.624M571.76 321.664V339.528M571.76 321.664H589.624M571.76 339.528V357.392M571.76 339.528H589.624M571.76 357.392H589.624M589.624 0.11165V17.9757M589.624 0.11165H607.488M589.624 17.9757V35.8397M589.624 17.9757H607.488M589.624 35.8397V53.7037M589.624 35.8397H607.488M589.624 53.7037V71.5677M589.624 53.7037H607.488M589.624 71.5677V89.4317M589.624 71.5677H607.488M589.624 89.4317V107.296M589.624 89.4317H607.488M589.624 107.296V125.16M589.624 107.296H607.488M589.624 125.16V143.024M589.624 125.16H607.488M589.624 143.024V160.888M589.624 143.024H607.488M589.624 160.888V178.752M589.624 160.888H607.488M589.624 178.752V196.616M589.624 178.752H607.488M589.624 196.616V214.48M589.624 196.616H607.488M589.624 214.48V232.344M589.624 214.48H607.488M589.624 232.344V250.208M589.624 232.344H607.488M589.624 250.208V268.072M589.624 250.208H607.488M589.624 268.072V285.936M589.624 268.072H607.488M589.624 285.936V303.8M589.624 285.936H607.488M589.624 303.8V321.664M589.624 303.8H607.488M589.624 321.664V339.528M589.624 321.664H607.488M589.624 339.528V357.392M589.624 339.528H607.488M589.624 357.392H607.488M607.488 0.11165V17.9757M607.488 0.11165H625.352M607.488 17.9757V35.8397M607.488 17.9757H625.352M607.488 35.8397V53.7037M607.488 35.8397H625.352M607.488 53.7037V71.5677M607.488 53.7037H625.352M607.488 71.5677V89.4317M607.488 71.5677H625.352M607.488 89.4317V107.296M607.488 89.4317H625.352M607.488 107.296V125.16M607.488 107.296H625.352M607.488 125.16V143.024M607.488 125.16H625.352M607.488 143.024V160.888M607.488 143.024H625.352M607.488 160.888V178.752M607.488 160.888H625.352M607.488 178.752V196.616M607.488 178.752H625.352M607.488 196.616V214.48M607.488 196.616H625.352M607.488 214.48V232.344M607.488 214.48H625.352M607.488 232.344V250.208M607.488 232.344H625.352M607.488 250.208V268.072M607.488 250.208H625.352M607.488 268.072V285.936M607.488 268.072H625.352M607.488 285.936V303.8M607.488 285.936H625.352M607.488 303.8V321.664M607.488 303.8H625.352M607.488 321.664V339.528M607.488 321.664H625.352M607.488 339.528V357.392M607.488 339.528H625.352M607.488 357.392H625.352M625.352 0.11165V17.9757M625.352 0.11165H643.216M625.352 17.9757V35.8397M625.352 17.9757H643.216M625.352 35.8397V53.7037M625.352 35.8397H643.216M625.352 53.7037V71.5677M625.352 53.7037H643.216M625.352 71.5677V89.4317M625.352 71.5677H643.216M625.352 89.4317V107.296M625.352 89.4317H643.216M625.352 107.296V125.16M625.352 107.296H643.216M625.352 125.16V143.024M625.352 125.16H643.216M625.352 143.024V160.888M625.352 143.024H643.216M625.352 160.888V178.752M625.352 160.888H643.216M625.352 178.752V196.616M625.352 178.752H643.216M625.352 196.616V214.48M625.352 196.616H643.216M625.352 214.48V232.344M625.352 214.48H643.216M625.352 232.344V250.208M625.352 232.344H643.216M625.352 250.208V268.072M625.352 250.208H643.216M625.352 268.072V285.936M625.352 268.072H643.216M625.352 285.936V303.8M625.352 285.936H643.216M625.352 303.8V321.664M625.352 303.8H643.216M625.352 321.664V339.528M625.352 321.664H643.216M625.352 339.528V357.392M625.352 339.528H643.216M625.352 357.392H643.216M643.216 0.11165V17.9757M643.216 0.11165H661.08M643.216 17.9757V35.8397M643.216 17.9757H661.08M643.216 35.8397V53.7037M643.216 35.8397H661.08M643.216 53.7037V71.5677M643.216 53.7037H661.08M643.216 71.5677V89.4317M643.216 71.5677H661.08M643.216 89.4317V107.296M643.216 89.4317H661.08M643.216 107.296V125.16M643.216 107.296H661.08M643.216 125.16V143.024M643.216 125.16H661.08M643.216 143.024V160.888M643.216 143.024H661.08M643.216 160.888V178.752M643.216 160.888H661.08M643.216 178.752V196.616M643.216 178.752H661.08M643.216 196.616V214.48M643.216 196.616H661.08M643.216 214.48V232.344M643.216 214.48H661.08M643.216 232.344V250.208M643.216 232.344H661.08M643.216 250.208V268.072M643.216 250.208H661.08M643.216 268.072V285.936M643.216 268.072H661.08M643.216 285.936V303.8M643.216 285.936H661.08M643.216 303.8V321.664M643.216 303.8H661.08M643.216 321.664V339.528M643.216 321.664H661.08M643.216 339.528V357.392M643.216 339.528H661.08M643.216 357.392H661.08M661.08 0.11165V17.9757M661.08 0.11165H678.944M661.08 17.9757V35.8397M661.08 17.9757H678.944M661.08 35.8397V53.7037M661.08 35.8397H678.944M661.08 53.7037V71.5677M661.08 53.7037H678.944M661.08 71.5677V89.4317M661.08 71.5677H678.944M661.08 89.4317V107.296M661.08 89.4317H678.944M661.08 107.296V125.16M661.08 107.296H678.944M661.08 125.16V143.024M661.08 125.16H678.944M661.08 143.024V160.888M661.08 143.024H678.944M661.08 160.888V178.752M661.08 160.888H678.944M661.08 178.752V196.616M661.08 178.752H678.944M661.08 196.616V214.48M661.08 196.616H678.944M661.08 214.48V232.344M661.08 214.48H678.944M661.08 232.344V250.208M661.08 232.344H678.944M661.08 250.208V268.072M661.08 250.208H678.944M661.08 268.072V285.936M661.08 268.072H678.944M661.08 285.936V303.8M661.08 285.936H678.944M661.08 303.8V321.664M661.08 303.8H678.944M661.08 321.664V339.528M661.08 321.664H678.944M661.08 339.528V357.392M661.08 339.528H678.944M661.08 357.392H678.944M678.944 0.11165V17.9757M678.944 0.11165H696.808M678.944 17.9757V35.8397M678.944 17.9757H696.808M678.944 35.8397V53.7037M678.944 35.8397H696.808M678.944 53.7037V71.5677M678.944 53.7037H696.808M678.944 71.5677V89.4317M678.944 71.5677H696.808M678.944 89.4317V107.296M678.944 89.4317H696.808M678.944 107.296V125.16M678.944 107.296H696.808M678.944 125.16V143.024M678.944 125.16H696.808M678.944 143.024V160.888M678.944 143.024H696.808M678.944 160.888V178.752M678.944 160.888H696.808M678.944 178.752V196.616M678.944 178.752H696.808M678.944 196.616V214.48M678.944 196.616H696.808M678.944 214.48V232.344M678.944 214.48H696.808M678.944 232.344V250.208M678.944 232.344H696.808M678.944 250.208V268.072M678.944 250.208H696.808M678.944 268.072V285.936M678.944 268.072H696.808M678.944 285.936V303.8M678.944 285.936H696.808M678.944 303.8V321.664M678.944 303.8H696.808M678.944 321.664V339.528M678.944 321.664H696.808M678.944 339.528V357.392M678.944 339.528H696.808M678.944 357.392H696.808M696.808 0.11165V17.9757M696.808 0.11165H714.672M696.808 17.9757V35.8397M696.808 17.9757H714.672M696.808 35.8397V53.7037M696.808 35.8397H714.672M696.808 53.7037V71.5677M696.808 53.7037H714.672M696.808 71.5677V89.4317M696.808 71.5677H714.672M696.808 89.4317V107.296M696.808 89.4317H714.672M696.808 107.296V125.16M696.808 107.296H714.672M696.808 125.16V143.024M696.808 125.16H714.672M696.808 143.024V160.888M696.808 143.024H714.672M696.808 160.888V178.752M696.808 160.888H714.672M696.808 178.752V196.616M696.808 178.752H714.672M696.808 196.616V214.48M696.808 196.616H714.672M696.808 214.48V232.344M696.808 214.48H714.672M696.808 232.344V250.208M696.808 232.344H714.672M696.808 250.208V268.072M696.808 250.208H714.672M696.808 268.072V285.936M696.808 268.072H714.672M696.808 285.936V303.8M696.808 285.936H714.672M696.808 303.8V321.664M696.808 303.8H714.672M696.808 321.664V339.528M696.808 321.664H714.672M696.808 339.528V357.392M696.808 339.528H714.672M696.808 357.392H714.672M714.672 0.11165V17.9757M714.672 0.11165H732.536M714.672 17.9757V35.8397M714.672 17.9757H732.536M714.672 35.8397V53.7037M714.672 35.8397H732.536M714.672 53.7037V71.5677M714.672 53.7037H732.536M714.672 71.5677V89.4317M714.672 71.5677H732.536M714.672 89.4317V107.296M714.672 89.4317H732.536M714.672 107.296V125.16M714.672 107.296H732.536M714.672 125.16V143.024M714.672 125.16H732.536M714.672 143.024V160.888M714.672 143.024H732.536M714.672 160.888V178.752M714.672 160.888H732.536M714.672 178.752V196.616M714.672 178.752H732.536M714.672 196.616V214.48M714.672 196.616H732.536M714.672 214.48V232.344M714.672 214.48H732.536M714.672 232.344V250.208M714.672 232.344H732.536M714.672 250.208V268.072M714.672 250.208H732.536M714.672 268.072V285.936M714.672 268.072H732.536M714.672 285.936V303.8M714.672 285.936H732.536M714.672 303.8V321.664M714.672 303.8H732.536M714.672 321.664V339.528M714.672 321.664H732.536M714.672 339.528V357.392M714.672 339.528H732.536M714.672 357.392H732.536M732.536 0.11165V17.9757M732.536 0.11165H750.4M732.536 17.9757V35.8397M732.536 17.9757H750.4M732.536 35.8397V53.7037M732.536 35.8397H750.4M732.536 53.7037V71.5677M732.536 53.7037H750.4M732.536 71.5677V89.4317M732.536 71.5677H750.4M732.536 89.4317V107.296M732.536 89.4317H750.4M732.536 107.296V125.16M732.536 107.296H750.4M732.536 125.16V143.024M732.536 125.16H750.4M732.536 143.024V160.888M732.536 143.024H750.4M732.536 160.888V178.752M732.536 160.888H750.4M732.536 178.752V196.616M732.536 178.752H750.4M732.536 196.616V214.48M732.536 196.616H750.4M732.536 214.48V232.344M732.536 214.48H750.4M732.536 232.344V250.208M732.536 232.344H750.4M732.536 250.208V268.072M732.536 250.208H750.4M732.536 268.072V285.936M732.536 268.072H750.4M732.536 285.936V303.8M732.536 285.936H750.4M732.536 303.8V321.664M732.536 303.8H750.4M732.536 321.664V339.528M732.536 321.664H750.4M732.536 339.528V357.392M732.536 339.528H750.4M732.536 357.392H750.4M750.4 0.11165V17.9757M750.4 0.11165H768.264M750.4 17.9757V35.8397M750.4 17.9757H768.264M750.4 35.8397V53.7037M750.4 35.8397H768.264M750.4 53.7037V71.5677M750.4 53.7037H768.264M750.4 71.5677V89.4317M750.4 71.5677H768.264M750.4 89.4317V107.296M750.4 89.4317H768.264M750.4 107.296V125.16M750.4 107.296H768.264M750.4 125.16V143.024M750.4 125.16H768.264M750.4 143.024V160.888M750.4 143.024H768.264M750.4 160.888V178.752M750.4 160.888H768.264M750.4 178.752V196.616M750.4 178.752H768.264M750.4 196.616V214.48M750.4 196.616H768.264M750.4 214.48V232.344M750.4 214.48H768.264M750.4 232.344V250.208M750.4 232.344H768.264M750.4 250.208V268.072M750.4 250.208H768.264M750.4 268.072V285.936M750.4 268.072H768.264M750.4 285.936V303.8M750.4 285.936H768.264M750.4 303.8V321.664M750.4 303.8H768.264M750.4 321.664V339.528M750.4 321.664H768.264M750.4 339.528V357.392M750.4 339.528H768.264M750.4 357.392H768.264M768.264 0.11165V17.9757M768.264 0.11165H786.128V17.9757M768.264 17.9757V35.8397M768.264 17.9757H786.128M768.264 35.8397V53.7037M768.264 35.8397H786.128M768.264 53.7037V71.5677M768.264 53.7037H786.128M768.264 71.5677V89.4317M768.264 71.5677H786.128M768.264 89.4317V107.296M768.264 89.4317H786.128M768.264 107.296V125.16M768.264 107.296H786.128M768.264 125.16V143.024M768.264 125.16H786.128M768.264 143.024V160.888M768.264 143.024H786.128M768.264 160.888V178.752M768.264 160.888H786.128M768.264 178.752V196.616M768.264 178.752H786.128M768.264 196.616V214.48M768.264 196.616H786.128M768.264 214.48V232.344M768.264 214.48H786.128M768.264 232.344V250.208M768.264 232.344H786.128M768.264 250.208V268.072M768.264 250.208H786.128M768.264 268.072V285.936M768.264 268.072H786.128M768.264 285.936V303.8M768.264 285.936H786.128M768.264 303.8V321.664M768.264 303.8H786.128M768.264 321.664V339.528M768.264 321.664H786.128M768.264 339.528V357.392M768.264 339.528H786.128M768.264 357.392H786.128V339.528M786.128 17.9757V35.8397M786.128 35.8397V53.7037M786.128 53.7037V71.5677M786.128 71.5677V89.4317M786.128 89.4317V107.296M786.128 107.296V125.16M786.128 125.16V143.024M786.128 143.024V160.888M786.128 160.888V178.752M786.128 178.752V196.616M786.128 196.616V214.48M786.128 214.48V232.344M786.128 232.344V250.208M786.128 250.208V268.072M786.128 268.072V285.936M786.128 285.936V303.8M786.128 303.8V321.664M786.128 321.664V339.528" stroke="url(#paint0_radial_30597_1527)" stroke-opacity="0.6" stroke-width="0.2233"/>
</g>
<defs>
<radialGradient id="paint0_radial_30597_1527" cx="0" cy="0" r="1" gradientUnits="userSpaceOnUse" gradientTransform="translate(393.12 178.752) rotate(90) scale(178.64 393.008)">
<stop stop-color="white"/>
<stop offset="1" stop-color="white" stop-opacity="0"/>
</radialGradient>
</defs>
</svg>
