<svg preserveAspectRatio="none" width="100%" height="100%" overflow="visible" style="display: block;" viewBox="0 0 1360.97 618.833" fill="none" xmlns="http://www.w3.org/2000/svg">
<g id="Vector" opacity="0.7" style="mix-blend-mode:soft-light">
<path d="M31.1156 0.193265H0.193265V31.1156M31.1156 0.193265V31.1156M31.1156 0.193265H62.0379M31.1156 31.1156H0.193265M31.1156 31.1156V62.0379M31.1156 31.1156H62.0379M0.193265 31.1156V62.0379M31.1156 62.0379H0.193265M31.1156 62.0379V92.9603M31.1156 62.0379H62.0379M0.193265 62.0379V92.9603M31.1156 92.9603H0.193265M31.1156 92.9603V123.883M31.1156 92.9603H62.0379M0.193265 92.9603V123.883M31.1156 123.883H0.193265M31.1156 123.883V154.805M31.1156 123.883H62.0379M0.193265 123.883V154.805M31.1156 154.805H0.193265M31.1156 154.805V185.727M31.1156 154.805H62.0379M0.193265 154.805V185.727M31.1156 185.727H0.193265M31.1156 185.727V216.65M31.1156 185.727H62.0379M0.193265 185.727V216.65M31.1156 216.65H0.193265M31.1156 216.65V247.572M31.1156 216.65H62.0379M0.193265 216.65V247.572M31.1156 247.572H0.193265M31.1156 247.572V278.494M31.1156 247.572H62.0379M0.193265 247.572V278.494M31.1156 278.494H0.193265M31.1156 278.494V309.417M31.1156 278.494H62.0379M0.193265 278.494V309.417M31.1156 309.417H0.193265M31.1156 309.417V340.339M31.1156 309.417H62.0379M0.193265 309.417V340.339M31.1156 340.339H0.193265M31.1156 340.339V371.261M31.1156 340.339H62.0379M0.193265 340.339V371.261M31.1156 371.261H0.193265M31.1156 371.261V402.184M31.1156 371.261H62.0379M0.193265 371.261V402.184M31.1156 402.184H0.193265M31.1156 402.184V433.106M31.1156 402.184H62.0379M0.193265 402.184V433.106M31.1156 433.106H0.193265M31.1156 433.106V464.028M31.1156 433.106H62.0379M0.193265 433.106V464.028M31.1156 464.028H0.193265M31.1156 464.028V494.951M31.1156 464.028H62.0379M0.193265 464.028V494.951M31.1156 494.951H0.193265M31.1156 494.951V525.873M31.1156 494.951H62.0379M0.193265 494.951V525.873M31.1156 525.873H0.193265M31.1156 525.873V556.795M31.1156 525.873H62.0379M0.193265 525.873V556.795M31.1156 556.795H0.193265M31.1156 556.795V587.718M31.1156 556.795H62.0379M0.193265 556.795V587.718M31.1156 587.718H0.193265M31.1156 587.718V618.64M31.1156 587.718H62.0379M0.193265 587.718V618.64H31.1156M31.1156 618.64H62.0379M62.0379 0.193265V31.1156M62.0379 0.193265H92.9603M62.0379 31.1156V62.0379M62.0379 31.1156H92.9603M62.0379 62.0379V92.9603M62.0379 62.0379H92.9603M62.0379 92.9603V123.883M62.0379 92.9603H92.9603M62.0379 123.883V154.805M62.0379 123.883H92.9603M62.0379 154.805V185.727M62.0379 154.805H92.9603M62.0379 185.727V216.65M62.0379 185.727H92.9603M62.0379 216.65V247.572M62.0379 216.65H92.9603M62.0379 247.572V278.494M62.0379 247.572H92.9603M62.0379 278.494V309.417M62.0379 278.494H92.9603M62.0379 309.417V340.339M62.0379 309.417H92.9603M62.0379 340.339V371.261M62.0379 340.339H92.9603M62.0379 371.261V402.184M62.0379 371.261H92.9603M62.0379 402.184V433.106M62.0379 402.184H92.9603M62.0379 433.106V464.028M62.0379 433.106H92.9603M62.0379 464.028V494.951M62.0379 464.028H92.9603M62.0379 494.951V525.873M62.0379 494.951H92.9603M62.0379 525.873V556.795M62.0379 525.873H92.9603M62.0379 556.795V587.718M62.0379 556.795H92.9603M62.0379 587.718V618.64M62.0379 587.718H92.9603M62.0379 618.64H92.9603M92.9603 0.193265V31.1156M92.9603 0.193265H123.883M92.9603 31.1156V62.0379M92.9603 31.1156H123.883M92.9603 62.0379V92.9603M92.9603 62.0379H123.883M92.9603 92.9603V123.883M92.9603 92.9603H123.883M92.9603 123.883V154.805M92.9603 123.883H123.883M92.9603 154.805V185.727M92.9603 154.805H123.883M92.9603 185.727V216.65M92.9603 185.727H123.883M92.9603 216.65V247.572M92.9603 216.65H123.883M92.9603 247.572V278.494M92.9603 247.572H123.883M92.9603 278.494V309.417M92.9603 278.494H123.883M92.9603 309.417V340.339M92.9603 309.417H123.883M92.9603 340.339V371.261M92.9603 340.339H123.883M92.9603 371.261V402.184M92.9603 371.261H123.883M92.9603 402.184V433.106M92.9603 402.184H123.883M92.9603 433.106V464.028M92.9603 433.106H123.883M92.9603 464.028V494.951M92.9603 464.028H123.883M92.9603 494.951V525.873M92.9603 494.951H123.883M92.9603 525.873V556.795M92.9603 525.873H123.883M92.9603 556.795V587.718M92.9603 556.795H123.883M92.9603 587.718V618.64M92.9603 587.718H123.883M92.9603 618.64H123.883M123.883 0.193265V31.1156M123.883 0.193265H154.805M123.883 31.1156V62.0379M123.883 31.1156H154.805M123.883 62.0379V92.9603M123.883 62.0379H154.805M123.883 92.9603V123.883M123.883 92.9603H154.805M123.883 123.883V154.805M123.883 123.883H154.805M123.883 154.805V185.727M123.883 154.805H154.805M123.883 185.727V216.65M123.883 185.727H154.805M123.883 216.65V247.572M123.883 216.65H154.805M123.883 247.572V278.494M123.883 247.572H154.805M123.883 278.494V309.417M123.883 278.494H154.805M123.883 309.417V340.339M123.883 309.417H154.805M123.883 340.339V371.261M123.883 340.339H154.805M123.883 371.261V402.184M123.883 371.261H154.805M123.883 402.184V433.106M123.883 402.184H154.805M123.883 433.106V464.028M123.883 433.106H154.805M123.883 464.028V494.951M123.883 464.028H154.805M123.883 494.951V525.873M123.883 494.951H154.805M123.883 525.873V556.795M123.883 525.873H154.805M123.883 556.795V587.718M123.883 556.795H154.805M123.883 587.718V618.64M123.883 587.718H154.805M123.883 618.64H154.805M154.805 0.193265V31.1156M154.805 0.193265H185.727M154.805 31.1156V62.0379M154.805 31.1156H185.727M154.805 62.0379V92.9603M154.805 62.0379H185.727M154.805 92.9603V123.883M154.805 92.9603H185.727M154.805 123.883V154.805M154.805 123.883H185.727M154.805 154.805V185.727M154.805 154.805H185.727M154.805 185.727V216.65M154.805 185.727H185.727M154.805 216.65V247.572M154.805 216.65H185.727M154.805 247.572V278.494M154.805 247.572H185.727M154.805 278.494V309.417M154.805 278.494H185.727M154.805 309.417V340.339M154.805 309.417H185.727M154.805 340.339V371.261M154.805 340.339H185.727M154.805 371.261V402.184M154.805 371.261H185.727M154.805 402.184V433.106M154.805 402.184H185.727M154.805 433.106V464.028M154.805 433.106H185.727M154.805 464.028V494.951M154.805 464.028H185.727M154.805 494.951V525.873M154.805 494.951H185.727M154.805 525.873V556.795M154.805 525.873H185.727M154.805 556.795V587.718M154.805 556.795H185.727M154.805 587.718V618.64M154.805 587.718H185.727M154.805 618.64H185.727M185.727 0.193265V31.1156M185.727 0.193265H216.65M185.727 31.1156V62.0379M185.727 31.1156H216.65M185.727 62.0379V92.9603M185.727 62.0379H216.65M185.727 92.9603V123.883M185.727 92.9603H216.65M185.727 123.883V154.805M185.727 123.883H216.65M185.727 154.805V185.727M185.727 154.805H216.65M185.727 185.727V216.65M185.727 185.727H216.65M185.727 216.65V247.572M185.727 216.65H216.65M185.727 247.572V278.494M185.727 247.572H216.65M185.727 278.494V309.417M185.727 278.494H216.65M185.727 309.417V340.339M185.727 309.417H216.65M185.727 340.339V371.261M185.727 340.339H216.65M185.727 371.261V402.184M185.727 371.261H216.65M185.727 402.184V433.106M185.727 402.184H216.65M185.727 433.106V464.028M185.727 433.106H216.65M185.727 464.028V494.951M185.727 464.028H216.65M185.727 494.951V525.873M185.727 494.951H216.65M185.727 525.873V556.795M185.727 525.873H216.65M185.727 556.795V587.718M185.727 556.795H216.65M185.727 587.718V618.64M185.727 587.718H216.65M185.727 618.64H216.65M216.65 0.193265V31.1156M216.65 0.193265H247.572M216.65 31.1156V62.0379M216.65 31.1156H247.572M216.65 62.0379V92.9603M216.65 62.0379H247.572M216.65 92.9603V123.883M216.65 92.9603H247.572M216.65 123.883V154.805M216.65 123.883H247.572M216.65 154.805V185.727M216.65 154.805H247.572M216.65 185.727V216.65M216.65 185.727H247.572M216.65 216.65V247.572M216.65 216.65H247.572M216.65 247.572V278.494M216.65 247.572H247.572M216.65 278.494V309.417M216.65 278.494H247.572M216.65 309.417V340.339M216.65 309.417H247.572M216.65 340.339V371.261M216.65 340.339H247.572M216.65 371.261V402.184M216.65 371.261H247.572M216.65 402.184V433.106M216.65 402.184H247.572M216.65 433.106V464.028M216.65 433.106H247.572M216.65 464.028V494.951M216.65 464.028H247.572M216.65 494.951V525.873M216.65 494.951H247.572M216.65 525.873V556.795M216.65 525.873H247.572M216.65 556.795V587.718M216.65 556.795H247.572M216.65 587.718V618.64M216.65 587.718H247.572M216.65 618.64H247.572M247.572 0.193265V31.1156M247.572 0.193265H278.494M247.572 31.1156V62.0379M247.572 31.1156H278.494M247.572 62.0379V92.9603M247.572 62.0379H278.494M247.572 92.9603V123.883M247.572 92.9603H278.494M247.572 123.883V154.805M247.572 123.883H278.494M247.572 154.805V185.727M247.572 154.805H278.494M247.572 185.727V216.65M247.572 185.727H278.494M247.572 216.65V247.572M247.572 216.65H278.494M247.572 247.572V278.494M247.572 247.572H278.494M247.572 278.494V309.417M247.572 278.494H278.494M247.572 309.417V340.339M247.572 309.417H278.494M247.572 340.339V371.261M247.572 340.339H278.494M247.572 371.261V402.184M247.572 371.261H278.494M247.572 402.184V433.106M247.572 402.184H278.494M247.572 433.106V464.028M247.572 433.106H278.494M247.572 464.028V494.951M247.572 464.028H278.494M247.572 494.951V525.873M247.572 494.951H278.494M247.572 525.873V556.795M247.572 525.873H278.494M247.572 556.795V587.718M247.572 556.795H278.494M247.572 587.718V618.64M247.572 587.718H278.494M247.572 618.64H278.494M278.494 0.193265V31.1156M278.494 0.193265H309.417M278.494 31.1156V62.0379M278.494 31.1156H309.417M278.494 62.0379V92.9603M278.494 62.0379H309.417M278.494 92.9603V123.883M278.494 92.9603H309.417M278.494 123.883V154.805M278.494 123.883H309.417M278.494 154.805V185.727M278.494 154.805H309.417M278.494 185.727V216.65M278.494 185.727H309.417M278.494 216.65V247.572M278.494 216.65H309.417M278.494 247.572V278.494M278.494 247.572H309.417M278.494 278.494V309.417M278.494 278.494H309.417M278.494 309.417V340.339M278.494 309.417H309.417M278.494 340.339V371.261M278.494 340.339H309.417M278.494 371.261V402.184M278.494 371.261H309.417M278.494 402.184V433.106M278.494 402.184H309.417M278.494 433.106V464.028M278.494 433.106H309.417M278.494 464.028V494.951M278.494 464.028H309.417M278.494 494.951V525.873M278.494 494.951H309.417M278.494 525.873V556.795M278.494 525.873H309.417M278.494 556.795V587.718M278.494 556.795H309.417M278.494 587.718V618.64M278.494 587.718H309.417M278.494 618.64H309.417M309.417 0.193265V31.1156M309.417 0.193265H340.339M309.417 31.1156V62.0379M309.417 31.1156H340.339M309.417 62.0379V92.9603M309.417 62.0379H340.339M309.417 92.9603V123.883M309.417 92.9603H340.339M309.417 123.883V154.805M309.417 123.883H340.339M309.417 154.805V185.727M309.417 154.805H340.339M309.417 185.727V216.65M309.417 185.727H340.339M309.417 216.65V247.572M309.417 216.65H340.339M309.417 247.572V278.494M309.417 247.572H340.339M309.417 278.494V309.417M309.417 278.494H340.339M309.417 309.417V340.339M309.417 309.417H340.339M309.417 340.339V371.261M309.417 340.339H340.339M309.417 371.261V402.184M309.417 371.261H340.339M309.417 402.184V433.106M309.417 402.184H340.339M309.417 433.106V464.028M309.417 433.106H340.339M309.417 464.028V494.951M309.417 464.028H340.339M309.417 494.951V525.873M309.417 494.951H340.339M309.417 525.873V556.795M309.417 525.873H340.339M309.417 556.795V587.718M309.417 556.795H340.339M309.417 587.718V618.64M309.417 587.718H340.339M309.417 618.64H340.339M340.339 0.193265V31.1156M340.339 0.193265H371.261M340.339 31.1156V62.0379M340.339 31.1156H371.261M340.339 62.0379V92.9603M340.339 62.0379H371.261M340.339 92.9603V123.883M340.339 92.9603H371.261M340.339 123.883V154.805M340.339 123.883H371.261M340.339 154.805V185.727M340.339 154.805H371.261M340.339 185.727V216.65M340.339 185.727H371.261M340.339 216.65V247.572M340.339 216.65H371.261M340.339 247.572V278.494M340.339 247.572H371.261M340.339 278.494V309.417M340.339 278.494H371.261M340.339 309.417V340.339M340.339 309.417H371.261M340.339 340.339V371.261M340.339 340.339H371.261M340.339 371.261V402.184M340.339 371.261H371.261M340.339 402.184V433.106M340.339 402.184H371.261M340.339 433.106V464.028M340.339 433.106H371.261M340.339 464.028V494.951M340.339 464.028H371.261M340.339 494.951V525.873M340.339 494.951H371.261M340.339 525.873V556.795M340.339 525.873H371.261M340.339 556.795V587.718M340.339 556.795H371.261M340.339 587.718V618.64M340.339 587.718H371.261M340.339 618.64H371.261M371.261 0.193265V31.1156M371.261 0.193265H402.184M371.261 31.1156V62.0379M371.261 31.1156H402.184M371.261 62.0379V92.9603M371.261 62.0379H402.184M371.261 92.9603V123.883M371.261 92.9603H402.184M371.261 123.883V154.805M371.261 123.883H402.184M371.261 154.805V185.727M371.261 154.805H402.184M371.261 185.727V216.65M371.261 185.727H402.184M371.261 216.65V247.572M371.261 216.65H402.184M371.261 247.572V278.494M371.261 247.572H402.184M371.261 278.494V309.417M371.261 278.494H402.184M371.261 309.417V340.339M371.261 309.417H402.184M371.261 340.339V371.261M371.261 340.339H402.184M371.261 371.261V402.184M371.261 371.261H402.184M371.261 402.184V433.106M371.261 402.184H402.184M371.261 433.106V464.028M371.261 433.106H402.184M371.261 464.028V494.951M371.261 464.028H402.184M371.261 494.951V525.873M371.261 494.951H402.184M371.261 525.873V556.795M371.261 525.873H402.184M371.261 556.795V587.718M371.261 556.795H402.184M371.261 587.718V618.64M371.261 587.718H402.184M371.261 618.64H402.184M402.184 0.193265V31.1156M402.184 0.193265H433.106M402.184 31.1156V62.0379M402.184 31.1156H433.106M402.184 62.0379V92.9603M402.184 62.0379H433.106M402.184 92.9603V123.883M402.184 92.9603H433.106M402.184 123.883V154.805M402.184 123.883H433.106M402.184 154.805V185.727M402.184 154.805H433.106M402.184 185.727V216.65M402.184 185.727H433.106M402.184 216.65V247.572M402.184 216.65H433.106M402.184 247.572V278.494M402.184 247.572H433.106M402.184 278.494V309.417M402.184 278.494H433.106M402.184 309.417V340.339M402.184 309.417H433.106M402.184 340.339V371.261M402.184 340.339H433.106M402.184 371.261V402.184M402.184 371.261H433.106M402.184 402.184V433.106M402.184 402.184H433.106M402.184 433.106V464.028M402.184 433.106H433.106M402.184 464.028V494.951M402.184 464.028H433.106M402.184 494.951V525.873M402.184 494.951H433.106M402.184 525.873V556.795M402.184 525.873H433.106M402.184 556.795V587.718M402.184 556.795H433.106M402.184 587.718V618.64M402.184 587.718H433.106M402.184 618.64H433.106M433.106 0.193265V31.1156M433.106 0.193265H464.028M433.106 31.1156V62.0379M433.106 31.1156H464.028M433.106 62.0379V92.9603M433.106 62.0379H464.028M433.106 92.9603V123.883M433.106 92.9603H464.028M433.106 123.883V154.805M433.106 123.883H464.028M433.106 154.805V185.727M433.106 154.805H464.028M433.106 185.727V216.65M433.106 185.727H464.028M433.106 216.65V247.572M433.106 216.65H464.028M433.106 247.572V278.494M433.106 247.572H464.028M433.106 278.494V309.417M433.106 278.494H464.028M433.106 309.417V340.339M433.106 309.417H464.028M433.106 340.339V371.261M433.106 340.339H464.028M433.106 371.261V402.184M433.106 371.261H464.028M433.106 402.184V433.106M433.106 402.184H464.028M433.106 433.106V464.028M433.106 433.106H464.028M433.106 464.028V494.951M433.106 464.028H464.028M433.106 494.951V525.873M433.106 494.951H464.028M433.106 525.873V556.795M433.106 525.873H464.028M433.106 556.795V587.718M433.106 556.795H464.028M433.106 587.718V618.64M433.106 587.718H464.028M433.106 618.64H464.028M464.028 0.193265V31.1156M464.028 0.193265H494.951M464.028 31.1156V62.0379M464.028 31.1156H494.951M464.028 62.0379V92.9603M464.028 62.0379H494.951M464.028 92.9603V123.883M464.028 92.9603H494.951M464.028 123.883V154.805M464.028 123.883H494.951M464.028 154.805V185.727M464.028 154.805H494.951M464.028 185.727V216.65M464.028 185.727H494.951M464.028 216.65V247.572M464.028 216.65H494.951M464.028 247.572V278.494M464.028 247.572H494.951M464.028 278.494V309.417M464.028 278.494H494.951M464.028 309.417V340.339M464.028 309.417H494.951M464.028 340.339V371.261M464.028 340.339H494.951M464.028 371.261V402.184M464.028 371.261H494.951M464.028 402.184V433.106M464.028 402.184H494.951M464.028 433.106V464.028M464.028 433.106H494.951M464.028 464.028V494.951M464.028 464.028H494.951M464.028 494.951V525.873M464.028 494.951H494.951M464.028 525.873V556.795M464.028 525.873H494.951M464.028 556.795V587.718M464.028 556.795H494.951M464.028 587.718V618.64M464.028 587.718H494.951M464.028 618.64H494.951M494.951 0.193265V31.1156M494.951 0.193265H525.873M494.951 31.1156V62.0379M494.951 31.1156H525.873M494.951 62.0379V92.9603M494.951 62.0379H525.873M494.951 92.9603V123.883M494.951 92.9603H525.873M494.951 123.883V154.805M494.951 123.883H525.873M494.951 154.805V185.727M494.951 154.805H525.873M494.951 185.727V216.65M494.951 185.727H525.873M494.951 216.65V247.572M494.951 216.65H525.873M494.951 247.572V278.494M494.951 247.572H525.873M494.951 278.494V309.417M494.951 278.494H525.873M494.951 309.417V340.339M494.951 309.417H525.873M494.951 340.339V371.261M494.951 340.339H525.873M494.951 371.261V402.184M494.951 371.261H525.873M494.951 402.184V433.106M494.951 402.184H525.873M494.951 433.106V464.028M494.951 433.106H525.873M494.951 464.028V494.951M494.951 464.028H525.873M494.951 494.951V525.873M494.951 494.951H525.873M494.951 525.873V556.795M494.951 525.873H525.873M494.951 556.795V587.718M494.951 556.795H525.873M494.951 587.718V618.64M494.951 587.718H525.873M494.951 618.64H525.873M525.873 0.193265V31.1156M525.873 0.193265H556.795M525.873 31.1156V62.0379M525.873 31.1156H556.795M525.873 62.0379V92.9603M525.873 62.0379H556.795M525.873 92.9603V123.883M525.873 92.9603H556.795M525.873 123.883V154.805M525.873 123.883H556.795M525.873 154.805V185.727M525.873 154.805H556.795M525.873 185.727V216.65M525.873 185.727H556.795M525.873 216.65V247.572M525.873 216.65H556.795M525.873 247.572V278.494M525.873 247.572H556.795M525.873 278.494V309.417M525.873 278.494H556.795M525.873 309.417V340.339M525.873 309.417H556.795M525.873 340.339V371.261M525.873 340.339H556.795M525.873 371.261V402.184M525.873 371.261H556.795M525.873 402.184V433.106M525.873 402.184H556.795M525.873 433.106V464.028M525.873 433.106H556.795M525.873 464.028V494.951M525.873 464.028H556.795M525.873 494.951V525.873M525.873 494.951H556.795M525.873 525.873V556.795M525.873 525.873H556.795M525.873 556.795V587.718M525.873 556.795H556.795M525.873 587.718V618.64M525.873 587.718H556.795M525.873 618.64H556.795M556.795 0.193265V31.1156M556.795 0.193265H587.718M556.795 31.1156V62.0379M556.795 31.1156H587.718M556.795 62.0379V92.9603M556.795 62.0379H587.718M556.795 92.9603V123.883M556.795 92.9603H587.718M556.795 123.883V154.805M556.795 123.883H587.718M556.795 154.805V185.727M556.795 154.805H587.718M556.795 185.727V216.65M556.795 185.727H587.718M556.795 216.65V247.572M556.795 216.65H587.718M556.795 247.572V278.494M556.795 247.572H587.718M556.795 278.494V309.417M556.795 278.494H587.718M556.795 309.417V340.339M556.795 309.417H587.718M556.795 340.339V371.261M556.795 340.339H587.718M556.795 371.261V402.184M556.795 371.261H587.718M556.795 402.184V433.106M556.795 402.184H587.718M556.795 433.106V464.028M556.795 433.106H587.718M556.795 464.028V494.951M556.795 464.028H587.718M556.795 494.951V525.873M556.795 494.951H587.718M556.795 525.873V556.795M556.795 525.873H587.718M556.795 556.795V587.718M556.795 556.795H587.718M556.795 587.718V618.64M556.795 587.718H587.718M556.795 618.64H587.718M587.718 0.193265V31.1156M587.718 0.193265H618.64M587.718 31.1156V62.0379M587.718 31.1156H618.64M587.718 62.0379V92.9603M587.718 62.0379H618.64M587.718 92.9603V123.883M587.718 92.9603H618.64M587.718 123.883V154.805M587.718 123.883H618.64M587.718 154.805V185.727M587.718 154.805H618.64M587.718 185.727V216.65M587.718 185.727H618.64M587.718 216.65V247.572M587.718 216.65H618.64M587.718 247.572V278.494M587.718 247.572H618.64M587.718 278.494V309.417M587.718 278.494H618.64M587.718 309.417V340.339M587.718 309.417H618.64M587.718 340.339V371.261M587.718 340.339H618.64M587.718 371.261V402.184M587.718 371.261H618.64M587.718 402.184V433.106M587.718 402.184H618.64M587.718 433.106V464.028M587.718 433.106H618.64M587.718 464.028V494.951M587.718 464.028H618.64M587.718 494.951V525.873M587.718 494.951H618.64M587.718 525.873V556.795M587.718 525.873H618.64M587.718 556.795V587.718M587.718 556.795H618.64M587.718 587.718V618.64M587.718 587.718H618.64M587.718 618.64H618.64M618.64 0.193265V31.1156M618.64 0.193265H649.562M618.64 31.1156V62.0379M618.64 31.1156H649.562M618.64 62.0379V92.9603M618.64 62.0379H649.562M618.64 92.9603V123.883M618.64 92.9603H649.562M618.64 123.883V154.805M618.64 123.883H649.562M618.64 154.805V185.727M618.64 154.805H649.562M618.64 185.727V216.65M618.64 185.727H649.562M618.64 216.65V247.572M618.64 216.65H649.562M618.64 247.572V278.494M618.64 247.572H649.562M618.64 278.494V309.417M618.64 278.494H649.562M618.64 309.417V340.339M618.64 309.417H649.562M618.64 340.339V371.261M618.64 340.339H649.562M618.64 371.261V402.184M618.64 371.261H649.562M618.64 402.184V433.106M618.64 402.184H649.562M618.64 433.106V464.028M618.64 433.106H649.562M618.64 464.028V494.951M618.64 464.028H649.562M618.64 494.951V525.873M618.64 494.951H649.562M618.64 525.873V556.795M618.64 525.873H649.562M618.64 556.795V587.718M618.64 556.795H649.562M618.64 587.718V618.64M618.64 587.718H649.562M618.64 618.64H649.562M649.562 0.193265V31.1156M649.562 0.193265H680.485M649.562 31.1156V62.0379M649.562 31.1156H680.485M649.562 62.0379V92.9603M649.562 62.0379H680.485M649.562 92.9603V123.883M649.562 92.9603H680.485M649.562 123.883V154.805M649.562 123.883H680.485M649.562 154.805V185.727M649.562 154.805H680.485M649.562 185.727V216.65M649.562 185.727H680.485M649.562 216.65V247.572M649.562 216.65H680.485M649.562 247.572V278.494M649.562 247.572H680.485M649.562 278.494V309.417M649.562 278.494H680.485M649.562 309.417V340.339M649.562 309.417H680.485M649.562 340.339V371.261M649.562 340.339H680.485M649.562 371.261V402.184M649.562 371.261H680.485M649.562 402.184V433.106M649.562 402.184H680.485M649.562 433.106V464.028M649.562 433.106H680.485M649.562 464.028V494.951M649.562 464.028H680.485M649.562 494.951V525.873M649.562 494.951H680.485M649.562 525.873V556.795M649.562 525.873H680.485M649.562 556.795V587.718M649.562 556.795H680.485M649.562 587.718V618.64M649.562 587.718H680.485M649.562 618.64H680.485M680.485 0.193265V31.1156M680.485 0.193265H711.407M680.485 31.1156V62.0379M680.485 31.1156H711.407M680.485 62.0379V92.9603M680.485 62.0379H711.407M680.485 92.9603V123.883M680.485 92.9603H711.407M680.485 123.883V154.805M680.485 123.883H711.407M680.485 154.805V185.727M680.485 154.805H711.407M680.485 185.727V216.65M680.485 185.727H711.407M680.485 216.65V247.572M680.485 216.65H711.407M680.485 247.572V278.494M680.485 247.572H711.407M680.485 278.494V309.417M680.485 278.494H711.407M680.485 309.417V340.339M680.485 309.417H711.407M680.485 340.339V371.261M680.485 340.339H711.407M680.485 371.261V402.184M680.485 371.261H711.407M680.485 402.184V433.106M680.485 402.184H711.407M680.485 433.106V464.028M680.485 433.106H711.407M680.485 464.028V494.951M680.485 464.028H711.407M680.485 494.951V525.873M680.485 494.951H711.407M680.485 525.873V556.795M680.485 525.873H711.407M680.485 556.795V587.718M680.485 556.795H711.407M680.485 587.718V618.64M680.485 587.718H711.407M680.485 618.64H711.407M711.407 0.193265V31.1156M711.407 0.193265H742.329M711.407 31.1156V62.0379M711.407 31.1156H742.329M711.407 62.0379V92.9603M711.407 62.0379H742.329M711.407 92.9603V123.883M711.407 92.9603H742.329M711.407 123.883V154.805M711.407 123.883H742.329M711.407 154.805V185.727M711.407 154.805H742.329M711.407 185.727V216.65M711.407 185.727H742.329M711.407 216.65V247.572M711.407 216.65H742.329M711.407 247.572V278.494M711.407 247.572H742.329M711.407 278.494V309.417M711.407 278.494H742.329M711.407 309.417V340.339M711.407 309.417H742.329M711.407 340.339V371.261M711.407 340.339H742.329M711.407 371.261V402.184M711.407 371.261H742.329M711.407 402.184V433.106M711.407 402.184H742.329M711.407 433.106V464.028M711.407 433.106H742.329M711.407 464.028V494.951M711.407 464.028H742.329M711.407 494.951V525.873M711.407 494.951H742.329M711.407 525.873V556.795M711.407 525.873H742.329M711.407 556.795V587.718M711.407 556.795H742.329M711.407 587.718V618.64M711.407 587.718H742.329M711.407 618.64H742.329M742.329 0.193265V31.1156M742.329 0.193265H773.251M742.329 31.1156V62.0379M742.329 31.1156H773.251M742.329 62.0379V92.9603M742.329 62.0379H773.251M742.329 92.9603V123.883M742.329 92.9603H773.251M742.329 123.883V154.805M742.329 123.883H773.251M742.329 154.805V185.727M742.329 154.805H773.251M742.329 185.727V216.65M742.329 185.727H773.251M742.329 216.65V247.572M742.329 216.65H773.251M742.329 247.572V278.494M742.329 247.572H773.251M742.329 278.494V309.417M742.329 278.494H773.251M742.329 309.417V340.339M742.329 309.417H773.251M742.329 340.339V371.261M742.329 340.339H773.251M742.329 371.261V402.184M742.329 371.261H773.251M742.329 402.184V433.106M742.329 402.184H773.251M742.329 433.106V464.028M742.329 433.106H773.251M742.329 464.028V494.951M742.329 464.028H773.251M742.329 494.951V525.873M742.329 494.951H773.251M742.329 525.873V556.795M742.329 525.873H773.251M742.329 556.795V587.718M742.329 556.795H773.251M742.329 587.718V618.64M742.329 587.718H773.251M742.329 618.64H773.251M773.251 0.193265V31.1156M773.251 0.193265H804.174M773.251 31.1156V62.0379M773.251 31.1156H804.174M773.251 62.0379V92.9603M773.251 62.0379H804.174M773.251 92.9603V123.883M773.251 92.9603H804.174M773.251 123.883V154.805M773.251 123.883H804.174M773.251 154.805V185.727M773.251 154.805H804.174M773.251 185.727V216.65M773.251 185.727H804.174M773.251 216.65V247.572M773.251 216.65H804.174M773.251 247.572V278.494M773.251 247.572H804.174M773.251 278.494V309.417M773.251 278.494H804.174M773.251 309.417V340.339M773.251 309.417H804.174M773.251 340.339V371.261M773.251 340.339H804.174M773.251 371.261V402.184M773.251 371.261H804.174M773.251 402.184V433.106M773.251 402.184H804.174M773.251 433.106V464.028M773.251 433.106H804.174M773.251 464.028V494.951M773.251 464.028H804.174M773.251 494.951V525.873M773.251 494.951H804.174M773.251 525.873V556.795M773.251 525.873H804.174M773.251 556.795V587.718M773.251 556.795H804.174M773.251 587.718V618.64M773.251 587.718H804.174M773.251 618.64H804.174M804.174 0.193265V31.1156M804.174 0.193265H835.096M804.174 31.1156V62.0379M804.174 31.1156H835.096M804.174 62.0379V92.9603M804.174 62.0379H835.096M804.174 92.9603V123.883M804.174 92.9603H835.096M804.174 123.883V154.805M804.174 123.883H835.096M804.174 154.805V185.727M804.174 154.805H835.096M804.174 185.727V216.65M804.174 185.727H835.096M804.174 216.65V247.572M804.174 216.65H835.096M804.174 247.572V278.494M804.174 247.572H835.096M804.174 278.494V309.417M804.174 278.494H835.096M804.174 309.417V340.339M804.174 309.417H835.096M804.174 340.339V371.261M804.174 340.339H835.096M804.174 371.261V402.184M804.174 371.261H835.096M804.174 402.184V433.106M804.174 402.184H835.096M804.174 433.106V464.028M804.174 433.106H835.096M804.174 464.028V494.951M804.174 464.028H835.096M804.174 494.951V525.873M804.174 494.951H835.096M804.174 525.873V556.795M804.174 525.873H835.096M804.174 556.795V587.718M804.174 556.795H835.096M804.174 587.718V618.64M804.174 587.718H835.096M804.174 618.64H835.096M835.096 0.193265V31.1156M835.096 0.193265H866.018M835.096 31.1156V62.0379M835.096 31.1156H866.018M835.096 62.0379V92.9603M835.096 62.0379H866.018M835.096 92.9603V123.883M835.096 92.9603H866.018M835.096 123.883V154.805M835.096 123.883H866.018M835.096 154.805V185.727M835.096 154.805H866.018M835.096 185.727V216.65M835.096 185.727H866.018M835.096 216.65V247.572M835.096 216.65H866.018M835.096 247.572V278.494M835.096 247.572H866.018M835.096 278.494V309.417M835.096 278.494H866.018M835.096 309.417V340.339M835.096 309.417H866.018M835.096 340.339V371.261M835.096 340.339H866.018M835.096 371.261V402.184M835.096 371.261H866.018M835.096 402.184V433.106M835.096 402.184H866.018M835.096 433.106V464.028M835.096 433.106H866.018M835.096 464.028V494.951M835.096 464.028H866.018M835.096 494.951V525.873M835.096 494.951H866.018M835.096 525.873V556.795M835.096 525.873H866.018M835.096 556.795V587.718M835.096 556.795H866.018M835.096 587.718V618.64M835.096 587.718H866.018M835.096 618.64H866.018M866.018 0.193265V31.1156M866.018 0.193265H896.941M866.018 31.1156V62.0379M866.018 31.1156H896.941M866.018 62.0379V92.9603M866.018 62.0379H896.941M866.018 92.9603V123.883M866.018 92.9603H896.941M866.018 123.883V154.805M866.018 123.883H896.941M866.018 154.805V185.727M866.018 154.805H896.941M866.018 185.727V216.65M866.018 185.727H896.941M866.018 216.65V247.572M866.018 216.65H896.941M866.018 247.572V278.494M866.018 247.572H896.941M866.018 278.494V309.417M866.018 278.494H896.941M866.018 309.417V340.339M866.018 309.417H896.941M866.018 340.339V371.261M866.018 340.339H896.941M866.018 371.261V402.184M866.018 371.261H896.941M866.018 402.184V433.106M866.018 402.184H896.941M866.018 433.106V464.028M866.018 433.106H896.941M866.018 464.028V494.951M866.018 464.028H896.941M866.018 494.951V525.873M866.018 494.951H896.941M866.018 525.873V556.795M866.018 525.873H896.941M866.018 556.795V587.718M866.018 556.795H896.941M866.018 587.718V618.64M866.018 587.718H896.941M866.018 618.64H896.941M896.941 0.193265V31.1156M896.941 0.193265H927.863M896.941 31.1156V62.0379M896.941 31.1156H927.863M896.941 62.0379V92.9603M896.941 62.0379H927.863M896.941 92.9603V123.883M896.941 92.9603H927.863M896.941 123.883V154.805M896.941 123.883H927.863M896.941 154.805V185.727M896.941 154.805H927.863M896.941 185.727V216.65M896.941 185.727H927.863M896.941 216.65V247.572M896.941 216.65H927.863M896.941 247.572V278.494M896.941 247.572H927.863M896.941 278.494V309.417M896.941 278.494H927.863M896.941 309.417V340.339M896.941 309.417H927.863M896.941 340.339V371.261M896.941 340.339H927.863M896.941 371.261V402.184M896.941 371.261H927.863M896.941 402.184V433.106M896.941 402.184H927.863M896.941 433.106V464.028M896.941 433.106H927.863M896.941 464.028V494.951M896.941 464.028H927.863M896.941 494.951V525.873M896.941 494.951H927.863M896.941 525.873V556.795M896.941 525.873H927.863M896.941 556.795V587.718M896.941 556.795H927.863M896.941 587.718V618.64M896.941 587.718H927.863M896.941 618.64H927.863M927.863 0.193265V31.1156M927.863 0.193265H958.785M927.863 31.1156V62.0379M927.863 31.1156H958.785M927.863 62.0379V92.9603M927.863 62.0379H958.785M927.863 92.9603V123.883M927.863 92.9603H958.785M927.863 123.883V154.805M927.863 123.883H958.785M927.863 154.805V185.727M927.863 154.805H958.785M927.863 185.727V216.65M927.863 185.727H958.785M927.863 216.65V247.572M927.863 216.65H958.785M927.863 247.572V278.494M927.863 247.572H958.785M927.863 278.494V309.417M927.863 278.494H958.785M927.863 309.417V340.339M927.863 309.417H958.785M927.863 340.339V371.261M927.863 340.339H958.785M927.863 371.261V402.184M927.863 371.261H958.785M927.863 402.184V433.106M927.863 402.184H958.785M927.863 433.106V464.028M927.863 433.106H958.785M927.863 464.028V494.951M927.863 464.028H958.785M927.863 494.951V525.873M927.863 494.951H958.785M927.863 525.873V556.795M927.863 525.873H958.785M927.863 556.795V587.718M927.863 556.795H958.785M927.863 587.718V618.64M927.863 587.718H958.785M927.863 618.64H958.785M958.785 0.193265V31.1156M958.785 0.193265H989.708M958.785 31.1156V62.0379M958.785 31.1156H989.708M958.785 62.0379V92.9603M958.785 62.0379H989.708M958.785 92.9603V123.883M958.785 92.9603H989.708M958.785 123.883V154.805M958.785 123.883H989.708M958.785 154.805V185.727M958.785 154.805H989.708M958.785 185.727V216.65M958.785 185.727H989.708M958.785 216.65V247.572M958.785 216.65H989.708M958.785 247.572V278.494M958.785 247.572H989.708M958.785 278.494V309.417M958.785 278.494H989.708M958.785 309.417V340.339M958.785 309.417H989.708M958.785 340.339V371.261M958.785 340.339H989.708M958.785 371.261V402.184M958.785 371.261H989.708M958.785 402.184V433.106M958.785 402.184H989.708M958.785 433.106V464.028M958.785 433.106H989.708M958.785 464.028V494.951M958.785 464.028H989.708M958.785 494.951V525.873M958.785 494.951H989.708M958.785 525.873V556.795M958.785 525.873H989.708M958.785 556.795V587.718M958.785 556.795H989.708M958.785 587.718V618.64M958.785 587.718H989.708M958.785 618.64H989.708M989.708 0.193265V31.1156M989.708 0.193265H1020.63M989.708 31.1156V62.0379M989.708 31.1156H1020.63M989.708 62.0379V92.9603M989.708 62.0379H1020.63M989.708 92.9603V123.883M989.708 92.9603H1020.63M989.708 123.883V154.805M989.708 123.883H1020.63M989.708 154.805V185.727M989.708 154.805H1020.63M989.708 185.727V216.65M989.708 185.727H1020.63M989.708 216.65V247.572M989.708 216.65H1020.63M989.708 247.572V278.494M989.708 247.572H1020.63M989.708 278.494V309.417M989.708 278.494H1020.63M989.708 309.417V340.339M989.708 309.417H1020.63M989.708 340.339V371.261M989.708 340.339H1020.63M989.708 371.261V402.184M989.708 371.261H1020.63M989.708 402.184V433.106M989.708 402.184H1020.63M989.708 433.106V464.028M989.708 433.106H1020.63M989.708 464.028V494.951M989.708 464.028H1020.63M989.708 494.951V525.873M989.708 494.951H1020.63M989.708 525.873V556.795M989.708 525.873H1020.63M989.708 556.795V587.718M989.708 556.795H1020.63M989.708 587.718V618.64M989.708 587.718H1020.63M989.708 618.64H1020.63M1020.63 0.193265V31.1156M1020.63 0.193265H1051.55M1020.63 31.1156V62.0379M1020.63 31.1156H1051.55M1020.63 62.0379V92.9603M1020.63 62.0379H1051.55M1020.63 92.9603V123.883M1020.63 92.9603H1051.55M1020.63 123.883V154.805M1020.63 123.883H1051.55M1020.63 154.805V185.727M1020.63 154.805H1051.55M1020.63 185.727V216.65M1020.63 185.727H1051.55M1020.63 216.65V247.572M1020.63 216.65H1051.55M1020.63 247.572V278.494M1020.63 247.572H1051.55M1020.63 278.494V309.417M1020.63 278.494H1051.55M1020.63 309.417V340.339M1020.63 309.417H1051.55M1020.63 340.339V371.261M1020.63 340.339H1051.55M1020.63 371.261V402.184M1020.63 371.261H1051.55M1020.63 402.184V433.106M1020.63 402.184H1051.55M1020.63 433.106V464.028M1020.63 433.106H1051.55M1020.63 464.028V494.951M1020.63 464.028H1051.55M1020.63 494.951V525.873M1020.63 494.951H1051.55M1020.63 525.873V556.795M1020.63 525.873H1051.55M1020.63 556.795V587.718M1020.63 556.795H1051.55M1020.63 587.718V618.64M1020.63 587.718H1051.55M1020.63 618.64H1051.55M1051.55 0.193265V31.1156M1051.55 0.193265H1082.47M1051.55 31.1156V62.0379M1051.55 31.1156H1082.47M1051.55 62.0379V92.9603M1051.55 62.0379H1082.47M1051.55 92.9603V123.883M1051.55 92.9603H1082.47M1051.55 123.883V154.805M1051.55 123.883H1082.47M1051.55 154.805V185.727M1051.55 154.805H1082.47M1051.55 185.727V216.65M1051.55 185.727H1082.47M1051.55 216.65V247.572M1051.55 216.65H1082.47M1051.55 247.572V278.494M1051.55 247.572H1082.47M1051.55 278.494V309.417M1051.55 278.494H1082.47M1051.55 309.417V340.339M1051.55 309.417H1082.47M1051.55 340.339V371.261M1051.55 340.339H1082.47M1051.55 371.261V402.184M1051.55 371.261H1082.47M1051.55 402.184V433.106M1051.55 402.184H1082.47M1051.55 433.106V464.028M1051.55 433.106H1082.47M1051.55 464.028V494.951M1051.55 464.028H1082.47M1051.55 494.951V525.873M1051.55 494.951H1082.47M1051.55 525.873V556.795M1051.55 525.873H1082.47M1051.55 556.795V587.718M1051.55 556.795H1082.47M1051.55 587.718V618.64M1051.55 587.718H1082.47M1051.55 618.64H1082.47M1082.47 0.193265V31.1156M1082.47 0.193265H1113.4M1082.47 31.1156V62.0379M1082.47 31.1156H1113.4M1082.47 62.0379V92.9603M1082.47 62.0379H1113.4M1082.47 92.9603V123.883M1082.47 92.9603H1113.4M1082.47 123.883V154.805M1082.47 123.883H1113.4M1082.47 154.805V185.727M1082.47 154.805H1113.4M1082.47 185.727V216.65M1082.47 185.727H1113.4M1082.47 216.65V247.572M1082.47 216.65H1113.4M1082.47 247.572V278.494M1082.47 247.572H1113.4M1082.47 278.494V309.417M1082.47 278.494H1113.4M1082.47 309.417V340.339M1082.47 309.417H1113.4M1082.47 340.339V371.261M1082.47 340.339H1113.4M1082.47 371.261V402.184M1082.47 371.261H1113.4M1082.47 402.184V433.106M1082.47 402.184H1113.4M1082.47 433.106V464.028M1082.47 433.106H1113.4M1082.47 464.028V494.951M1082.47 464.028H1113.4M1082.47 494.951V525.873M1082.47 494.951H1113.4M1082.47 525.873V556.795M1082.47 525.873H1113.4M1082.47 556.795V587.718M1082.47 556.795H1113.4M1082.47 587.718V618.64M1082.47 587.718H1113.4M1082.47 618.64H1113.4M1113.4 0.193265V31.1156M1113.4 0.193265H1144.32M1113.4 31.1156V62.0379M1113.4 31.1156H1144.32M1113.4 62.0379V92.9603M1113.4 62.0379H1144.32M1113.4 92.9603V123.883M1113.4 92.9603H1144.32M1113.4 123.883V154.805M1113.4 123.883H1144.32M1113.4 154.805V185.727M1113.4 154.805H1144.32M1113.4 185.727V216.65M1113.4 185.727H1144.32M1113.4 216.65V247.572M1113.4 216.65H1144.32M1113.4 247.572V278.494M1113.4 247.572H1144.32M1113.4 278.494V309.417M1113.4 278.494H1144.32M1113.4 309.417V340.339M1113.4 309.417H1144.32M1113.4 340.339V371.261M1113.4 340.339H1144.32M1113.4 371.261V402.184M1113.4 371.261H1144.32M1113.4 402.184V433.106M1113.4 402.184H1144.32M1113.4 433.106V464.028M1113.4 433.106H1144.32M1113.4 464.028V494.951M1113.4 464.028H1144.32M1113.4 494.951V525.873M1113.4 494.951H1144.32M1113.4 525.873V556.795M1113.4 525.873H1144.32M1113.4 556.795V587.718M1113.4 556.795H1144.32M1113.4 587.718V618.64M1113.4 587.718H1144.32M1113.4 618.64H1144.32M1144.32 0.193265V31.1156M1144.32 0.193265H1175.24M1144.32 31.1156V62.0379M1144.32 31.1156H1175.24M1144.32 62.0379V92.9603M1144.32 62.0379H1175.24M1144.32 92.9603V123.883M1144.32 92.9603H1175.24M1144.32 123.883V154.805M1144.32 123.883H1175.24M1144.32 154.805V185.727M1144.32 154.805H1175.24M1144.32 185.727V216.65M1144.32 185.727H1175.24M1144.32 216.65V247.572M1144.32 216.65H1175.24M1144.32 247.572V278.494M1144.32 247.572H1175.24M1144.32 278.494V309.417M1144.32 278.494H1175.24M1144.32 309.417V340.339M1144.32 309.417H1175.24M1144.32 340.339V371.261M1144.32 340.339H1175.24M1144.32 371.261V402.184M1144.32 371.261H1175.24M1144.32 402.184V433.106M1144.32 402.184H1175.24M1144.32 433.106V464.028M1144.32 433.106H1175.24M1144.32 464.028V494.951M1144.32 464.028H1175.24M1144.32 494.951V525.873M1144.32 494.951H1175.24M1144.32 525.873V556.795M1144.32 525.873H1175.24M1144.32 556.795V587.718M1144.32 556.795H1175.24M1144.32 587.718V618.64M1144.32 587.718H1175.24M1144.32 618.64H1175.24M1175.24 0.193265V31.1156M1175.24 0.193265H1206.16M1175.24 31.1156V62.0379M1175.24 31.1156H1206.16M1175.24 62.0379V92.9603M1175.24 62.0379H1206.16M1175.24 92.9603V123.883M1175.24 92.9603H1206.16M1175.24 123.883V154.805M1175.24 123.883H1206.16M1175.24 154.805V185.727M1175.24 154.805H1206.16M1175.24 185.727V216.65M1175.24 185.727H1206.16M1175.24 216.65V247.572M1175.24 216.65H1206.16M1175.24 247.572V278.494M1175.24 247.572H1206.16M1175.24 278.494V309.417M1175.24 278.494H1206.16M1175.24 309.417V340.339M1175.24 309.417H1206.16M1175.24 340.339V371.261M1175.24 340.339H1206.16M1175.24 371.261V402.184M1175.24 371.261H1206.16M1175.24 402.184V433.106M1175.24 402.184H1206.16M1175.24 433.106V464.028M1175.24 433.106H1206.16M1175.24 464.028V494.951M1175.24 464.028H1206.16M1175.24 494.951V525.873M1175.24 494.951H1206.16M1175.24 525.873V556.795M1175.24 525.873H1206.16M1175.24 556.795V587.718M1175.24 556.795H1206.16M1175.24 587.718V618.64M1175.24 587.718H1206.16M1175.24 618.64H1206.16M1206.16 0.193265V31.1156M1206.16 0.193265H1237.09M1206.16 31.1156V62.0379M1206.16 31.1156H1237.09M1206.16 62.0379V92.9603M1206.16 62.0379H1237.09M1206.16 92.9603V123.883M1206.16 92.9603H1237.09M1206.16 123.883V154.805M1206.16 123.883H1237.09M1206.16 154.805V185.727M1206.16 154.805H1237.09M1206.16 185.727V216.65M1206.16 185.727H1237.09M1206.16 216.65V247.572M1206.16 216.65H1237.09M1206.16 247.572V278.494M1206.16 247.572H1237.09M1206.16 278.494V309.417M1206.16 278.494H1237.09M1206.16 309.417V340.339M1206.16 309.417H1237.09M1206.16 340.339V371.261M1206.16 340.339H1237.09M1206.16 371.261V402.184M1206.16 371.261H1237.09M1206.16 402.184V433.106M1206.16 402.184H1237.09M1206.16 433.106V464.028M1206.16 433.106H1237.09M1206.16 464.028V494.951M1206.16 464.028H1237.09M1206.16 494.951V525.873M1206.16 494.951H1237.09M1206.16 525.873V556.795M1206.16 525.873H1237.09M1206.16 556.795V587.718M1206.16 556.795H1237.09M1206.16 587.718V618.64M1206.16 587.718H1237.09M1206.16 618.64H1237.09M1237.09 0.193265V31.1156M1237.09 0.193265H1268.01M1237.09 31.1156V62.0379M1237.09 31.1156H1268.01M1237.09 62.0379V92.9603M1237.09 62.0379H1268.01M1237.09 92.9603V123.883M1237.09 92.9603H1268.01M1237.09 123.883V154.805M1237.09 123.883H1268.01M1237.09 154.805V185.727M1237.09 154.805H1268.01M1237.09 185.727V216.65M1237.09 185.727H1268.01M1237.09 216.65V247.572M1237.09 216.65H1268.01M1237.09 247.572V278.494M1237.09 247.572H1268.01M1237.09 278.494V309.417M1237.09 278.494H1268.01M1237.09 309.417V340.339M1237.09 309.417H1268.01M1237.09 340.339V371.261M1237.09 340.339H1268.01M1237.09 371.261V402.184M1237.09 371.261H1268.01M1237.09 402.184V433.106M1237.09 402.184H1268.01M1237.09 433.106V464.028M1237.09 433.106H1268.01M1237.09 464.028V494.951M1237.09 464.028H1268.01M1237.09 494.951V525.873M1237.09 494.951H1268.01M1237.09 525.873V556.795M1237.09 525.873H1268.01M1237.09 556.795V587.718M1237.09 556.795H1268.01M1237.09 587.718V618.64M1237.09 587.718H1268.01M1237.09 618.64H1268.01M1268.01 0.193265V31.1156M1268.01 0.193265H1298.93M1268.01 31.1156V62.0379M1268.01 31.1156H1298.93M1268.01 62.0379V92.9603M1268.01 62.0379H1298.93M1268.01 92.9603V123.883M1268.01 92.9603H1298.93M1268.01 123.883V154.805M1268.01 123.883H1298.93M1268.01 154.805V185.727M1268.01 154.805H1298.93M1268.01 185.727V216.65M1268.01 185.727H1298.93M1268.01 216.65V247.572M1268.01 216.65H1298.93M1268.01 247.572V278.494M1268.01 247.572H1298.93M1268.01 278.494V309.417M1268.01 278.494H1298.93M1268.01 309.417V340.339M1268.01 309.417H1298.93M1268.01 340.339V371.261M1268.01 340.339H1298.93M1268.01 371.261V402.184M1268.01 371.261H1298.93M1268.01 402.184V433.106M1268.01 402.184H1298.93M1268.01 433.106V464.028M1268.01 433.106H1298.93M1268.01 464.028V494.951M1268.01 464.028H1298.93M1268.01 494.951V525.873M1268.01 494.951H1298.93M1268.01 525.873V556.795M1268.01 525.873H1298.93M1268.01 556.795V587.718M1268.01 556.795H1298.93M1268.01 587.718V618.64M1268.01 587.718H1298.93M1268.01 618.64H1298.93M1298.93 0.193265V31.1156M1298.93 0.193265H1329.85M1298.93 31.1156V62.0379M1298.93 31.1156H1329.85M1298.93 62.0379V92.9603M1298.93 62.0379H1329.85M1298.93 92.9603V123.883M1298.93 92.9603H1329.85M1298.93 123.883V154.805M1298.93 123.883H1329.85M1298.93 154.805V185.727M1298.93 154.805H1329.85M1298.93 185.727V216.65M1298.93 185.727H1329.85M1298.93 216.65V247.572M1298.93 216.65H1329.85M1298.93 247.572V278.494M1298.93 247.572H1329.85M1298.93 278.494V309.417M1298.93 278.494H1329.85M1298.93 309.417V340.339M1298.93 309.417H1329.85M1298.93 340.339V371.261M1298.93 340.339H1329.85M1298.93 371.261V402.184M1298.93 371.261H1329.85M1298.93 402.184V433.106M1298.93 402.184H1329.85M1298.93 433.106V464.028M1298.93 433.106H1329.85M1298.93 464.028V494.951M1298.93 464.028H1329.85M1298.93 494.951V525.873M1298.93 494.951H1329.85M1298.93 525.873V556.795M1298.93 525.873H1329.85M1298.93 556.795V587.718M1298.93 556.795H1329.85M1298.93 587.718V618.64M1298.93 587.718H1329.85M1298.93 618.64H1329.85M1329.85 0.193265V31.1156M1329.85 0.193265H1360.78V31.1156M1329.85 31.1156V62.0379M1329.85 31.1156H1360.78M1329.85 62.0379V92.9603M1329.85 62.0379H1360.78M1329.85 92.9603V123.883M1329.85 92.9603H1360.78M1329.85 123.883V154.805M1329.85 123.883H1360.78M1329.85 154.805V185.727M1329.85 154.805H1360.78M1329.85 185.727V216.65M1329.85 185.727H1360.78M1329.85 216.65V247.572M1329.85 216.65H1360.78M1329.85 247.572V278.494M1329.85 247.572H1360.78M1329.85 278.494V309.417M1329.85 278.494H1360.78M1329.85 309.417V340.339M1329.85 309.417H1360.78M1329.85 340.339V371.261M1329.85 340.339H1360.78M1329.85 371.261V402.184M1329.85 371.261H1360.78M1329.85 402.184V433.106M1329.85 402.184H1360.78M1329.85 433.106V464.028M1329.85 433.106H1360.78M1329.85 464.028V494.951M1329.85 464.028H1360.78M1329.85 494.951V525.873M1329.85 494.951H1360.78M1329.85 525.873V556.795M1329.85 525.873H1360.78M1329.85 556.795V587.718M1329.85 556.795H1360.78M1329.85 587.718V618.64M1329.85 587.718H1360.78M1329.85 618.64H1360.78V587.718M1360.78 31.1156V62.0379M1360.78 62.0379V92.9603M1360.78 92.9603V123.883M1360.78 123.883V154.805M1360.78 154.805V185.727M1360.78 185.727V216.65M1360.78 216.65V247.572M1360.78 247.572V278.494M1360.78 278.494V309.417M1360.78 309.417V340.339M1360.78 340.339V371.261M1360.78 371.261V402.184M1360.78 402.184V433.106M1360.78 433.106V464.028M1360.78 464.028V494.951M1360.78 494.951V525.873M1360.78 525.873V556.795M1360.78 556.795V587.718" stroke="url(#paint0_radial_0_75)" stroke-opacity="0.6" stroke-width="0.386529"/>
</g>
<defs>
<radialGradient id="paint0_radial_0_75" cx="0" cy="0" r="1" gradientUnits="userSpaceOnUse" gradientTransform="translate(680.485 309.417) rotate(90) scale(309.223 680.291)">
<stop stop-color="white"/>
<stop offset="1" stop-color="white" stop-opacity="0"/>
</radialGradient>
</defs>
</svg>
