<svg preserveAspectRatio="none" width="100%" height="100%" overflow="visible" style="display: block;" viewBox="0 0 796.735 367.999" fill="none" xmlns="http://www.w3.org/2000/svg">
<g id="Vector" opacity="0.8" style="mix-blend-mode:soft-light">
<path d="M76.8153 71.456V76.8152M76.8153 76.8152V82.1744M76.8153 76.8152H71.4561M76.8153 76.8152H82.1745M76.8153 214.368V219.727M76.8153 219.727V225.087M76.8153 219.727H71.4561M76.8153 219.727H82.1745M76.8153 357.28V362.639M76.8153 362.639V367.999M76.8153 362.639H71.4561M76.8153 362.639H82.1745M219.727 71.456V76.8152M219.727 76.8152V82.1744M219.727 76.8152H214.368M219.727 76.8152H225.087M219.727 214.368V219.727M219.727 219.727V225.087M219.727 219.727H214.368M219.727 219.727H225.087M219.727 357.28V362.639M219.727 362.639V367.999M219.727 362.639H214.368M219.727 362.639H225.087M362.639 71.456V76.8152M362.639 76.8152V82.1744M362.639 76.8152H357.28M362.639 76.8152H367.999M362.639 214.368V219.727M362.639 219.727V225.087M362.639 219.727H357.28M362.639 219.727H367.999M362.639 357.28V362.639M362.639 362.639V367.999M362.639 362.639H357.28M362.639 362.639H367.999M505.552 71.456V76.8152M505.552 76.8152V82.1744M505.552 76.8152H500.192M505.552 76.8152H510.911M505.552 214.368V219.727M505.552 219.727V225.087M505.552 219.727H500.192M505.552 219.727H510.911M505.552 357.28V362.639M505.552 362.639V367.999M505.552 362.639H500.192M505.552 362.639H510.911M648.464 71.456V76.8152M648.464 76.8152V82.1744M648.464 76.8152H643.104M648.464 76.8152H653.823M648.464 214.368V219.727M648.464 219.727V225.087M648.464 219.727H643.104M648.464 219.727H653.823M648.464 357.28V362.639M648.464 362.639V367.999M648.464 362.639H643.104M648.464 362.639H653.823M791.376 71.456V76.8152M791.376 76.8152V82.1744M791.376 76.8152H786.016M791.376 76.8152H796.735M791.376 214.368V219.727M791.376 219.727V225.087M791.376 219.727H786.016M791.376 219.727H796.735M791.376 357.28V362.639M791.376 362.639V367.999M791.376 362.639H786.016M791.376 362.639H796.735M76.8153 0V5.3592M76.8153 5.3592V10.7184M76.8153 5.3592H71.4561M76.8153 5.3592H82.1745M76.8153 142.912V148.271M76.8153 148.271V153.631M76.8153 148.271H71.4561M76.8153 148.271H82.1745M76.8153 285.824V291.183M76.8153 291.183V296.543M76.8153 291.183H71.4561M76.8153 291.183H82.1745M219.727 0V5.3592M219.727 5.3592V10.7184M219.727 5.3592H214.368M219.727 5.3592H225.087M219.727 142.912V148.271M219.727 148.271V153.631M219.727 148.271H214.368M219.727 148.271H225.087M219.727 285.824V291.183M219.727 291.183V296.543M219.727 291.183H214.368M219.727 291.183H225.087M362.639 0V5.3592M362.639 5.3592V10.7184M362.639 5.3592H357.28M362.639 5.3592H367.999M362.639 142.912V148.271M362.639 148.271V153.631M362.639 148.271H357.28M362.639 148.271H367.999M362.639 285.824V291.183M362.639 291.183V296.543M362.639 291.183H357.28M362.639 291.183H367.999M505.552 0V5.3592M505.552 5.3592V10.7184M505.552 5.3592H500.192M505.552 5.3592H510.911M505.552 142.912V148.271M505.552 148.271V153.631M505.552 148.271H500.192M505.552 148.271H510.911M505.552 285.824V291.183M505.552 291.183V296.543M505.552 291.183H500.192M505.552 291.183H510.911M648.464 0V5.3592M648.464 5.3592V10.7184M648.464 5.3592H643.104M648.464 5.3592H653.823M648.464 142.912V148.271M648.464 148.271V153.631M648.464 148.271H643.104M648.464 148.271H653.823M648.464 285.824V291.183M648.464 291.183V296.543M648.464 291.183H643.104M648.464 291.183H653.823M791.376 0V5.3592M791.376 5.3592V10.7184M791.376 5.3592H786.016M791.376 5.3592H796.735M791.376 142.912V148.271M791.376 148.271V153.631M791.376 148.271H786.016M791.376 148.271H796.735M791.376 285.824V291.183M791.376 291.183V296.543M791.376 291.183H786.016M791.376 291.183H796.735M5.3592 71.456V76.8152M5.3592 76.8152V82.1744M5.3592 76.8152H0M5.3592 76.8152H10.7184M5.3592 214.368V219.727M5.3592 219.727V225.087M5.3592 219.727H0M5.3592 219.727H10.7184M5.3592 357.28V362.639M5.3592 362.639V367.999M5.3592 362.639H0M5.3592 362.639H10.7184M148.271 71.456V76.8152M148.271 76.8152V82.1744M148.271 76.8152H142.912M148.271 76.8152H153.631M148.271 214.368V219.727M148.271 219.727V225.087M148.271 219.727H142.912M148.271 219.727H153.631M148.271 357.28V362.639M148.271 362.639V367.999M148.271 362.639H142.912M148.271 362.639H153.631M291.183 71.456V76.8152M291.183 76.8152V82.1744M291.183 76.8152H285.824M291.183 76.8152H296.543M291.183 214.368V219.727M291.183 219.727V225.087M291.183 219.727H285.824M291.183 219.727H296.543M291.183 357.28V362.639M291.183 362.639V367.999M291.183 362.639H285.824M291.183 362.639H296.543M434.095 71.456V76.8152M434.095 76.8152V82.1744M434.095 76.8152H428.736M434.095 76.8152H439.455M434.095 214.368V219.727M434.095 219.727V225.087M434.095 219.727H428.736M434.095 219.727H439.455M434.095 357.28V362.639M434.095 362.639V367.999M434.095 362.639H428.736M434.095 362.639H439.455M577.008 71.456V76.8152M577.008 76.8152V82.1744M577.008 76.8152H571.648M577.008 76.8152H582.367M577.008 214.368V219.727M577.008 219.727V225.087M577.008 219.727H571.648M577.008 219.727H582.367M577.008 357.28V362.639M577.008 362.639V367.999M577.008 362.639H571.648M577.008 362.639H582.367M719.92 71.456V76.8152M719.92 76.8152V82.1744M719.92 76.8152H714.56M719.92 76.8152H725.279M719.92 214.368V219.727M719.92 219.727V225.087M719.92 219.727H714.56M719.92 219.727H725.279M719.92 357.28V362.639M719.92 362.639V367.999M719.92 362.639H714.56M719.92 362.639H725.279M5.3592 2.63459e-05V5.35923M5.3592 5.35923V10.7184M5.3592 5.35923H0M5.3592 5.35923H10.7184M5.3592 142.912V148.271M5.3592 148.271V153.631M5.3592 148.271H0M5.3592 148.271H10.7184M5.3592 285.824V291.183M5.3592 291.183V296.543M5.3592 291.183H0M5.3592 291.183H10.7184M148.271 0V5.3592M148.271 5.3592V10.7184M148.271 5.3592H142.912M148.271 5.3592H153.631M148.271 142.912V148.271M148.271 148.271V153.631M148.271 148.271H142.912M148.271 148.271H153.631M148.271 285.824V291.183M148.271 291.183V296.543M148.271 291.183H142.912M148.271 291.183H153.631M291.183 0V5.3592M291.183 5.3592V10.7184M291.183 5.3592H285.824M291.183 5.3592H296.543M291.183 142.912V148.271M291.183 148.271V153.631M291.183 148.271H285.824M291.183 148.271H296.543M291.183 285.824V291.183M291.183 291.183V296.543M291.183 291.183H285.824M291.183 291.183H296.543M434.095 0V5.3592M434.095 5.3592V10.7184M434.095 5.3592H428.736M434.095 5.3592H439.455M434.095 142.912V148.271M434.095 148.271V153.631M434.095 148.271H428.736M434.095 148.271H439.455M434.095 285.824V291.183M434.095 291.183V296.543M434.095 291.183H428.736M434.095 291.183H439.455M577.008 0V5.3592M577.008 5.3592V10.7184M577.008 5.3592H571.648M577.008 5.3592H582.367M577.008 142.912V148.271M577.008 148.271V153.631M577.008 148.271H571.648M577.008 148.271H582.367M577.008 285.824V291.183M577.008 291.183V296.543M577.008 291.183H571.648M577.008 291.183H582.367M719.92 0V5.3592M719.92 5.3592V10.7184M719.92 5.3592H714.56M719.92 5.3592H725.279M719.92 142.912V148.271M719.92 148.271V153.631M719.92 148.271H714.56M719.92 148.271H725.279M719.92 285.824V291.183M719.92 291.183V296.543M719.92 291.183H714.56M719.92 291.183H725.279" stroke="url(#paint0_radial_30597_1541)" stroke-opacity="0.6" stroke-width="0.446601"/>
</g>
<defs>
<radialGradient id="paint0_radial_30597_1541" cx="0" cy="0" r="1" gradientUnits="userSpaceOnUse" gradientTransform="translate(398.367 183.999) rotate(90) scale(183.999 398.367)">
<stop stop-color="white"/>
<stop offset="1" stop-color="white" stop-opacity="0"/>
</radialGradient>
</defs>
</svg>
