<svg width="32" height="32" viewBox="0 0 32 32" fill="none" xmlns="http://www.w3.org/2000/svg">
  <!-- 3D Back shadow -->
  <path d="M7 6H15.5C21.299 6 26 10.701 26 16.5C26 22.299 21.299 27 15.5 27H7V6Z" fill="#064E32"/>
  <!-- 3D Front face -->
  <path d="M5 4H13.5C19.299 4 24 8.701 24 14.5C24 20.299 19.299 25 13.5 25H5V4Z" fill="#10B981"/>
  <!-- Inner hole - shadow -->
  <path d="M10 10H13C15.7614 10 18 12.2386 18 15C18 17.7614 15.7614 20 13 20H10V10Z" fill="#064E32"/>
  <!-- Inner hole - front -->
  <path d="M9 9H12C14.7614 9 17 11.2386 17 14C17 16.7614 14.7614 19 12 19H9V9Z" fill="#10B981"/>
  <!-- Glossy highlight -->
  <path d="M5 4H13.5C19.299 4 24 8.701 24 14.5V15C24 9.201 19.299 5 13.5 5H5V4Z" fill="#34D399"/>
</svg>
