<svg preserveAspectRatio="none" width="100%" height="100%" overflow="visible" style="display: block;" viewBox="0 0 532.602 246" fill="none" xmlns="http://www.w3.org/2000/svg">
<g id="Vector" opacity="0.8" style="mix-blend-mode:soft-light">
<path d="M51.3495 47.767V51.3495M51.3495 51.3495V54.932M51.3495 51.3495H47.767M51.3495 51.3495H54.9321M51.3495 143.301V146.884M51.3495 146.884V150.466M51.3495 146.884H47.767M51.3495 146.884H54.9321M51.3495 238.835V242.417M51.3495 242.417V246M51.3495 242.417H47.767M51.3495 242.417H54.9321M146.884 47.767V51.3495M146.884 51.3495V54.932M146.884 51.3495H143.301M146.884 51.3495H150.466M146.884 143.301V146.884M146.884 146.884V150.466M146.884 146.884H143.301M146.884 146.884H150.466M146.884 238.835V242.417M146.884 242.417V246M146.884 242.417H143.301M146.884 242.417H150.466M242.418 47.767V51.3495M242.418 51.3495V54.932M242.418 51.3495H238.835M242.418 51.3495H246M242.418 143.301V146.884M242.418 146.884V150.466M242.418 146.884H238.835M242.418 146.884H246M242.418 238.835V242.417M242.418 242.417V246M242.418 242.417H238.835M242.418 242.417H246M337.952 47.767V51.3495M337.952 51.3495V54.932M337.952 51.3495H334.369M337.952 51.3495H341.534M337.952 143.301V146.884M337.952 146.884V150.466M337.952 146.884H334.369M337.952 146.884H341.534M337.952 238.835V242.417M337.952 242.417V246M337.952 242.417H334.369M337.952 242.417H341.534M433.485 47.767V51.3495M433.485 51.3495V54.932M433.485 51.3495H429.903M433.485 51.3495H437.068M433.485 143.301V146.884M433.485 146.884V150.466M433.485 146.884H429.903M433.485 146.884H437.068M433.485 238.835V242.417M433.485 242.417V246M433.485 242.417H429.903M433.485 242.417H437.068M529.02 47.767V51.3495M529.02 51.3495V54.932M529.02 51.3495H525.437M529.02 51.3495H532.602M529.02 143.301V146.884M529.02 146.884V150.466M529.02 146.884H525.437M529.02 146.884H532.602M529.02 238.835V242.417M529.02 242.417V246M529.02 242.417H525.437M529.02 242.417H532.602M51.3495 0V3.58253M51.3495 3.58253V7.16505M51.3495 3.58253H47.767M51.3495 3.58253H54.9321M51.3495 95.534V99.1165M51.3495 99.1165V102.699M51.3495 99.1165H47.767M51.3495 99.1165H54.9321M51.3495 191.068V194.65M51.3495 194.65V198.233M51.3495 194.65H47.767M51.3495 194.65H54.9321M146.884 0V3.58253M146.884 3.58253V7.16505M146.884 3.58253H143.301M146.884 3.58253H150.466M146.884 95.534V99.1165M146.884 99.1165V102.699M146.884 99.1165H143.301M146.884 99.1165H150.466M146.884 191.068V194.65M146.884 194.65V198.233M146.884 194.65H143.301M146.884 194.65H150.466M242.418 0V3.58253M242.418 3.58253V7.16505M242.418 3.58253H238.835M242.418 3.58253H246M242.418 95.534V99.1165M242.418 99.1165V102.699M242.418 99.1165H238.835M242.418 99.1165H246M242.418 191.068V194.65M242.418 194.65V198.233M242.418 194.65H238.835M242.418 194.65H246M337.952 0V3.58253M337.952 3.58253V7.16505M337.952 3.58253H334.369M337.952 3.58253H341.534M337.952 95.534V99.1165M337.952 99.1165V102.699M337.952 99.1165H334.369M337.952 99.1165H341.534M337.952 191.068V194.65M337.952 194.65V198.233M337.952 194.65H334.369M337.952 194.65H341.534M433.485 0V3.58253M433.485 3.58253V7.16505M433.485 3.58253H429.903M433.485 3.58253H437.068M433.485 95.534V99.1165M433.485 99.1165V102.699M433.485 99.1165H429.903M433.485 99.1165H437.068M433.485 191.068V194.65M433.485 194.65V198.233M433.485 194.65H429.903M433.485 194.65H437.068M529.02 0V3.58253M529.02 3.58253V7.16505M529.02 3.58253H525.437M529.02 3.58253H532.602M529.02 95.534V99.1165M529.02 99.1165V102.699M529.02 99.1165H525.437M529.02 99.1165H532.602M529.02 191.068V194.65M529.02 194.65V198.233M529.02 194.65H525.437M529.02 194.65H532.602M3.58253 47.767V51.3495M3.58253 51.3495V54.932M3.58253 51.3495H0M3.58253 51.3495H7.16505M3.58253 143.301V146.884M3.58253 146.884V150.466M3.58253 146.884H0M3.58253 146.884H7.16505M3.58253 238.835V242.417M3.58253 242.417V246M3.58253 242.417H0M3.58253 242.417H7.16505M99.1165 47.767V51.3495M99.1165 51.3495V54.932M99.1165 51.3495H95.534M99.1165 51.3495H102.699M99.1165 143.301V146.884M99.1165 146.884V150.466M99.1165 146.884H95.534M99.1165 146.884H102.699M99.1165 238.835V242.417M99.1165 242.417V246M99.1165 242.417H95.534M99.1165 242.417H102.699M194.651 47.767V51.3495M194.651 51.3495V54.932M194.651 51.3495H191.068M194.651 51.3495H198.233M194.651 143.301V146.884M194.651 146.884V150.466M194.651 146.884H191.068M194.651 146.884H198.233M194.651 238.835V242.417M194.651 242.417V246M194.651 242.417H191.068M194.651 242.417H198.233M290.185 47.767V51.3495M290.185 51.3495V54.932M290.185 51.3495H286.602M290.185 51.3495H293.767M290.185 143.301V146.884M290.185 146.884V150.466M290.185 146.884H286.602M290.185 146.884H293.767M290.185 238.835V242.417M290.185 242.417V246M290.185 242.417H286.602M290.185 242.417H293.767M385.719 47.767V51.3495M385.719 51.3495V54.932M385.719 51.3495H382.136M385.719 51.3495H389.301M385.719 143.301V146.884M385.719 146.884V150.466M385.719 146.884H382.136M385.719 146.884H389.301M385.719 238.835V242.417M385.719 242.417V246M385.719 242.417H382.136M385.719 242.417H389.301M481.252 47.767V51.3495M481.252 51.3495V54.932M481.252 51.3495H477.67M481.252 51.3495H484.835M481.252 143.301V146.884M481.252 146.884V150.466M481.252 146.884H477.67M481.252 146.884H484.835M481.252 238.835V242.417M481.252 242.417V246M481.252 242.417H477.67M481.252 242.417H484.835M3.58253 1.76117e-05V3.58254M3.58253 3.58254V7.16507M3.58253 3.58254H0M3.58253 3.58254H7.16505M3.58253 95.534V99.1165M3.58253 99.1165V102.699M3.58253 99.1165H0M3.58253 99.1165H7.16505M3.58253 191.068V194.65M3.58253 194.65V198.233M3.58253 194.65H0M3.58253 194.65H7.16505M99.1165 0V3.58253M99.1165 3.58253V7.16505M99.1165 3.58253H95.534M99.1165 3.58253H102.699M99.1165 95.534V99.1165M99.1165 99.1165V102.699M99.1165 99.1165H95.534M99.1165 99.1165H102.699M99.1165 191.068V194.65M99.1165 194.65V198.233M99.1165 194.65H95.534M99.1165 194.65H102.699M194.651 0V3.58253M194.651 3.58253V7.16505M194.651 3.58253H191.068M194.651 3.58253H198.233M194.651 95.534V99.1165M194.651 99.1165V102.699M194.651 99.1165H191.068M194.651 99.1165H198.233M194.651 191.068V194.65M194.651 194.65V198.233M194.651 194.65H191.068M194.651 194.65H198.233M290.185 0V3.58253M290.185 3.58253V7.16505M290.185 3.58253H286.602M290.185 3.58253H293.767M290.185 95.534V99.1165M290.185 99.1165V102.699M290.185 99.1165H286.602M290.185 99.1165H293.767M290.185 191.068V194.65M290.185 194.65V198.233M290.185 194.65H286.602M290.185 194.65H293.767M385.719 0V3.58253M385.719 3.58253V7.16505M385.719 3.58253H382.136M385.719 3.58253H389.301M385.719 95.534V99.1165M385.719 99.1165V102.699M385.719 99.1165H382.136M385.719 99.1165H389.301M385.719 191.068V194.65M385.719 194.65V198.233M385.719 194.65H382.136M385.719 194.65H389.301M481.252 0V3.58253M481.252 3.58253V7.16505M481.252 3.58253H477.67M481.252 3.58253H484.835M481.252 95.534V99.1165M481.252 99.1165V102.699M481.252 99.1165H477.67M481.252 99.1165H484.835M481.252 191.068V194.65M481.252 194.65V198.233M481.252 194.65H477.67M481.252 194.65H484.835" stroke="url(#paint0_radial_30592_1501)" stroke-opacity="0.6" stroke-width="0.298544"/>
</g>
<defs>
<radialGradient id="paint0_radial_30592_1501" cx="0" cy="0" r="1" gradientUnits="userSpaceOnUse" gradientTransform="translate(266.301 123) rotate(90) scale(123 266.301)">
<stop stop-color="white"/>
<stop offset="1" stop-color="white" stop-opacity="0"/>
</radialGradient>
</defs>
</svg>
