<svg preserveAspectRatio="none" width="100%" height="100%" overflow="visible" style="display: block;" viewBox="0 0 525.586 238.984" fill="none" xmlns="http://www.w3.org/2000/svg">
<g id="Vector" opacity="0.7" style="mix-blend-mode:soft-light">
<path d="M12.0164 0.0746359H0.0746359V12.0164M12.0164 0.0746359V12.0164M12.0164 0.0746359H23.9581M12.0164 12.0164H0.0746359M12.0164 12.0164V23.9581M12.0164 12.0164H23.9581M0.0746359 12.0164V23.9581M12.0164 23.9581H0.0746359M12.0164 23.9581V35.8999M12.0164 23.9581H23.9581M0.0746359 23.9581V35.8999M12.0164 35.8999H0.0746359M12.0164 35.8999V47.8416M12.0164 35.8999H23.9581M0.0746359 35.8999V47.8416M12.0164 47.8416H0.0746359M12.0164 47.8416V59.7834M12.0164 47.8416H23.9581M0.0746359 47.8416V59.7834M12.0164 59.7834H0.0746359M12.0164 59.7834V71.7251M12.0164 59.7834H23.9581M0.0746359 59.7834V71.7251M12.0164 71.7251H0.0746359M12.0164 71.7251V83.6669M12.0164 71.7251H23.9581M0.0746359 71.7251V83.6669M12.0164 83.6669H0.0746359M12.0164 83.6669V95.6086M12.0164 83.6669H23.9581M0.0746359 83.6669V95.6086M12.0164 95.6086H0.0746359M12.0164 95.6086V107.55M12.0164 95.6086H23.9581M0.0746359 95.6086V107.55M12.0164 107.55H0.0746359M12.0164 107.55V119.492M12.0164 107.55H23.9581M0.0746359 107.55V119.492M12.0164 119.492H0.0746359M12.0164 119.492V131.434M12.0164 119.492H23.9581M0.0746359 119.492V131.434M12.0164 131.434H0.0746359M12.0164 131.434V143.376M12.0164 131.434H23.9581M0.0746359 131.434V143.376M12.0164 143.376H0.0746359M12.0164 143.376V155.317M12.0164 143.376H23.9581M0.0746359 143.376V155.317M12.0164 155.317H0.0746359M12.0164 155.317V167.259M12.0164 155.317H23.9581M0.0746359 155.317V167.259M12.0164 167.259H0.0746359M12.0164 167.259V179.201M12.0164 167.259H23.9581M0.0746359 167.259V179.201M12.0164 179.201H0.0746359M12.0164 179.201V191.143M12.0164 179.201H23.9581M0.0746359 179.201V191.143M12.0164 191.143H0.0746359M12.0164 191.143V203.084M12.0164 191.143H23.9581M0.0746359 191.143V203.084M12.0164 203.084H0.0746359M12.0164 203.084V215.026M12.0164 203.084H23.9581M0.0746359 203.084V215.026M12.0164 215.026H0.0746359M12.0164 215.026V226.968M12.0164 215.026H23.9581M0.0746359 215.026V226.968M12.0164 226.968H0.0746359M12.0164 226.968V238.91M12.0164 226.968H23.9581M0.0746359 226.968V238.91H12.0164M12.0164 238.91H23.9581M23.9581 0.0746359V12.0164M23.9581 0.0746359H35.8999M23.9581 12.0164V23.9581M23.9581 12.0164H35.8999M23.9581 23.9581V35.8999M23.9581 23.9581H35.8999M23.9581 35.8999V47.8416M23.9581 35.8999H35.8999M23.9581 47.8416V59.7834M23.9581 47.8416H35.8999M23.9581 59.7834V71.7251M23.9581 59.7834H35.8999M23.9581 71.7251V83.6669M23.9581 71.7251H35.8999M23.9581 83.6669V95.6086M23.9581 83.6669H35.8999M23.9581 95.6086V107.55M23.9581 95.6086H35.8999M23.9581 107.55V119.492M23.9581 107.55H35.8999M23.9581 119.492V131.434M23.9581 119.492H35.8999M23.9581 131.434V143.376M23.9581 131.434H35.8999M23.9581 143.376V155.317M23.9581 143.376H35.8999M23.9581 155.317V167.259M23.9581 155.317H35.8999M23.9581 167.259V179.201M23.9581 167.259H35.8999M23.9581 179.201V191.143M23.9581 179.201H35.8999M23.9581 191.143V203.084M23.9581 191.143H35.8999M23.9581 203.084V215.026M23.9581 203.084H35.8999M23.9581 215.026V226.968M23.9581 215.026H35.8999M23.9581 226.968V238.91M23.9581 226.968H35.8999M23.9581 238.91H35.8999M35.8999 0.0746359V12.0164M35.8999 0.0746359H47.8416M35.8999 12.0164V23.9581M35.8999 12.0164H47.8416M35.8999 23.9581V35.8999M35.8999 23.9581H47.8416M35.8999 35.8999V47.8416M35.8999 35.8999H47.8416M35.8999 47.8416V59.7834M35.8999 47.8416H47.8416M35.8999 59.7834V71.7251M35.8999 59.7834H47.8416M35.8999 71.7251V83.6669M35.8999 71.7251H47.8416M35.8999 83.6669V95.6086M35.8999 83.6669H47.8416M35.8999 95.6086V107.55M35.8999 95.6086H47.8416M35.8999 107.55V119.492M35.8999 107.55H47.8416M35.8999 119.492V131.434M35.8999 119.492H47.8416M35.8999 131.434V143.376M35.8999 131.434H47.8416M35.8999 143.376V155.317M35.8999 143.376H47.8416M35.8999 155.317V167.259M35.8999 155.317H47.8416M35.8999 167.259V179.201M35.8999 167.259H47.8416M35.8999 179.201V191.143M35.8999 179.201H47.8416M35.8999 191.143V203.084M35.8999 191.143H47.8416M35.8999 203.084V215.026M35.8999 203.084H47.8416M35.8999 215.026V226.968M35.8999 215.026H47.8416M35.8999 226.968V238.91M35.8999 226.968H47.8416M35.8999 238.91H47.8416M47.8416 0.0746359V12.0164M47.8416 0.0746359H59.7834M47.8416 12.0164V23.9581M47.8416 12.0164H59.7834M47.8416 23.9581V35.8999M47.8416 23.9581H59.7834M47.8416 35.8999V47.8416M47.8416 35.8999H59.7834M47.8416 47.8416V59.7834M47.8416 47.8416H59.7834M47.8416 59.7834V71.7251M47.8416 59.7834H59.7834M47.8416 71.7251V83.6669M47.8416 71.7251H59.7834M47.8416 83.6669V95.6086M47.8416 83.6669H59.7834M47.8416 95.6086V107.55M47.8416 95.6086H59.7834M47.8416 107.55V119.492M47.8416 107.55H59.7834M47.8416 119.492V131.434M47.8416 119.492H59.7834M47.8416 131.434V143.376M47.8416 131.434H59.7834M47.8416 143.376V155.317M47.8416 143.376H59.7834M47.8416 155.317V167.259M47.8416 155.317H59.7834M47.8416 167.259V179.201M47.8416 167.259H59.7834M47.8416 179.201V191.143M47.8416 179.201H59.7834M47.8416 191.143V203.084M47.8416 191.143H59.7834M47.8416 203.084V215.026M47.8416 203.084H59.7834M47.8416 215.026V226.968M47.8416 215.026H59.7834M47.8416 226.968V238.91M47.8416 226.968H59.7834M47.8416 238.91H59.7834M59.7834 0.0746359V12.0164M59.7834 0.0746359H71.7251M59.7834 12.0164V23.9581M59.7834 12.0164H71.7251M59.7834 23.9581V35.8999M59.7834 23.9581H71.7251M59.7834 35.8999V47.8416M59.7834 35.8999H71.7251M59.7834 47.8416V59.7834M59.7834 47.8416H71.7251M59.7834 59.7834V71.7251M59.7834 59.7834H71.7251M59.7834 71.7251V83.6669M59.7834 71.7251H71.7251M59.7834 83.6669V95.6086M59.7834 83.6669H71.7251M59.7834 95.6086V107.55M59.7834 95.6086H71.7251M59.7834 107.55V119.492M59.7834 107.55H71.7251M59.7834 119.492V131.434M59.7834 119.492H71.7251M59.7834 131.434V143.376M59.7834 131.434H71.7251M59.7834 143.376V155.317M59.7834 143.376H71.7251M59.7834 155.317V167.259M59.7834 155.317H71.7251M59.7834 167.259V179.201M59.7834 167.259H71.7251M59.7834 179.201V191.143M59.7834 179.201H71.7251M59.7834 191.143V203.084M59.7834 191.143H71.7251M59.7834 203.084V215.026M59.7834 203.084H71.7251M59.7834 215.026V226.968M59.7834 215.026H71.7251M59.7834 226.968V238.91M59.7834 226.968H71.7251M59.7834 238.91H71.7251M71.7251 0.0746359V12.0164M71.7251 0.0746359H83.6669M71.7251 12.0164V23.9581M71.7251 12.0164H83.6669M71.7251 23.9581V35.8999M71.7251 23.9581H83.6669M71.7251 35.8999V47.8416M71.7251 35.8999H83.6669M71.7251 47.8416V59.7834M71.7251 47.8416H83.6669M71.7251 59.7834V71.7251M71.7251 59.7834H83.6669M71.7251 71.7251V83.6669M71.7251 71.7251H83.6669M71.7251 83.6669V95.6086M71.7251 83.6669H83.6669M71.7251 95.6086V107.55M71.7251 95.6086H83.6669M71.7251 107.55V119.492M71.7251 107.55H83.6669M71.7251 119.492V131.434M71.7251 119.492H83.6669M71.7251 131.434V143.376M71.7251 131.434H83.6669M71.7251 143.376V155.317M71.7251 143.376H83.6669M71.7251 155.317V167.259M71.7251 155.317H83.6669M71.7251 167.259V179.201M71.7251 167.259H83.6669M71.7251 179.201V191.143M71.7251 179.201H83.6669M71.7251 191.143V203.084M71.7251 191.143H83.6669M71.7251 203.084V215.026M71.7251 203.084H83.6669M71.7251 215.026V226.968M71.7251 215.026H83.6669M71.7251 226.968V238.91M71.7251 226.968H83.6669M71.7251 238.91H83.6669M83.6669 0.0746359V12.0164M83.6669 0.0746359H95.6086M83.6669 12.0164V23.9581M83.6669 12.0164H95.6086M83.6669 23.9581V35.8999M83.6669 23.9581H95.6086M83.6669 35.8999V47.8416M83.6669 35.8999H95.6086M83.6669 47.8416V59.7834M83.6669 47.8416H95.6086M83.6669 59.7834V71.7251M83.6669 59.7834H95.6086M83.6669 71.7251V83.6669M83.6669 71.7251H95.6086M83.6669 83.6669V95.6086M83.6669 83.6669H95.6086M83.6669 95.6086V107.55M83.6669 95.6086H95.6086M83.6669 107.55V119.492M83.6669 107.55H95.6086M83.6669 119.492V131.434M83.6669 119.492H95.6086M83.6669 131.434V143.376M83.6669 131.434H95.6086M83.6669 143.376V155.317M83.6669 143.376H95.6086M83.6669 155.317V167.259M83.6669 155.317H95.6086M83.6669 167.259V179.201M83.6669 167.259H95.6086M83.6669 179.201V191.143M83.6669 179.201H95.6086M83.6669 191.143V203.084M83.6669 191.143H95.6086M83.6669 203.084V215.026M83.6669 203.084H95.6086M83.6669 215.026V226.968M83.6669 215.026H95.6086M83.6669 226.968V238.91M83.6669 226.968H95.6086M83.6669 238.91H95.6086M95.6086 0.0746359V12.0164M95.6086 0.0746359H107.55M95.6086 12.0164V23.9581M95.6086 12.0164H107.55M95.6086 23.9581V35.8999M95.6086 23.9581H107.55M95.6086 35.8999V47.8416M95.6086 35.8999H107.55M95.6086 47.8416V59.7834M95.6086 47.8416H107.55M95.6086 59.7834V71.7251M95.6086 59.7834H107.55M95.6086 71.7251V83.6669M95.6086 71.7251H107.55M95.6086 83.6669V95.6086M95.6086 83.6669H107.55M95.6086 95.6086V107.55M95.6086 95.6086H107.55M95.6086 107.55V119.492M95.6086 107.55H107.55M95.6086 119.492V131.434M95.6086 119.492H107.55M95.6086 131.434V143.376M95.6086 131.434H107.55M95.6086 143.376V155.317M95.6086 143.376H107.55M95.6086 155.317V167.259M95.6086 155.317H107.55M95.6086 167.259V179.201M95.6086 167.259H107.55M95.6086 179.201V191.143M95.6086 179.201H107.55M95.6086 191.143V203.084M95.6086 191.143H107.55M95.6086 203.084V215.026M95.6086 203.084H107.55M95.6086 215.026V226.968M95.6086 215.026H107.55M95.6086 226.968V238.91M95.6086 226.968H107.55M95.6086 238.91H107.55M107.55 0.0746359V12.0164M107.55 0.0746359H119.492M107.55 12.0164V23.9581M107.55 12.0164H119.492M107.55 23.9581V35.8999M107.55 23.9581H119.492M107.55 35.8999V47.8416M107.55 35.8999H119.492M107.55 47.8416V59.7834M107.55 47.8416H119.492M107.55 59.7834V71.7251M107.55 59.7834H119.492M107.55 71.7251V83.6669M107.55 71.7251H119.492M107.55 83.6669V95.6086M107.55 83.6669H119.492M107.55 95.6086V107.55M107.55 95.6086H119.492M107.55 107.55V119.492M107.55 107.55H119.492M107.55 119.492V131.434M107.55 119.492H119.492M107.55 131.434V143.376M107.55 131.434H119.492M107.55 143.376V155.317M107.55 143.376H119.492M107.55 155.317V167.259M107.55 155.317H119.492M107.55 167.259V179.201M107.55 167.259H119.492M107.55 179.201V191.143M107.55 179.201H119.492M107.55 191.143V203.084M107.55 191.143H119.492M107.55 203.084V215.026M107.55 203.084H119.492M107.55 215.026V226.968M107.55 215.026H119.492M107.55 226.968V238.91M107.55 226.968H119.492M107.55 238.91H119.492M119.492 0.0746359V12.0164M119.492 0.0746359H131.434M119.492 12.0164V23.9581M119.492 12.0164H131.434M119.492 23.9581V35.8999M119.492 23.9581H131.434M119.492 35.8999V47.8416M119.492 35.8999H131.434M119.492 47.8416V59.7834M119.492 47.8416H131.434M119.492 59.7834V71.7251M119.492 59.7834H131.434M119.492 71.7251V83.6669M119.492 71.7251H131.434M119.492 83.6669V95.6086M119.492 83.6669H131.434M119.492 95.6086V107.55M119.492 95.6086H131.434M119.492 107.55V119.492M119.492 107.55H131.434M119.492 119.492V131.434M119.492 119.492H131.434M119.492 131.434V143.376M119.492 131.434H131.434M119.492 143.376V155.317M119.492 143.376H131.434M119.492 155.317V167.259M119.492 155.317H131.434M119.492 167.259V179.201M119.492 167.259H131.434M119.492 179.201V191.143M119.492 179.201H131.434M119.492 191.143V203.084M119.492 191.143H131.434M119.492 203.084V215.026M119.492 203.084H131.434M119.492 215.026V226.968M119.492 215.026H131.434M119.492 226.968V238.91M119.492 226.968H131.434M119.492 238.91H131.434M131.434 0.0746359V12.0164M131.434 0.0746359H143.376M131.434 12.0164V23.9581M131.434 12.0164H143.376M131.434 23.9581V35.8999M131.434 23.9581H143.376M131.434 35.8999V47.8416M131.434 35.8999H143.376M131.434 47.8416V59.7834M131.434 47.8416H143.376M131.434 59.7834V71.7251M131.434 59.7834H143.376M131.434 71.7251V83.6669M131.434 71.7251H143.376M131.434 83.6669V95.6086M131.434 83.6669H143.376M131.434 95.6086V107.55M131.434 95.6086H143.376M131.434 107.55V119.492M131.434 107.55H143.376M131.434 119.492V131.434M131.434 119.492H143.376M131.434 131.434V143.376M131.434 131.434H143.376M131.434 143.376V155.317M131.434 143.376H143.376M131.434 155.317V167.259M131.434 155.317H143.376M131.434 167.259V179.201M131.434 167.259H143.376M131.434 179.201V191.143M131.434 179.201H143.376M131.434 191.143V203.084M131.434 191.143H143.376M131.434 203.084V215.026M131.434 203.084H143.376M131.434 215.026V226.968M131.434 215.026H143.376M131.434 226.968V238.91M131.434 226.968H143.376M131.434 238.91H143.376M143.376 0.0746359V12.0164M143.376 0.0746359H155.317M143.376 12.0164V23.9581M143.376 12.0164H155.317M143.376 23.9581V35.8999M143.376 23.9581H155.317M143.376 35.8999V47.8416M143.376 35.8999H155.317M143.376 47.8416V59.7834M143.376 47.8416H155.317M143.376 59.7834V71.7251M143.376 59.7834H155.317M143.376 71.7251V83.6669M143.376 71.7251H155.317M143.376 83.6669V95.6086M143.376 83.6669H155.317M143.376 95.6086V107.55M143.376 95.6086H155.317M143.376 107.55V119.492M143.376 107.55H155.317M143.376 119.492V131.434M143.376 119.492H155.317M143.376 131.434V143.376M143.376 131.434H155.317M143.376 143.376V155.317M143.376 143.376H155.317M143.376 155.317V167.259M143.376 155.317H155.317M143.376 167.259V179.201M143.376 167.259H155.317M143.376 179.201V191.143M143.376 179.201H155.317M143.376 191.143V203.084M143.376 191.143H155.317M143.376 203.084V215.026M143.376 203.084H155.317M143.376 215.026V226.968M143.376 215.026H155.317M143.376 226.968V238.91M143.376 226.968H155.317M143.376 238.91H155.317M155.317 0.0746359V12.0164M155.317 0.0746359H167.259M155.317 12.0164V23.9581M155.317 12.0164H167.259M155.317 23.9581V35.8999M155.317 23.9581H167.259M155.317 35.8999V47.8416M155.317 35.8999H167.259M155.317 47.8416V59.7834M155.317 47.8416H167.259M155.317 59.7834V71.7251M155.317 59.7834H167.259M155.317 71.7251V83.6669M155.317 71.7251H167.259M155.317 83.6669V95.6086M155.317 83.6669H167.259M155.317 95.6086V107.55M155.317 95.6086H167.259M155.317 107.55V119.492M155.317 107.55H167.259M155.317 119.492V131.434M155.317 119.492H167.259M155.317 131.434V143.376M155.317 131.434H167.259M155.317 143.376V155.317M155.317 143.376H167.259M155.317 155.317V167.259M155.317 155.317H167.259M155.317 167.259V179.201M155.317 167.259H167.259M155.317 179.201V191.143M155.317 179.201H167.259M155.317 191.143V203.084M155.317 191.143H167.259M155.317 203.084V215.026M155.317 203.084H167.259M155.317 215.026V226.968M155.317 215.026H167.259M155.317 226.968V238.91M155.317 226.968H167.259M155.317 238.91H167.259M167.259 0.0746359V12.0164M167.259 0.0746359H179.201M167.259 12.0164V23.9581M167.259 12.0164H179.201M167.259 23.9581V35.8999M167.259 23.9581H179.201M167.259 35.8999V47.8416M167.259 35.8999H179.201M167.259 47.8416V59.7834M167.259 47.8416H179.201M167.259 59.7834V71.7251M167.259 59.7834H179.201M167.259 71.7251V83.6669M167.259 71.7251H179.201M167.259 83.6669V95.6086M167.259 83.6669H179.201M167.259 95.6086V107.55M167.259 95.6086H179.201M167.259 107.55V119.492M167.259 107.55H179.201M167.259 119.492V131.434M167.259 119.492H179.201M167.259 131.434V143.376M167.259 131.434H179.201M167.259 143.376V155.317M167.259 143.376H179.201M167.259 155.317V167.259M167.259 155.317H179.201M167.259 167.259V179.201M167.259 167.259H179.201M167.259 179.201V191.143M167.259 179.201H179.201M167.259 191.143V203.084M167.259 191.143H179.201M167.259 203.084V215.026M167.259 203.084H179.201M167.259 215.026V226.968M167.259 215.026H179.201M167.259 226.968V238.91M167.259 226.968H179.201M167.259 238.91H179.201M179.201 0.0746359V12.0164M179.201 0.0746359H191.143M179.201 12.0164V23.9581M179.201 12.0164H191.143M179.201 23.9581V35.8999M179.201 23.9581H191.143M179.201 35.8999V47.8416M179.201 35.8999H191.143M179.201 47.8416V59.7834M179.201 47.8416H191.143M179.201 59.7834V71.7251M179.201 59.7834H191.143M179.201 71.7251V83.6669M179.201 71.7251H191.143M179.201 83.6669V95.6086M179.201 83.6669H191.143M179.201 95.6086V107.55M179.201 95.6086H191.143M179.201 107.55V119.492M179.201 107.55H191.143M179.201 119.492V131.434M179.201 119.492H191.143M179.201 131.434V143.376M179.201 131.434H191.143M179.201 143.376V155.317M179.201 143.376H191.143M179.201 155.317V167.259M179.201 155.317H191.143M179.201 167.259V179.201M179.201 167.259H191.143M179.201 179.201V191.143M179.201 179.201H191.143M179.201 191.143V203.084M179.201 191.143H191.143M179.201 203.084V215.026M179.201 203.084H191.143M179.201 215.026V226.968M179.201 215.026H191.143M179.201 226.968V238.91M179.201 226.968H191.143M179.201 238.91H191.143M191.143 0.0746359V12.0164M191.143 0.0746359H203.084M191.143 12.0164V23.9581M191.143 12.0164H203.084M191.143 23.9581V35.8999M191.143 23.9581H203.084M191.143 35.8999V47.8416M191.143 35.8999H203.084M191.143 47.8416V59.7834M191.143 47.8416H203.084M191.143 59.7834V71.7251M191.143 59.7834H203.084M191.143 71.7251V83.6669M191.143 71.7251H203.084M191.143 83.6669V95.6086M191.143 83.6669H203.084M191.143 95.6086V107.55M191.143 95.6086H203.084M191.143 107.55V119.492M191.143 107.55H203.084M191.143 119.492V131.434M191.143 119.492H203.084M191.143 131.434V143.376M191.143 131.434H203.084M191.143 143.376V155.317M191.143 143.376H203.084M191.143 155.317V167.259M191.143 155.317H203.084M191.143 167.259V179.201M191.143 167.259H203.084M191.143 179.201V191.143M191.143 179.201H203.084M191.143 191.143V203.084M191.143 191.143H203.084M191.143 203.084V215.026M191.143 203.084H203.084M191.143 215.026V226.968M191.143 215.026H203.084M191.143 226.968V238.91M191.143 226.968H203.084M191.143 238.91H203.084M203.084 0.0746359V12.0164M203.084 0.0746359H215.026M203.084 12.0164V23.9581M203.084 12.0164H215.026M203.084 23.9581V35.8999M203.084 23.9581H215.026M203.084 35.8999V47.8416M203.084 35.8999H215.026M203.084 47.8416V59.7834M203.084 47.8416H215.026M203.084 59.7834V71.7251M203.084 59.7834H215.026M203.084 71.7251V83.6669M203.084 71.7251H215.026M203.084 83.6669V95.6086M203.084 83.6669H215.026M203.084 95.6086V107.55M203.084 95.6086H215.026M203.084 107.55V119.492M203.084 107.55H215.026M203.084 119.492V131.434M203.084 119.492H215.026M203.084 131.434V143.376M203.084 131.434H215.026M203.084 143.376V155.317M203.084 143.376H215.026M203.084 155.317V167.259M203.084 155.317H215.026M203.084 167.259V179.201M203.084 167.259H215.026M203.084 179.201V191.143M203.084 179.201H215.026M203.084 191.143V203.084M203.084 191.143H215.026M203.084 203.084V215.026M203.084 203.084H215.026M203.084 215.026V226.968M203.084 215.026H215.026M203.084 226.968V238.91M203.084 226.968H215.026M203.084 238.91H215.026M215.026 0.0746359V12.0164M215.026 0.0746359H226.968M215.026 12.0164V23.9581M215.026 12.0164H226.968M215.026 23.9581V35.8999M215.026 23.9581H226.968M215.026 35.8999V47.8416M215.026 35.8999H226.968M215.026 47.8416V59.7834M215.026 47.8416H226.968M215.026 59.7834V71.7251M215.026 59.7834H226.968M215.026 71.7251V83.6669M215.026 71.7251H226.968M215.026 83.6669V95.6086M215.026 83.6669H226.968M215.026 95.6086V107.55M215.026 95.6086H226.968M215.026 107.55V119.492M215.026 107.55H226.968M215.026 119.492V131.434M215.026 119.492H226.968M215.026 131.434V143.376M215.026 131.434H226.968M215.026 143.376V155.317M215.026 143.376H226.968M215.026 155.317V167.259M215.026 155.317H226.968M215.026 167.259V179.201M215.026 167.259H226.968M215.026 179.201V191.143M215.026 179.201H226.968M215.026 191.143V203.084M215.026 191.143H226.968M215.026 203.084V215.026M215.026 203.084H226.968M215.026 215.026V226.968M215.026 215.026H226.968M215.026 226.968V238.91M215.026 226.968H226.968M215.026 238.91H226.968M226.968 0.0746359V12.0164M226.968 0.0746359H238.91M226.968 12.0164V23.9581M226.968 12.0164H238.91M226.968 23.9581V35.8999M226.968 23.9581H238.91M226.968 35.8999V47.8416M226.968 35.8999H238.91M226.968 47.8416V59.7834M226.968 47.8416H238.91M226.968 59.7834V71.7251M226.968 59.7834H238.91M226.968 71.7251V83.6669M226.968 71.7251H238.91M226.968 83.6669V95.6086M226.968 83.6669H238.91M226.968 95.6086V107.55M226.968 95.6086H238.91M226.968 107.55V119.492M226.968 107.55H238.91M226.968 119.492V131.434M226.968 119.492H238.91M226.968 131.434V143.376M226.968 131.434H238.91M226.968 143.376V155.317M226.968 143.376H238.91M226.968 155.317V167.259M226.968 155.317H238.91M226.968 167.259V179.201M226.968 167.259H238.91M226.968 179.201V191.143M226.968 179.201H238.91M226.968 191.143V203.084M226.968 191.143H238.91M226.968 203.084V215.026M226.968 203.084H238.91M226.968 215.026V226.968M226.968 215.026H238.91M226.968 226.968V238.91M226.968 226.968H238.91M226.968 238.91H238.91M238.91 0.0746359V12.0164M238.91 0.0746359H250.851M238.91 12.0164V23.9581M238.91 12.0164H250.851M238.91 23.9581V35.8999M238.91 23.9581H250.851M238.91 35.8999V47.8416M238.91 35.8999H250.851M238.91 47.8416V59.7834M238.91 47.8416H250.851M238.91 59.7834V71.7251M238.91 59.7834H250.851M238.91 71.7251V83.6669M238.91 71.7251H250.851M238.91 83.6669V95.6086M238.91 83.6669H250.851M238.91 95.6086V107.55M238.91 95.6086H250.851M238.91 107.55V119.492M238.91 107.55H250.851M238.91 119.492V131.434M238.91 119.492H250.851M238.91 131.434V143.376M238.91 131.434H250.851M238.91 143.376V155.317M238.91 143.376H250.851M238.91 155.317V167.259M238.91 155.317H250.851M238.91 167.259V179.201M238.91 167.259H250.851M238.91 179.201V191.143M238.91 179.201H250.851M238.91 191.143V203.084M238.91 191.143H250.851M238.91 203.084V215.026M238.91 203.084H250.851M238.91 215.026V226.968M238.91 215.026H250.851M238.91 226.968V238.91M238.91 226.968H250.851M238.91 238.91H250.851M250.851 0.0746359V12.0164M250.851 0.0746359H262.793M250.851 12.0164V23.9581M250.851 12.0164H262.793M250.851 23.9581V35.8999M250.851 23.9581H262.793M250.851 35.8999V47.8416M250.851 35.8999H262.793M250.851 47.8416V59.7834M250.851 47.8416H262.793M250.851 59.7834V71.7251M250.851 59.7834H262.793M250.851 71.7251V83.6669M250.851 71.7251H262.793M250.851 83.6669V95.6086M250.851 83.6669H262.793M250.851 95.6086V107.55M250.851 95.6086H262.793M250.851 107.55V119.492M250.851 107.55H262.793M250.851 119.492V131.434M250.851 119.492H262.793M250.851 131.434V143.376M250.851 131.434H262.793M250.851 143.376V155.317M250.851 143.376H262.793M250.851 155.317V167.259M250.851 155.317H262.793M250.851 167.259V179.201M250.851 167.259H262.793M250.851 179.201V191.143M250.851 179.201H262.793M250.851 191.143V203.084M250.851 191.143H262.793M250.851 203.084V215.026M250.851 203.084H262.793M250.851 215.026V226.968M250.851 215.026H262.793M250.851 226.968V238.91M250.851 226.968H262.793M250.851 238.91H262.793M262.793 0.0746359V12.0164M262.793 0.0746359H274.735M262.793 12.0164V23.9581M262.793 12.0164H274.735M262.793 23.9581V35.8999M262.793 23.9581H274.735M262.793 35.8999V47.8416M262.793 35.8999H274.735M262.793 47.8416V59.7834M262.793 47.8416H274.735M262.793 59.7834V71.7251M262.793 59.7834H274.735M262.793 71.7251V83.6669M262.793 71.7251H274.735M262.793 83.6669V95.6086M262.793 83.6669H274.735M262.793 95.6086V107.55M262.793 95.6086H274.735M262.793 107.55V119.492M262.793 107.55H274.735M262.793 119.492V131.434M262.793 119.492H274.735M262.793 131.434V143.376M262.793 131.434H274.735M262.793 143.376V155.317M262.793 143.376H274.735M262.793 155.317V167.259M262.793 155.317H274.735M262.793 167.259V179.201M262.793 167.259H274.735M262.793 179.201V191.143M262.793 179.201H274.735M262.793 191.143V203.084M262.793 191.143H274.735M262.793 203.084V215.026M262.793 203.084H274.735M262.793 215.026V226.968M262.793 215.026H274.735M262.793 226.968V238.91M262.793 226.968H274.735M262.793 238.91H274.735M274.735 0.0746359V12.0164M274.735 0.0746359H286.677M274.735 12.0164V23.9581M274.735 12.0164H286.677M274.735 23.9581V35.8999M274.735 23.9581H286.677M274.735 35.8999V47.8416M274.735 35.8999H286.677M274.735 47.8416V59.7834M274.735 47.8416H286.677M274.735 59.7834V71.7251M274.735 59.7834H286.677M274.735 71.7251V83.6669M274.735 71.7251H286.677M274.735 83.6669V95.6086M274.735 83.6669H286.677M274.735 95.6086V107.55M274.735 95.6086H286.677M274.735 107.55V119.492M274.735 107.55H286.677M274.735 119.492V131.434M274.735 119.492H286.677M274.735 131.434V143.376M274.735 131.434H286.677M274.735 143.376V155.317M274.735 143.376H286.677M274.735 155.317V167.259M274.735 155.317H286.677M274.735 167.259V179.201M274.735 167.259H286.677M274.735 179.201V191.143M274.735 179.201H286.677M274.735 191.143V203.084M274.735 191.143H286.677M274.735 203.084V215.026M274.735 203.084H286.677M274.735 215.026V226.968M274.735 215.026H286.677M274.735 226.968V238.91M274.735 226.968H286.677M274.735 238.91H286.677M286.677 0.0746359V12.0164M286.677 0.0746359H298.618M286.677 12.0164V23.9581M286.677 12.0164H298.618M286.677 23.9581V35.8999M286.677 23.9581H298.618M286.677 35.8999V47.8416M286.677 35.8999H298.618M286.677 47.8416V59.7834M286.677 47.8416H298.618M286.677 59.7834V71.7251M286.677 59.7834H298.618M286.677 71.7251V83.6669M286.677 71.7251H298.618M286.677 83.6669V95.6086M286.677 83.6669H298.618M286.677 95.6086V107.55M286.677 95.6086H298.618M286.677 107.55V119.492M286.677 107.55H298.618M286.677 119.492V131.434M286.677 119.492H298.618M286.677 131.434V143.376M286.677 131.434H298.618M286.677 143.376V155.317M286.677 143.376H298.618M286.677 155.317V167.259M286.677 155.317H298.618M286.677 167.259V179.201M286.677 167.259H298.618M286.677 179.201V191.143M286.677 179.201H298.618M286.677 191.143V203.084M286.677 191.143H298.618M286.677 203.084V215.026M286.677 203.084H298.618M286.677 215.026V226.968M286.677 215.026H298.618M286.677 226.968V238.91M286.677 226.968H298.618M286.677 238.91H298.618M298.618 0.0746359V12.0164M298.618 0.0746359H310.56M298.618 12.0164V23.9581M298.618 12.0164H310.56M298.618 23.9581V35.8999M298.618 23.9581H310.56M298.618 35.8999V47.8416M298.618 35.8999H310.56M298.618 47.8416V59.7834M298.618 47.8416H310.56M298.618 59.7834V71.7251M298.618 59.7834H310.56M298.618 71.7251V83.6669M298.618 71.7251H310.56M298.618 83.6669V95.6086M298.618 83.6669H310.56M298.618 95.6086V107.55M298.618 95.6086H310.56M298.618 107.55V119.492M298.618 107.55H310.56M298.618 119.492V131.434M298.618 119.492H310.56M298.618 131.434V143.376M298.618 131.434H310.56M298.618 143.376V155.317M298.618 143.376H310.56M298.618 155.317V167.259M298.618 155.317H310.56M298.618 167.259V179.201M298.618 167.259H310.56M298.618 179.201V191.143M298.618 179.201H310.56M298.618 191.143V203.084M298.618 191.143H310.56M298.618 203.084V215.026M298.618 203.084H310.56M298.618 215.026V226.968M298.618 215.026H310.56M298.618 226.968V238.91M298.618 226.968H310.56M298.618 238.91H310.56M310.56 0.0746359V12.0164M310.56 0.0746359H322.502M310.56 12.0164V23.9581M310.56 12.0164H322.502M310.56 23.9581V35.8999M310.56 23.9581H322.502M310.56 35.8999V47.8416M310.56 35.8999H322.502M310.56 47.8416V59.7834M310.56 47.8416H322.502M310.56 59.7834V71.7251M310.56 59.7834H322.502M310.56 71.7251V83.6669M310.56 71.7251H322.502M310.56 83.6669V95.6086M310.56 83.6669H322.502M310.56 95.6086V107.55M310.56 95.6086H322.502M310.56 107.55V119.492M310.56 107.55H322.502M310.56 119.492V131.434M310.56 119.492H322.502M310.56 131.434V143.376M310.56 131.434H322.502M310.56 143.376V155.317M310.56 143.376H322.502M310.56 155.317V167.259M310.56 155.317H322.502M310.56 167.259V179.201M310.56 167.259H322.502M310.56 179.201V191.143M310.56 179.201H322.502M310.56 191.143V203.084M310.56 191.143H322.502M310.56 203.084V215.026M310.56 203.084H322.502M310.56 215.026V226.968M310.56 215.026H322.502M310.56 226.968V238.91M310.56 226.968H322.502M310.56 238.91H322.502M322.502 0.0746359V12.0164M322.502 0.0746359H334.444M322.502 12.0164V23.9581M322.502 12.0164H334.444M322.502 23.9581V35.8999M322.502 23.9581H334.444M322.502 35.8999V47.8416M322.502 35.8999H334.444M322.502 47.8416V59.7834M322.502 47.8416H334.444M322.502 59.7834V71.7251M322.502 59.7834H334.444M322.502 71.7251V83.6669M322.502 71.7251H334.444M322.502 83.6669V95.6086M322.502 83.6669H334.444M322.502 95.6086V107.55M322.502 95.6086H334.444M322.502 107.55V119.492M322.502 107.55H334.444M322.502 119.492V131.434M322.502 119.492H334.444M322.502 131.434V143.376M322.502 131.434H334.444M322.502 143.376V155.317M322.502 143.376H334.444M322.502 155.317V167.259M322.502 155.317H334.444M322.502 167.259V179.201M322.502 167.259H334.444M322.502 179.201V191.143M322.502 179.201H334.444M322.502 191.143V203.084M322.502 191.143H334.444M322.502 203.084V215.026M322.502 203.084H334.444M322.502 215.026V226.968M322.502 215.026H334.444M322.502 226.968V238.91M322.502 226.968H334.444M322.502 238.91H334.444M334.444 0.0746359V12.0164M334.444 0.0746359H346.385M334.444 12.0164V23.9581M334.444 12.0164H346.385M334.444 23.9581V35.8999M334.444 23.9581H346.385M334.444 35.8999V47.8416M334.444 35.8999H346.385M334.444 47.8416V59.7834M334.444 47.8416H346.385M334.444 59.7834V71.7251M334.444 59.7834H346.385M334.444 71.7251V83.6669M334.444 71.7251H346.385M334.444 83.6669V95.6086M334.444 83.6669H346.385M334.444 95.6086V107.55M334.444 95.6086H346.385M334.444 107.55V119.492M334.444 107.55H346.385M334.444 119.492V131.434M334.444 119.492H346.385M334.444 131.434V143.376M334.444 131.434H346.385M334.444 143.376V155.317M334.444 143.376H346.385M334.444 155.317V167.259M334.444 155.317H346.385M334.444 167.259V179.201M334.444 167.259H346.385M334.444 179.201V191.143M334.444 179.201H346.385M334.444 191.143V203.084M334.444 191.143H346.385M334.444 203.084V215.026M334.444 203.084H346.385M334.444 215.026V226.968M334.444 215.026H346.385M334.444 226.968V238.91M334.444 226.968H346.385M334.444 238.91H346.385M346.385 0.0746359V12.0164M346.385 0.0746359H358.327M346.385 12.0164V23.9581M346.385 12.0164H358.327M346.385 23.9581V35.8999M346.385 23.9581H358.327M346.385 35.8999V47.8416M346.385 35.8999H358.327M346.385 47.8416V59.7834M346.385 47.8416H358.327M346.385 59.7834V71.7251M346.385 59.7834H358.327M346.385 71.7251V83.6669M346.385 71.7251H358.327M346.385 83.6669V95.6086M346.385 83.6669H358.327M346.385 95.6086V107.55M346.385 95.6086H358.327M346.385 107.55V119.492M346.385 107.55H358.327M346.385 119.492V131.434M346.385 119.492H358.327M346.385 131.434V143.376M346.385 131.434H358.327M346.385 143.376V155.317M346.385 143.376H358.327M346.385 155.317V167.259M346.385 155.317H358.327M346.385 167.259V179.201M346.385 167.259H358.327M346.385 179.201V191.143M346.385 179.201H358.327M346.385 191.143V203.084M346.385 191.143H358.327M346.385 203.084V215.026M346.385 203.084H358.327M346.385 215.026V226.968M346.385 215.026H358.327M346.385 226.968V238.91M346.385 226.968H358.327M346.385 238.91H358.327M358.327 0.0746359V12.0164M358.327 0.0746359H370.269M358.327 12.0164V23.9581M358.327 12.0164H370.269M358.327 23.9581V35.8999M358.327 23.9581H370.269M358.327 35.8999V47.8416M358.327 35.8999H370.269M358.327 47.8416V59.7834M358.327 47.8416H370.269M358.327 59.7834V71.7251M358.327 59.7834H370.269M358.327 71.7251V83.6669M358.327 71.7251H370.269M358.327 83.6669V95.6086M358.327 83.6669H370.269M358.327 95.6086V107.55M358.327 95.6086H370.269M358.327 107.55V119.492M358.327 107.55H370.269M358.327 119.492V131.434M358.327 119.492H370.269M358.327 131.434V143.376M358.327 131.434H370.269M358.327 143.376V155.317M358.327 143.376H370.269M358.327 155.317V167.259M358.327 155.317H370.269M358.327 167.259V179.201M358.327 167.259H370.269M358.327 179.201V191.143M358.327 179.201H370.269M358.327 191.143V203.084M358.327 191.143H370.269M358.327 203.084V215.026M358.327 203.084H370.269M358.327 215.026V226.968M358.327 215.026H370.269M358.327 226.968V238.91M358.327 226.968H370.269M358.327 238.91H370.269M370.269 0.0746359V12.0164M370.269 0.0746359H382.211M370.269 12.0164V23.9581M370.269 12.0164H382.211M370.269 23.9581V35.8999M370.269 23.9581H382.211M370.269 35.8999V47.8416M370.269 35.8999H382.211M370.269 47.8416V59.7834M370.269 47.8416H382.211M370.269 59.7834V71.7251M370.269 59.7834H382.211M370.269 71.7251V83.6669M370.269 71.7251H382.211M370.269 83.6669V95.6086M370.269 83.6669H382.211M370.269 95.6086V107.55M370.269 95.6086H382.211M370.269 107.55V119.492M370.269 107.55H382.211M370.269 119.492V131.434M370.269 119.492H382.211M370.269 131.434V143.376M370.269 131.434H382.211M370.269 143.376V155.317M370.269 143.376H382.211M370.269 155.317V167.259M370.269 155.317H382.211M370.269 167.259V179.201M370.269 167.259H382.211M370.269 179.201V191.143M370.269 179.201H382.211M370.269 191.143V203.084M370.269 191.143H382.211M370.269 203.084V215.026M370.269 203.084H382.211M370.269 215.026V226.968M370.269 215.026H382.211M370.269 226.968V238.91M370.269 226.968H382.211M370.269 238.91H382.211M382.211 0.0746359V12.0164M382.211 0.0746359H394.152M382.211 12.0164V23.9581M382.211 12.0164H394.152M382.211 23.9581V35.8999M382.211 23.9581H394.152M382.211 35.8999V47.8416M382.211 35.8999H394.152M382.211 47.8416V59.7834M382.211 47.8416H394.152M382.211 59.7834V71.7251M382.211 59.7834H394.152M382.211 71.7251V83.6669M382.211 71.7251H394.152M382.211 83.6669V95.6086M382.211 83.6669H394.152M382.211 95.6086V107.55M382.211 95.6086H394.152M382.211 107.55V119.492M382.211 107.55H394.152M382.211 119.492V131.434M382.211 119.492H394.152M382.211 131.434V143.376M382.211 131.434H394.152M382.211 143.376V155.317M382.211 143.376H394.152M382.211 155.317V167.259M382.211 155.317H394.152M382.211 167.259V179.201M382.211 167.259H394.152M382.211 179.201V191.143M382.211 179.201H394.152M382.211 191.143V203.084M382.211 191.143H394.152M382.211 203.084V215.026M382.211 203.084H394.152M382.211 215.026V226.968M382.211 215.026H394.152M382.211 226.968V238.91M382.211 226.968H394.152M382.211 238.91H394.152M394.152 0.0746359V12.0164M394.152 0.0746359H406.094M394.152 12.0164V23.9581M394.152 12.0164H406.094M394.152 23.9581V35.8999M394.152 23.9581H406.094M394.152 35.8999V47.8416M394.152 35.8999H406.094M394.152 47.8416V59.7834M394.152 47.8416H406.094M394.152 59.7834V71.7251M394.152 59.7834H406.094M394.152 71.7251V83.6669M394.152 71.7251H406.094M394.152 83.6669V95.6086M394.152 83.6669H406.094M394.152 95.6086V107.55M394.152 95.6086H406.094M394.152 107.55V119.492M394.152 107.55H406.094M394.152 119.492V131.434M394.152 119.492H406.094M394.152 131.434V143.376M394.152 131.434H406.094M394.152 143.376V155.317M394.152 143.376H406.094M394.152 155.317V167.259M394.152 155.317H406.094M394.152 167.259V179.201M394.152 167.259H406.094M394.152 179.201V191.143M394.152 179.201H406.094M394.152 191.143V203.084M394.152 191.143H406.094M394.152 203.084V215.026M394.152 203.084H406.094M394.152 215.026V226.968M394.152 215.026H406.094M394.152 226.968V238.91M394.152 226.968H406.094M394.152 238.91H406.094M406.094 0.0746359V12.0164M406.094 0.0746359H418.036M406.094 12.0164V23.9581M406.094 12.0164H418.036M406.094 23.9581V35.8999M406.094 23.9581H418.036M406.094 35.8999V47.8416M406.094 35.8999H418.036M406.094 47.8416V59.7834M406.094 47.8416H418.036M406.094 59.7834V71.7251M406.094 59.7834H418.036M406.094 71.7251V83.6669M406.094 71.7251H418.036M406.094 83.6669V95.6086M406.094 83.6669H418.036M406.094 95.6086V107.55M406.094 95.6086H418.036M406.094 107.55V119.492M406.094 107.55H418.036M406.094 119.492V131.434M406.094 119.492H418.036M406.094 131.434V143.376M406.094 131.434H418.036M406.094 143.376V155.317M406.094 143.376H418.036M406.094 155.317V167.259M406.094 155.317H418.036M406.094 167.259V179.201M406.094 167.259H418.036M406.094 179.201V191.143M406.094 179.201H418.036M406.094 191.143V203.084M406.094 191.143H418.036M406.094 203.084V215.026M406.094 203.084H418.036M406.094 215.026V226.968M406.094 215.026H418.036M406.094 226.968V238.91M406.094 226.968H418.036M406.094 238.91H418.036M418.036 0.0746359V12.0164M418.036 0.0746359H429.978M418.036 12.0164V23.9581M418.036 12.0164H429.978M418.036 23.9581V35.8999M418.036 23.9581H429.978M418.036 35.8999V47.8416M418.036 35.8999H429.978M418.036 47.8416V59.7834M418.036 47.8416H429.978M418.036 59.7834V71.7251M418.036 59.7834H429.978M418.036 71.7251V83.6669M418.036 71.7251H429.978M418.036 83.6669V95.6086M418.036 83.6669H429.978M418.036 95.6086V107.55M418.036 95.6086H429.978M418.036 107.55V119.492M418.036 107.55H429.978M418.036 119.492V131.434M418.036 119.492H429.978M418.036 131.434V143.376M418.036 131.434H429.978M418.036 143.376V155.317M418.036 143.376H429.978M418.036 155.317V167.259M418.036 155.317H429.978M418.036 167.259V179.201M418.036 167.259H429.978M418.036 179.201V191.143M418.036 179.201H429.978M418.036 191.143V203.084M418.036 191.143H429.978M418.036 203.084V215.026M418.036 203.084H429.978M418.036 215.026V226.968M418.036 215.026H429.978M418.036 226.968V238.91M418.036 226.968H429.978M418.036 238.91H429.978M429.978 0.0746359V12.0164M429.978 0.0746359H441.919M429.978 12.0164V23.9581M429.978 12.0164H441.919M429.978 23.9581V35.8999M429.978 23.9581H441.919M429.978 35.8999V47.8416M429.978 35.8999H441.919M429.978 47.8416V59.7834M429.978 47.8416H441.919M429.978 59.7834V71.7251M429.978 59.7834H441.919M429.978 71.7251V83.6669M429.978 71.7251H441.919M429.978 83.6669V95.6086M429.978 83.6669H441.919M429.978 95.6086V107.55M429.978 95.6086H441.919M429.978 107.55V119.492M429.978 107.55H441.919M429.978 119.492V131.434M429.978 119.492H441.919M429.978 131.434V143.376M429.978 131.434H441.919M429.978 143.376V155.317M429.978 143.376H441.919M429.978 155.317V167.259M429.978 155.317H441.919M429.978 167.259V179.201M429.978 167.259H441.919M429.978 179.201V191.143M429.978 179.201H441.919M429.978 191.143V203.084M429.978 191.143H441.919M429.978 203.084V215.026M429.978 203.084H441.919M429.978 215.026V226.968M429.978 215.026H441.919M429.978 226.968V238.91M429.978 226.968H441.919M429.978 238.91H441.919M441.919 0.0746359V12.0164M441.919 0.0746359H453.861M441.919 12.0164V23.9581M441.919 12.0164H453.861M441.919 23.9581V35.8999M441.919 23.9581H453.861M441.919 35.8999V47.8416M441.919 35.8999H453.861M441.919 47.8416V59.7834M441.919 47.8416H453.861M441.919 59.7834V71.7251M441.919 59.7834H453.861M441.919 71.7251V83.6669M441.919 71.7251H453.861M441.919 83.6669V95.6086M441.919 83.6669H453.861M441.919 95.6086V107.55M441.919 95.6086H453.861M441.919 107.55V119.492M441.919 107.55H453.861M441.919 119.492V131.434M441.919 119.492H453.861M441.919 131.434V143.376M441.919 131.434H453.861M441.919 143.376V155.317M441.919 143.376H453.861M441.919 155.317V167.259M441.919 155.317H453.861M441.919 167.259V179.201M441.919 167.259H453.861M441.919 179.201V191.143M441.919 179.201H453.861M441.919 191.143V203.084M441.919 191.143H453.861M441.919 203.084V215.026M441.919 203.084H453.861M441.919 215.026V226.968M441.919 215.026H453.861M441.919 226.968V238.91M441.919 226.968H453.861M441.919 238.91H453.861M453.861 0.0746359V12.0164M453.861 0.0746359H465.803M453.861 12.0164V23.9581M453.861 12.0164H465.803M453.861 23.9581V35.8999M453.861 23.9581H465.803M453.861 35.8999V47.8416M453.861 35.8999H465.803M453.861 47.8416V59.7834M453.861 47.8416H465.803M453.861 59.7834V71.7251M453.861 59.7834H465.803M453.861 71.7251V83.6669M453.861 71.7251H465.803M453.861 83.6669V95.6086M453.861 83.6669H465.803M453.861 95.6086V107.55M453.861 95.6086H465.803M453.861 107.55V119.492M453.861 107.55H465.803M453.861 119.492V131.434M453.861 119.492H465.803M453.861 131.434V143.376M453.861 131.434H465.803M453.861 143.376V155.317M453.861 143.376H465.803M453.861 155.317V167.259M453.861 155.317H465.803M453.861 167.259V179.201M453.861 167.259H465.803M453.861 179.201V191.143M453.861 179.201H465.803M453.861 191.143V203.084M453.861 191.143H465.803M453.861 203.084V215.026M453.861 203.084H465.803M453.861 215.026V226.968M453.861 215.026H465.803M453.861 226.968V238.91M453.861 226.968H465.803M453.861 238.91H465.803M465.803 0.0746359V12.0164M465.803 0.0746359H477.745M465.803 12.0164V23.9581M465.803 12.0164H477.745M465.803 23.9581V35.8999M465.803 23.9581H477.745M465.803 35.8999V47.8416M465.803 35.8999H477.745M465.803 47.8416V59.7834M465.803 47.8416H477.745M465.803 59.7834V71.7251M465.803 59.7834H477.745M465.803 71.7251V83.6669M465.803 71.7251H477.745M465.803 83.6669V95.6086M465.803 83.6669H477.745M465.803 95.6086V107.55M465.803 95.6086H477.745M465.803 107.55V119.492M465.803 107.55H477.745M465.803 119.492V131.434M465.803 119.492H477.745M465.803 131.434V143.376M465.803 131.434H477.745M465.803 143.376V155.317M465.803 143.376H477.745M465.803 155.317V167.259M465.803 155.317H477.745M465.803 167.259V179.201M465.803 167.259H477.745M465.803 179.201V191.143M465.803 179.201H477.745M465.803 191.143V203.084M465.803 191.143H477.745M465.803 203.084V215.026M465.803 203.084H477.745M465.803 215.026V226.968M465.803 215.026H477.745M465.803 226.968V238.91M465.803 226.968H477.745M465.803 238.91H477.745M477.745 0.0746359V12.0164M477.745 0.0746359H489.686M477.745 12.0164V23.9581M477.745 12.0164H489.686M477.745 23.9581V35.8999M477.745 23.9581H489.686M477.745 35.8999V47.8416M477.745 35.8999H489.686M477.745 47.8416V59.7834M477.745 47.8416H489.686M477.745 59.7834V71.7251M477.745 59.7834H489.686M477.745 71.7251V83.6669M477.745 71.7251H489.686M477.745 83.6669V95.6086M477.745 83.6669H489.686M477.745 95.6086V107.55M477.745 95.6086H489.686M477.745 107.55V119.492M477.745 107.55H489.686M477.745 119.492V131.434M477.745 119.492H489.686M477.745 131.434V143.376M477.745 131.434H489.686M477.745 143.376V155.317M477.745 143.376H489.686M477.745 155.317V167.259M477.745 155.317H489.686M477.745 167.259V179.201M477.745 167.259H489.686M477.745 179.201V191.143M477.745 179.201H489.686M477.745 191.143V203.084M477.745 191.143H489.686M477.745 203.084V215.026M477.745 203.084H489.686M477.745 215.026V226.968M477.745 215.026H489.686M477.745 226.968V238.91M477.745 226.968H489.686M477.745 238.91H489.686M489.686 0.0746359V12.0164M489.686 0.0746359H501.628M489.686 12.0164V23.9581M489.686 12.0164H501.628M489.686 23.9581V35.8999M489.686 23.9581H501.628M489.686 35.8999V47.8416M489.686 35.8999H501.628M489.686 47.8416V59.7834M489.686 47.8416H501.628M489.686 59.7834V71.7251M489.686 59.7834H501.628M489.686 71.7251V83.6669M489.686 71.7251H501.628M489.686 83.6669V95.6086M489.686 83.6669H501.628M489.686 95.6086V107.55M489.686 95.6086H501.628M489.686 107.55V119.492M489.686 107.55H501.628M489.686 119.492V131.434M489.686 119.492H501.628M489.686 131.434V143.376M489.686 131.434H501.628M489.686 143.376V155.317M489.686 143.376H501.628M489.686 155.317V167.259M489.686 155.317H501.628M489.686 167.259V179.201M489.686 167.259H501.628M489.686 179.201V191.143M489.686 179.201H501.628M489.686 191.143V203.084M489.686 191.143H501.628M489.686 203.084V215.026M489.686 203.084H501.628M489.686 215.026V226.968M489.686 215.026H501.628M489.686 226.968V238.91M489.686 226.968H501.628M489.686 238.91H501.628M501.628 0.0746359V12.0164M501.628 0.0746359H513.57M501.628 12.0164V23.9581M501.628 12.0164H513.57M501.628 23.9581V35.8999M501.628 23.9581H513.57M501.628 35.8999V47.8416M501.628 35.8999H513.57M501.628 47.8416V59.7834M501.628 47.8416H513.57M501.628 59.7834V71.7251M501.628 59.7834H513.57M501.628 71.7251V83.6669M501.628 71.7251H513.57M501.628 83.6669V95.6086M501.628 83.6669H513.57M501.628 95.6086V107.55M501.628 95.6086H513.57M501.628 107.55V119.492M501.628 107.55H513.57M501.628 119.492V131.434M501.628 119.492H513.57M501.628 131.434V143.376M501.628 131.434H513.57M501.628 143.376V155.317M501.628 143.376H513.57M501.628 155.317V167.259M501.628 155.317H513.57M501.628 167.259V179.201M501.628 167.259H513.57M501.628 179.201V191.143M501.628 179.201H513.57M501.628 191.143V203.084M501.628 191.143H513.57M501.628 203.084V215.026M501.628 203.084H513.57M501.628 215.026V226.968M501.628 215.026H513.57M501.628 226.968V238.91M501.628 226.968H513.57M501.628 238.91H513.57M513.57 0.0746359V12.0164M513.57 0.0746359H525.512V12.0164M513.57 12.0164V23.9581M513.57 12.0164H525.512M513.57 23.9581V35.8999M513.57 23.9581H525.512M513.57 35.8999V47.8416M513.57 35.8999H525.512M513.57 47.8416V59.7834M513.57 47.8416H525.512M513.57 59.7834V71.7251M513.57 59.7834H525.512M513.57 71.7251V83.6669M513.57 71.7251H525.512M513.57 83.6669V95.6086M513.57 83.6669H525.512M513.57 95.6086V107.55M513.57 95.6086H525.512M513.57 107.55V119.492M513.57 107.55H525.512M513.57 119.492V131.434M513.57 119.492H525.512M513.57 131.434V143.376M513.57 131.434H525.512M513.57 143.376V155.317M513.57 143.376H525.512M513.57 155.317V167.259M513.57 155.317H525.512M513.57 167.259V179.201M513.57 167.259H525.512M513.57 179.201V191.143M513.57 179.201H525.512M513.57 191.143V203.084M513.57 191.143H525.512M513.57 203.084V215.026M513.57 203.084H525.512M513.57 215.026V226.968M513.57 215.026H525.512M513.57 226.968V238.91M513.57 226.968H525.512M513.57 238.91H525.512V226.968M525.512 12.0164V23.9581M525.512 23.9581V35.8999M525.512 35.8999V47.8416M525.512 47.8416V59.7834M525.512 59.7834V71.7251M525.512 71.7251V83.6669M525.512 83.6669V95.6086M525.512 95.6086V107.55M525.512 107.55V119.492M525.512 119.492V131.434M525.512 131.434V143.376M525.512 143.376V155.317M525.512 155.317V167.259M525.512 167.259V179.201M525.512 179.201V191.143M525.512 191.143V203.084M525.512 203.084V215.026M525.512 215.026V226.968" stroke="url(#paint0_radial_30592_1510)" stroke-opacity="0.6" stroke-width="0.149272"/>
</g>
<defs>
<radialGradient id="paint0_radial_30592_1510" cx="0" cy="0" r="1" gradientUnits="userSpaceOnUse" gradientTransform="translate(262.793 119.492) rotate(90) scale(119.417 262.719)">
<stop stop-color="white"/>
<stop offset="1" stop-color="white" stop-opacity="0"/>
</radialGradient>
</defs>
</svg>
